SplineFontDB: 3.2
FontName: KilroyA-Regular
FullName: KilroyA Regular
FamilyName: KilroyA
Weight: Regular
Copyright: Copyright 2020 The Roboto Serif Project Authors (https://github.com/googlefonts/RobotoSerif) OFL
Version: 1.008
ItalicAngle: 0
UnderlinePosition: -200
UnderlineWidth: 100
Ascent: 800
Descent: 200
InvalidEm: 0
sfntRevision: 0x0001020c
LayerCount: 2
Layer: 0 1 "Back" 1
Layer: 1 1 "Fore" 0
XUID: [1021 1018 -1064020043 32539]
StyleMap: 0x0040
FSType: 0
OS2Version: 4
OS2_WeightWidthSlopeOnly: 0
OS2_UseTypoMetrics: 1
CreationTime: 1586430965
ModificationTime: 1753075761
PfmFamily: 81
TTFWeight: 400
TTFWidth: 4
LineGap: 0
VLineGap: 0
Panose: 0 0 0 0 0 0 0 0 0 0
OS2TypoAscent: 927
OS2TypoAOffset: 0
OS2TypoDescent: -244
OS2TypoDOffset: 0
OS2TypoLinegap: 0
OS2WinAscent: 1048
OS2WinAOffset: 0
OS2WinDescent: 251
OS2WinDOffset: 0
HheadAscent: 927
HheadAOffset: 0
HheadDescent: -244
HheadDOffset: 0
OS2SubXSize: 650
OS2SubYSize: 600
OS2SubXOff: 0
OS2SubYOff: 75
OS2SupXSize: 650
OS2SupYSize: 600
OS2SupXOff: 0
OS2SupYOff: 350
OS2StrikeYSize: 100
OS2StrikeYPos: 311
OS2CapHeight: 710
OS2XHeight: 518
OS2Vendor: 'COMM'
OS2CodePages: 20000193.00000000
OS2UnicodeRanges: a10000ef.4000267a.00000000.00000000
Lookup: 5 0 0 "'locl' Localized Forms in Latin lookup 0" { "'locl' Localized Forms in Latin lookup 0 subtable"  } ['locl' ('latn' <'AZE ' 'CRT ' 'TRK ' > ) ]
Lookup: 1 0 0 "Single Substitution lookup 1" { "Single Substitution lookup 1 subtable"  } []
Lookup: 5 0 0 "'locl' Localized Forms in Latin lookup 2" { "'locl' Localized Forms in Latin lookup 2 subtable"  } ['locl' ('latn' <'PLK ' > ) ]
Lookup: 1 0 0 "Single Substitution lookup 3" { "Single Substitution lookup 3 subtable"  } []
Lookup: 6 0 0 "'locl' Localized Forms in Latin lookup 4" { "'locl' Localized Forms in Latin lookup 4 subtable"  } ['locl' ('latn' <'CAT ' > ) ]
Lookup: 4 0 0 "Ligature Substitution lookup 5" { "Ligature Substitution lookup 5 subtable"  } []

StartChar: .notdef
Encoding: 65536 -1 0
Width: 400
GlyphClass: 1
Flags: W
LayerCount: 2
Fore
SplineSet
0 0 m 1,0,-1
 0 700 l 1,1,-1
 400 700 l 1,2,-1
 400 0 l 1,3,-1
 0 0 l 1,0,-1
50 650 m 1,4,-1
 50 50 l 1,5,-1
 350 50 l 1,6,-1
 350 650 l 1,7,-1
 50 650 l 1,4,-1
EndSplineSet
EndChar

StartChar: A
Encoding: 65 65 6
Width: 707
GlyphClass: 2
Flags: W
AnchorPoint: "Anchor-2" 559 0 basechar 0
AnchorPoint: "Anchor-1" 353 0 basechar 0
AnchorPoint: "Anchor-0" 353 721 basechar 0
LayerCount: 2
Fore
SplineSet
211 301 m 1,0,-1
 472 301 l 1,1,-1
 491 226 l 1,2,-1
 192 226 l 1,3,-1
 211 301 l 1,0,-1
328 683 m 1,4,-1
 357 675 l 1,5,-1
 172 99 l 2,6,7
 172 93 172 93 182 87.5 c 128,-1,8
 192 82 192 82 210 79 c 128,-1,9
 228 76 228 76 251 76 c 2,10,-1
 260 76 l 1,11,-1
 260 0 l 1,12,-1
 19 0 l 1,13,-1
 19 76 l 1,14,-1
 25 76 l 2,15,16
 48 76 48 76 67.5 88 c 128,-1,17
 87 100 87 100 99 140 c 2,18,-1
 289 722 l 1,19,-1
 412 722 l 1,20,-1
 604 140 l 2,21,22
 617 100 617 100 636.5 88 c 128,-1,23
 656 76 656 76 683 76 c 2,24,-1
 688 76 l 1,25,-1
 688 0 l 1,26,-1
 428 0 l 1,27,-1
 428 76 l 1,28,-1
 438 76 l 2,29,30
 463 76 463 76 481.5 77.5 c 128,-1,31
 500 79 500 79 510 81.5 c 128,-1,32
 520 84 520 84 520 87 c 2,33,-1
 328 683 l 1,4,-1
EndSplineSet
EndChar

StartChar: Aogonek
Encoding: 260 260 15
Width: 707
GlyphClass: 1
Flags: W
LayerCount: 2
Fore
SplineSet
211 301 m 1,0,-1
 472 301 l 1,1,-1
 491 226 l 1,2,-1
 192 226 l 1,3,-1
 211 301 l 1,0,-1
563 40 m 1,4,-1
 591 4 l 1,5,6
 546 -35 546 -35 521.5 -59 c 128,-1,7
 497 -83 497 -83 487 -101.5 c 128,-1,8
 477 -120 477 -120 477 -143 c 0,9,10
 477 -164 477 -164 488 -176 c 128,-1,11
 499 -188 499 -188 523 -188 c 0,12,13
 551 -188 551 -188 571.5 -173 c 128,-1,14
 592 -158 592 -158 605 -140 c 1,15,-1
 649 -178 l 1,16,17
 624 -211 624 -211 589 -231.5 c 128,-1,18
 554 -252 554 -252 503 -252 c 0,19,20
 448 -252 448 -252 409.5 -230 c 128,-1,21
 371 -208 371 -208 371 -156 c 0,22,23
 371 -130 371 -130 379 -109.5 c 128,-1,24
 387 -89 387 -89 408.5 -69 c 128,-1,25
 430 -49 430 -49 467.5 -23 c 128,-1,26
 505 3 505 3 563 40 c 1,4,-1
688 0 m 1,27,-1
 550 0 l 1,28,-1
 328 683 l 1,29,-1
 354 659 l 1,30,-1
 175 99 l 2,31,32
 175 93 175 93 185 87.5 c 128,-1,33
 195 82 195 82 212.5 79 c 128,-1,34
 230 76 230 76 253 76 c 2,35,-1
 262 76 l 1,36,-1
 262 0 l 1,37,-1
 19 0 l 1,38,-1
 19 76 l 1,39,-1
 25 76 l 2,40,41
 48 76 48 76 67.5 88 c 128,-1,42
 87 100 87 100 99 140 c 2,43,-1
 289 722 l 1,44,-1
 412 722 l 1,45,-1
 604 140 l 2,46,47
 617 100 617 100 636.5 88 c 128,-1,48
 656 76 656 76 683 76 c 2,49,-1
 688 76 l 1,50,-1
 688 0 l 1,27,-1
EndSplineSet
EndChar

StartChar: Acaron
Encoding: 461 461 16
Width: 707
GlyphClass: 1
Flags: W
LayerCount: 2
Fore
SplineSet
305 805 m 1,0,-1
 378 805 l 1,1,-1
 508 961 l 1,2,-1
 508 981 l 1,3,-1
 458 981 l 1,4,-1
 277 838 l 1,5,-1
 411 843 l 1,6,-1
 234 981 l 1,7,-1
 174 981 l 1,8,-1
 174 961 l 1,9,-1
 305 805 l 1,0,-1
211 301 m 1,10,-1
 472 301 l 1,11,-1
 491 226 l 1,12,-1
 192 226 l 1,13,-1
 211 301 l 1,10,-1
328 683 m 1,14,-1
 357 675 l 1,15,-1
 172 99 l 2,16,17
 172 93 172 93 182 87.5 c 128,-1,18
 192 82 192 82 210 79 c 128,-1,19
 228 76 228 76 251 76 c 2,20,-1
 260 76 l 1,21,-1
 260 0 l 1,22,-1
 19 0 l 1,23,-1
 19 76 l 1,24,-1
 25 76 l 2,25,26
 48 76 48 76 67.5 88 c 128,-1,27
 87 100 87 100 99 140 c 2,28,-1
 289 722 l 1,29,-1
 412 722 l 1,30,-1
 604 140 l 2,31,32
 617 100 617 100 636.5 88 c 128,-1,33
 656 76 656 76 683 76 c 2,34,-1
 688 76 l 1,35,-1
 688 0 l 1,36,-1
 428 0 l 1,37,-1
 428 76 l 1,38,-1
 438 76 l 2,39,40
 463 76 463 76 481.5 77.5 c 128,-1,41
 500 79 500 79 510 81.5 c 128,-1,42
 520 84 520 84 520 87 c 2,43,-1
 328 683 l 1,14,-1
EndSplineSet
EndChar

StartChar: Adblgrave
Encoding: 512 512 18
Width: 707
GlyphClass: 1
Flags: W
LayerCount: 2
Fore
SplineSet
443 928 m 2,0,-1
 488 826 l 1,1,-1
 488 793 l 1,2,-1
 446 793 l 1,3,-1
 375 855 l 2,4,5
 354 873 354 873 342.5 890 c 128,-1,6
 331 907 331 907 331 928 c 0,7,8
 331 946 331 946 344.5 959 c 128,-1,9
 358 972 358 972 381 972 c 0,10,11
 397 972 397 972 409 966 c 128,-1,12
 421 960 421 960 429.5 950 c 128,-1,13
 438 940 438 940 443 928 c 2,0,-1
250 928 m 2,14,-1
 292 826 l 1,15,-1
 292 793 l 1,16,-1
 250 793 l 1,17,-1
 179 855 l 2,18,19
 158 873 158 873 146.5 890 c 128,-1,20
 135 907 135 907 135 928 c 0,21,22
 135 946 135 946 149 959 c 128,-1,23
 163 972 163 972 185 972 c 0,24,25
 202 972 202 972 214.5 966 c 128,-1,26
 227 960 227 960 236 950 c 128,-1,27
 245 940 245 940 250 928 c 2,14,-1
211 301 m 1,28,-1
 472 301 l 1,29,-1
 491 226 l 1,30,-1
 192 226 l 1,31,-1
 211 301 l 1,28,-1
328 683 m 1,32,-1
 357 675 l 1,33,-1
 172 99 l 2,34,35
 172 93 172 93 182 87.5 c 128,-1,36
 192 82 192 82 210 79 c 128,-1,37
 228 76 228 76 251 76 c 2,38,-1
 260 76 l 1,39,-1
 260 0 l 1,40,-1
 19 0 l 1,41,-1
 19 76 l 1,42,-1
 25 76 l 2,43,44
 48 76 48 76 67.5 88 c 128,-1,45
 87 100 87 100 99 140 c 2,46,-1
 289 722 l 1,47,-1
 412 722 l 1,48,-1
 604 140 l 2,49,50
 617 100 617 100 636.5 88 c 128,-1,51
 656 76 656 76 683 76 c 2,52,-1
 688 76 l 1,53,-1
 688 0 l 1,54,-1
 428 0 l 1,55,-1
 428 76 l 1,56,-1
 438 76 l 2,57,58
 463 76 463 76 481.5 77.5 c 128,-1,59
 500 79 500 79 510 81.5 c 128,-1,60
 520 84 520 84 520 87 c 2,61,-1
 328 683 l 1,32,-1
EndSplineSet
EndChar

StartChar: Ainvertedbreve
Encoding: 514 514 19
Width: 707
GlyphClass: 1
Flags: W
LayerCount: 2
Fore
SplineSet
354 928 m 0,0,1
 298 928 298 928 259.5 911.5 c 128,-1,2
 221 895 221 895 200.5 858 c 128,-1,3
 180 821 180 821 179 759 c 1,4,-1
 253 759 l 1,5,6
 255 796 255 796 264 815 c 128,-1,7
 273 834 273 834 294.5 841 c 128,-1,8
 316 848 316 848 354 848 c 0,9,10
 388 848 388 848 408.5 841 c 128,-1,11
 429 834 429 834 439 815 c 128,-1,12
 449 796 449 796 451 759 c 1,13,-1
 529 759 l 1,14,15
 528 821 528 821 506.5 858 c 128,-1,16
 485 895 485 895 446 911.5 c 128,-1,17
 407 928 407 928 354 928 c 0,0,1
211 301 m 1,18,-1
 472 301 l 1,19,-1
 491 226 l 1,20,-1
 192 226 l 1,21,-1
 211 301 l 1,18,-1
328 683 m 1,22,-1
 357 675 l 1,23,-1
 172 99 l 2,24,25
 172 93 172 93 182 87.5 c 128,-1,26
 192 82 192 82 210 79 c 128,-1,27
 228 76 228 76 251 76 c 2,28,-1
 260 76 l 1,29,-1
 260 0 l 1,30,-1
 19 0 l 1,31,-1
 19 76 l 1,32,-1
 25 76 l 2,33,34
 48 76 48 76 67.5 88 c 128,-1,35
 87 100 87 100 99 140 c 2,36,-1
 289 722 l 1,37,-1
 412 722 l 1,38,-1
 604 140 l 2,39,40
 617 100 617 100 636.5 88 c 128,-1,41
 656 76 656 76 683 76 c 2,42,-1
 688 76 l 1,43,-1
 688 0 l 1,44,-1
 428 0 l 1,45,-1
 428 76 l 1,46,-1
 438 76 l 2,47,48
 463 76 463 76 481.5 77.5 c 128,-1,49
 500 79 500 79 510 81.5 c 128,-1,50
 520 84 520 84 520 87 c 2,51,-1
 328 683 l 1,22,-1
EndSplineSet
EndChar

StartChar: B
Encoding: 66 66 32
Width: 698
GlyphClass: 2
Flags: W
AnchorPoint: "Anchor-0" 319 741 basechar 0
LayerCount: 2
Fore
SplineSet
385 710 m 2,0,1
 438 710 438 710 478.5 699 c 128,-1,2
 519 688 519 688 546.5 665.5 c 128,-1,3
 574 643 574 643 588 609.5 c 128,-1,4
 602 576 602 576 602 531 c 0,5,6
 602 487 602 487 582 451.5 c 128,-1,7
 562 416 562 416 521 395.5 c 128,-1,8
 480 375 480 375 418 375 c 1,9,-1
 427 391 l 1,10,-1
 427 352 l 1,11,-1
 418 371 l 1,12,13
 488 368 488 368 535.5 346.5 c 128,-1,14
 583 325 583 325 607.5 287.5 c 128,-1,15
 632 250 632 250 632 198 c 0,16,17
 632 148 632 148 616.5 111 c 128,-1,18
 601 74 601 74 570.5 49.5 c 128,-1,19
 540 25 540 25 496 12.5 c 128,-1,20
 452 0 452 0 395 0 c 2,21,-1
 58 0 l 1,22,-1
 58 76 l 1,23,-1
 69 76 l 2,24,25
 98 76 98 76 120 83 c 128,-1,26
 142 90 142 90 142 112 c 2,27,-1
 142 598 l 2,28,29
 142 620 142 620 120 627 c 128,-1,30
 98 634 98 634 69 634 c 2,31,-1
 58 634 l 1,32,-1
 58 710 l 1,33,-1
 385 710 l 2,0,1
201 408 m 1,34,-1
 380 408 l 2,35,36
 423 408 423 408 449 421 c 128,-1,37
 475 434 475 434 487 460.5 c 128,-1,38
 499 487 499 487 499 527 c 0,39,40
 499 561 499 561 487.5 585 c 128,-1,41
 476 609 476 609 450.5 622 c 128,-1,42
 425 635 425 635 381 635 c 2,43,-1
 242 635 l 1,44,-1
 242 75 l 1,45,-1
 391 75 l 2,46,47
 440 75 440 75 469.5 90 c 128,-1,48
 499 105 499 105 513 133.5 c 128,-1,49
 527 162 527 162 527 203 c 0,50,51
 527 245 527 245 512 274.5 c 128,-1,52
 497 304 497 304 464.5 320 c 128,-1,53
 432 336 432 336 380 336 c 2,54,-1
 201 336 l 1,55,-1
 201 408 l 1,34,-1
EndSplineSet
EndChar

StartChar: C
Encoding: 67 67 33
Width: 762
GlyphClass: 2
Flags: W
AnchorPoint: "Anchor-1" 403 0 basechar 0
AnchorPoint: "Anchor-0" 403 741 basechar 0
LayerCount: 2
Fore
SplineSet
387 658 m 0,0,1
 331 658 331 658 289.5 640 c 128,-1,2
 248 622 248 622 221 585.5 c 128,-1,3
 194 549 194 549 180 492 c 128,-1,4
 166 435 166 435 166 355 c 0,5,6
 166 277 166 277 180 219.5 c 128,-1,7
 194 162 194 162 222.5 124.5 c 128,-1,8
 251 87 251 87 294.5 69 c 128,-1,9
 338 51 338 51 398 51 c 0,10,11
 468 51 468 51 514 78 c 128,-1,12
 560 105 560 105 588 148.5 c 128,-1,13
 616 192 616 192 633 241 c 1,14,-1
 705 213 l 1,15,16
 682 139 682 139 640 86 c 128,-1,17
 598 33 598 33 536.5 4 c 128,-1,18
 475 -25 475 -25 393 -25 c 0,19,20
 318 -25 318 -25 256.5 -1 c 128,-1,21
 195 23 195 23 151 71 c 128,-1,22
 107 119 107 119 83.5 190 c 128,-1,23
 60 261 60 261 60 355 c 0,24,25
 60 450 60 450 83.5 521 c 128,-1,26
 107 592 107 592 150.5 639.5 c 128,-1,27
 194 687 194 687 254 711 c 128,-1,28
 314 735 314 735 386 735 c 0,29,30
 452 735 452 735 502 708.5 c 128,-1,31
 552 682 552 682 582.5 630 c 128,-1,32
 613 578 613 578 621 499 c 1,33,-1
 601 545 l 1,34,-1
 615 720 l 1,35,-1
 691 720 l 1,36,-1
 691 461 l 1,37,-1
 608 461 l 1,38,39
 591 520 591 520 562 564 c 128,-1,40
 533 608 533 608 489.5 633 c 128,-1,41
 446 658 446 658 387 658 c 0,0,1
EndSplineSet
EndChar

StartChar: Ccaron
Encoding: 268 268 38
Width: 762
GlyphClass: 1
Flags: W
LayerCount: 2
Fore
SplineSet
347 805 m 1,0,-1
 420 805 l 1,1,-1
 550 961 l 1,2,-1
 550 981 l 1,3,-1
 500 981 l 1,4,-1
 319 838 l 1,5,-1
 453 843 l 1,6,-1
 276 981 l 1,7,-1
 216 981 l 1,8,-1
 216 961 l 1,9,-1
 347 805 l 1,0,-1
387 658 m 0,10,11
 331 658 331 658 289.5 640 c 128,-1,12
 248 622 248 622 221 585.5 c 128,-1,13
 194 549 194 549 180 492 c 128,-1,14
 166 435 166 435 166 355 c 0,15,16
 166 277 166 277 180 219.5 c 128,-1,17
 194 162 194 162 222.5 124.5 c 128,-1,18
 251 87 251 87 294.5 69 c 128,-1,19
 338 51 338 51 398 51 c 0,20,21
 468 51 468 51 514 78 c 128,-1,22
 560 105 560 105 588 148.5 c 128,-1,23
 616 192 616 192 633 241 c 1,24,-1
 705 213 l 1,25,26
 682 139 682 139 640 86 c 128,-1,27
 598 33 598 33 536.5 4 c 128,-1,28
 475 -25 475 -25 393 -25 c 0,29,30
 318 -25 318 -25 256.5 -1 c 128,-1,31
 195 23 195 23 151 71 c 128,-1,32
 107 119 107 119 83.5 190 c 128,-1,33
 60 261 60 261 60 355 c 0,34,35
 60 450 60 450 83.5 521 c 128,-1,36
 107 592 107 592 150.5 639.5 c 128,-1,37
 194 687 194 687 254 711 c 128,-1,38
 314 735 314 735 386 735 c 0,39,40
 452 735 452 735 502 708.5 c 128,-1,41
 552 682 552 682 582.5 630 c 128,-1,42
 613 578 613 578 621 499 c 1,43,-1
 601 545 l 1,44,-1
 615 720 l 1,45,-1
 691 720 l 1,46,-1
 691 461 l 1,47,-1
 608 461 l 1,48,49
 591 520 591 520 562 564 c 128,-1,50
 533 608 533 608 489.5 633 c 128,-1,51
 446 658 446 658 387 658 c 0,10,11
EndSplineSet
EndChar

StartChar: D
Encoding: 68 68 40
Width: 784
GlyphClass: 2
Flags: W
AnchorPoint: "Anchor-1" 394 0 basechar 0
AnchorPoint: "Anchor-0" 394 741 basechar 0
LayerCount: 2
Fore
SplineSet
58 634 m 1,0,-1
 58 710 l 1,1,-1
 355 710 l 2,2,3
 442 710 442 710 511 688.5 c 128,-1,4
 580 667 580 667 627.5 623.5 c 128,-1,5
 675 580 675 580 699.5 514 c 128,-1,6
 724 448 724 448 724 359 c 0,7,8
 724 271 724 271 699.5 203.5 c 128,-1,9
 675 136 675 136 627.5 91 c 128,-1,10
 580 46 580 46 511 23 c 128,-1,11
 442 0 442 0 355 0 c 2,12,-1
 58 0 l 1,13,-1
 58 76 l 1,14,-1
 69 76 l 2,15,16
 98 76 98 76 120 83 c 128,-1,17
 142 90 142 90 142 112 c 2,18,-1
 142 598 l 2,19,20
 142 620 142 620 120 627 c 128,-1,21
 98 634 98 634 69 634 c 2,22,-1
 58 634 l 1,0,-1
354 635 m 2,23,-1
 242 635 l 1,24,-1
 242 75 l 1,25,-1
 354 75 l 2,26,27
 421 75 421 75 470.5 92.5 c 128,-1,28
 520 110 520 110 553 145 c 128,-1,29
 586 180 586 180 601.5 233.5 c 128,-1,30
 617 287 617 287 617 359 c 256,31,32
 617 431 617 431 601.5 483 c 128,-1,33
 586 535 586 535 553 568.5 c 128,-1,34
 520 602 520 602 470.5 618.5 c 128,-1,35
 421 635 421 635 354 635 c 2,23,-1
EndSplineSet
EndChar

StartChar: Dcaron
Encoding: 270 270 41
Width: 784
GlyphClass: 1
Flags: W
LayerCount: 2
Fore
SplineSet
350 805 m 1,0,-1
 422 805 l 1,1,-1
 553 961 l 1,2,-1
 553 981 l 1,3,-1
 502 981 l 1,4,-1
 322 838 l 1,5,-1
 456 843 l 1,6,-1
 279 981 l 1,7,-1
 218 981 l 1,8,-1
 218 961 l 1,9,-1
 350 805 l 1,0,-1
58 634 m 1,10,-1
 58 710 l 1,11,-1
 355 710 l 2,12,13
 442 710 442 710 511 688.5 c 128,-1,14
 580 667 580 667 627.5 623.5 c 128,-1,15
 675 580 675 580 699.5 514 c 128,-1,16
 724 448 724 448 724 359 c 0,17,18
 724 271 724 271 699.5 203.5 c 128,-1,19
 675 136 675 136 627.5 91 c 128,-1,20
 580 46 580 46 511 23 c 128,-1,21
 442 0 442 0 355 0 c 2,22,-1
 58 0 l 1,23,-1
 58 76 l 1,24,-1
 69 76 l 2,25,26
 98 76 98 76 120 83 c 128,-1,27
 142 90 142 90 142 112 c 2,28,-1
 142 598 l 2,29,30
 142 620 142 620 120 627 c 128,-1,31
 98 634 98 634 69 634 c 2,32,-1
 58 634 l 1,10,-1
354 635 m 2,33,-1
 242 635 l 1,34,-1
 242 75 l 1,35,-1
 354 75 l 2,36,37
 421 75 421 75 470.5 92.5 c 128,-1,38
 520 110 520 110 553 145 c 128,-1,39
 586 180 586 180 601.5 233.5 c 128,-1,40
 617 287 617 287 617 359 c 256,41,42
 617 431 617 431 601.5 483 c 128,-1,43
 586 535 586 535 553 568.5 c 128,-1,44
 520 602 520 602 470.5 618.5 c 128,-1,45
 421 635 421 635 354 635 c 2,33,-1
EndSplineSet
EndChar

StartChar: E
Encoding: 69 69 44
Width: 694
GlyphClass: 2
Flags: W
AnchorPoint: "Anchor-2" 480 0 basechar 0
AnchorPoint: "Anchor-1" 410 0 basechar 0
AnchorPoint: "Anchor-0" 410 741 basechar 0
LayerCount: 2
Fore
SplineSet
622 226 m 1,0,-1
 622 0 l 1,1,-1
 58 0 l 1,2,-1
 58 76 l 1,3,-1
 69 76 l 2,4,5
 98 76 98 76 120 83 c 128,-1,6
 142 90 142 90 142 112 c 2,7,-1
 142 598 l 2,8,9
 142 620 142 620 120 627 c 128,-1,10
 98 634 98 634 69 634 c 2,11,-1
 58 634 l 1,12,-1
 58 710 l 1,13,-1
 603 710 l 1,14,-1
 603 509 l 1,15,-1
 529 509 l 1,16,-1
 517 590 l 2,17,18
 514 608 514 608 501.5 617.5 c 128,-1,19
 489 627 489 627 463 631 c 128,-1,20
 437 635 437 635 397 635 c 2,21,-1
 242 635 l 1,22,-1
 242 75 l 1,23,-1
 412 75 l 2,24,25
 442 75 442 75 464.5 77 c 128,-1,26
 487 79 487 79 501 84.5 c 128,-1,27
 515 90 515 90 522.5 98.5 c 128,-1,28
 530 107 530 107 532 120 c 2,29,-1
 546 226 l 1,30,-1
 622 226 l 1,0,-1
226 400 m 1,31,32
 273 403 273 403 319.5 405.5 c 128,-1,33
 366 408 366 408 413 411 c 128,-1,34
 460 414 460 414 507 415 c 1,35,-1
 507 315 l 1,36,37
 460 318 460 318 413.5 320.5 c 128,-1,38
 367 323 367 323 320 325 c 128,-1,39
 273 327 273 327 226 329 c 1,40,-1
 226 400 l 1,31,32
EndSplineSet
Substitution2: "'ss01' Style Set 1 lookup 61 subtable" E.alt
EndChar

StartChar: Ecaron
Encoding: 282 282 53
Width: 694
GlyphClass: 1
Flags: W
LayerCount: 2
Fore
SplineSet
321 805 m 1,0,-1
 394 805 l 1,1,-1
 524 961 l 1,2,-1
 524 981 l 1,3,-1
 474 981 l 1,4,-1
 293 838 l 1,5,-1
 427 843 l 1,6,-1
 251 981 l 1,7,-1
 190 981 l 1,8,-1
 190 961 l 1,9,-1
 321 805 l 1,0,-1
622 226 m 1,10,-1
 622 0 l 1,11,-1
 58 0 l 1,12,-1
 58 76 l 1,13,-1
 69 76 l 2,14,15
 98 76 98 76 120 83 c 128,-1,16
 142 90 142 90 142 112 c 2,17,-1
 142 598 l 2,18,19
 142 620 142 620 120 627 c 128,-1,20
 98 634 98 634 69 634 c 2,21,-1
 58 634 l 1,22,-1
 58 710 l 1,23,-1
 603 710 l 1,24,-1
 603 509 l 1,25,-1
 529 509 l 1,26,-1
 517 590 l 2,27,28
 514 608 514 608 501.5 617.5 c 128,-1,29
 489 627 489 627 463 631 c 128,-1,30
 437 635 437 635 397 635 c 2,31,-1
 242 635 l 1,32,-1
 242 75 l 1,33,-1
 412 75 l 2,34,35
 442 75 442 75 464.5 77 c 128,-1,36
 487 79 487 79 501 84.5 c 128,-1,37
 515 90 515 90 522.5 98.5 c 128,-1,38
 530 107 530 107 532 120 c 2,39,-1
 546 226 l 1,40,-1
 622 226 l 1,10,-1
226 400 m 1,41,42
 273 403 273 403 319.5 405.5 c 128,-1,43
 366 408 366 408 413 411 c 128,-1,44
 460 414 460 414 507 415 c 1,45,-1
 507 315 l 1,46,47
 460 318 460 318 413.5 320.5 c 128,-1,48
 367 323 367 323 320 325 c 128,-1,49
 273 327 273 327 226 329 c 1,50,-1
 226 400 l 1,41,42
EndSplineSet
Substitution2: "'ss01' Style Set 1 lookup 61 subtable" Ecaron.alt
EndChar

StartChar: Edblgrave
Encoding: 516 516 54
Width: 694
GlyphClass: 1
Flags: W
LayerCount: 2
Fore
SplineSet
430 928 m 2,0,-1
 475 826 l 1,1,-1
 475 793 l 1,2,-1
 433 793 l 1,3,-1
 362 855 l 2,4,5
 341 873 341 873 329.5 890 c 128,-1,6
 318 907 318 907 318 928 c 0,7,8
 318 946 318 946 332 959 c 128,-1,9
 346 972 346 972 368 972 c 0,10,11
 385 972 385 972 397 966 c 128,-1,12
 409 960 409 960 417 950 c 128,-1,13
 425 940 425 940 430 928 c 2,0,-1
238 928 m 2,14,-1
 279 826 l 1,15,-1
 279 793 l 1,16,-1
 237 793 l 1,17,-1
 167 855 l 2,18,19
 145 873 145 873 134 890 c 128,-1,20
 123 907 123 907 123 928 c 0,21,22
 123 946 123 946 136.5 959 c 128,-1,23
 150 972 150 972 173 972 c 0,24,25
 189 972 189 972 202 966 c 128,-1,26
 215 960 215 960 224 950 c 128,-1,27
 233 940 233 940 238 928 c 2,14,-1
622 226 m 1,28,-1
 622 0 l 1,29,-1
 58 0 l 1,30,-1
 58 76 l 1,31,-1
 69 76 l 2,32,33
 98 76 98 76 120 83 c 128,-1,34
 142 90 142 90 142 112 c 2,35,-1
 142 598 l 2,36,37
 142 620 142 620 120 627 c 128,-1,38
 98 634 98 634 69 634 c 2,39,-1
 58 634 l 1,40,-1
 58 710 l 1,41,-1
 603 710 l 1,42,-1
 603 509 l 1,43,-1
 529 509 l 1,44,-1
 517 590 l 2,45,46
 514 608 514 608 501.5 617.5 c 128,-1,47
 489 627 489 627 463.5 631 c 128,-1,48
 438 635 438 635 397 635 c 2,49,-1
 242 635 l 1,50,-1
 242 75 l 1,51,-1
 412 75 l 2,52,53
 442 75 442 75 464.5 77 c 128,-1,54
 487 79 487 79 501 84 c 128,-1,55
 515 89 515 89 522.5 98 c 128,-1,56
 530 107 530 107 532 120 c 2,57,-1
 546 226 l 1,58,-1
 622 226 l 1,28,-1
226 400 m 1,59,60
 273 403 273 403 319.5 405.5 c 128,-1,61
 366 408 366 408 413.5 410.5 c 128,-1,62
 461 413 461 413 507 415 c 1,63,-1
 507 315 l 1,64,65
 461 318 461 318 413.5 320.5 c 128,-1,66
 366 323 366 323 319.5 325 c 128,-1,67
 273 327 273 327 226 329 c 1,68,-1
 226 400 l 1,59,60
EndSplineSet
Substitution2: "'ss01' Style Set 1 lookup 61 subtable" Edblgrave.alt
EndChar

StartChar: Einvertedbreve
Encoding: 518 518 55
Width: 694
GlyphClass: 1
Flags: W
LayerCount: 2
Fore
SplineSet
340 928 m 0,0,1
 284 928 284 928 246 911.5 c 128,-1,2
 208 895 208 895 187.5 858 c 128,-1,3
 167 821 167 821 165 759 c 1,4,-1
 239 759 l 1,5,6
 241 796 241 796 250.5 815 c 128,-1,7
 260 834 260 834 281.5 841 c 128,-1,8
 303 848 303 848 340 848 c 0,9,10
 375 848 375 848 395.5 841 c 128,-1,11
 416 834 416 834 425.5 815 c 128,-1,12
 435 796 435 796 437 759 c 1,13,-1
 516 759 l 1,14,15
 515 821 515 821 493 858 c 128,-1,16
 471 895 471 895 432.5 911.5 c 128,-1,17
 394 928 394 928 340 928 c 0,0,1
622 226 m 1,18,-1
 622 0 l 1,19,-1
 58 0 l 1,20,-1
 58 76 l 1,21,-1
 69 76 l 2,22,23
 98 76 98 76 120 83 c 128,-1,24
 142 90 142 90 142 112 c 2,25,-1
 142 598 l 2,26,27
 142 620 142 620 120 627 c 128,-1,28
 98 634 98 634 69 634 c 2,29,-1
 58 634 l 1,30,-1
 58 710 l 1,31,-1
 603 710 l 1,32,-1
 603 509 l 1,33,-1
 529 509 l 1,34,-1
 517 590 l 2,35,36
 514 608 514 608 501.5 617.5 c 128,-1,37
 489 627 489 627 463.5 631 c 128,-1,38
 438 635 438 635 397 635 c 2,39,-1
 242 635 l 1,40,-1
 242 75 l 1,41,-1
 412 75 l 2,42,43
 442 75 442 75 464.5 77 c 128,-1,44
 487 79 487 79 501 84 c 128,-1,45
 515 89 515 89 522.5 98 c 128,-1,46
 530 107 530 107 532 120 c 2,47,-1
 546 226 l 1,48,-1
 622 226 l 1,18,-1
226 400 m 1,49,50
 273 403 273 403 319.5 405.5 c 128,-1,51
 366 408 366 408 413.5 410.5 c 128,-1,52
 461 413 461 413 507 415 c 1,53,-1
 507 315 l 1,54,55
 461 318 461 318 413.5 320.5 c 128,-1,56
 366 323 366 323 319.5 325 c 128,-1,57
 273 327 273 327 226 329 c 1,58,-1
 226 400 l 1,49,50
EndSplineSet
Substitution2: "'ss01' Style Set 1 lookup 61 subtable" Einvertedbreve.alt
EndChar

StartChar: F
Encoding: 70 70 67
Width: 666
GlyphClass: 2
Flags: W
AnchorPoint: "Anchor-0" 312 741 basechar 0
LayerCount: 2
Fore
SplineSet
242 635 m 1,0,-1
 242 86 l 2,1,2
 242 83 242 83 250 81.5 c 128,-1,3
 258 80 258 80 270.5 78.5 c 128,-1,4
 283 77 283 77 299.5 76.5 c 128,-1,5
 316 76 316 76 334 76 c 2,6,-1
 352 76 l 1,7,-1
 352 0 l 1,8,-1
 58 0 l 1,9,-1
 58 76 l 1,10,-1
 69 76 l 2,11,12
 98 76 98 76 120 83 c 128,-1,13
 142 90 142 90 142 112 c 2,14,-1
 142 598 l 2,15,16
 142 620 142 620 120 627 c 128,-1,17
 98 634 98 634 69 634 c 2,18,-1
 58 634 l 1,19,-1
 58 710 l 1,20,-1
 603 710 l 1,21,-1
 603 505 l 1,22,-1
 529 505 l 1,23,-1
 517 590 l 2,24,25
 514 608 514 608 501.5 617.5 c 128,-1,26
 489 627 489 627 463 631 c 128,-1,27
 437 635 437 635 397 635 c 2,28,-1
 242 635 l 1,0,-1
226 391 m 1,29,30
 273 394 273 394 319.5 396.5 c 128,-1,31
 366 399 366 399 413 401.5 c 128,-1,32
 460 404 460 404 507 406 c 1,33,-1
 507 306 l 1,34,35
 460 309 460 309 413.5 311 c 128,-1,36
 367 313 367 313 320 315.5 c 128,-1,37
 273 318 273 318 226 320 c 1,38,-1
 226 391 l 1,29,30
EndSplineSet
Substitution2: "'ss01' Style Set 1 lookup 61 subtable" F.alt
EndChar

StartChar: G
Encoding: 71 71 68
Width: 810
GlyphClass: 2
Flags: W
AnchorPoint: "Anchor-1" 413 0 basechar 0
AnchorPoint: "Anchor-0" 413 741 basechar 0
LayerCount: 2
Fore
SplineSet
684 231 m 2,0,-1
 684 99 l 1,1,2
 668 80 668 80 642 58 c 128,-1,3
 616 36 616 36 580 17.5 c 128,-1,4
 544 -1 544 -1 498.5 -13 c 128,-1,5
 453 -25 453 -25 401 -25 c 0,6,7
 323 -25 323 -25 259.5 -1 c 128,-1,8
 196 23 196 23 152 71 c 128,-1,9
 108 119 108 119 84 190 c 128,-1,10
 60 261 60 261 60 355 c 0,11,12
 60 450 60 450 85 521 c 128,-1,13
 110 592 110 592 155.5 639.5 c 128,-1,14
 201 687 201 687 261.5 711 c 128,-1,15
 322 735 322 735 393 735 c 0,16,17
 457 735 457 735 504.5 711 c 128,-1,18
 552 687 552 687 581 641 c 128,-1,19
 610 595 610 595 620 527 c 1,20,-1
 600 573 l 1,21,-1
 613 720 l 1,22,-1
 689 720 l 1,23,-1
 689 489 l 1,24,-1
 611 489 l 1,25,26
 595 537 595 537 565 575.5 c 128,-1,27
 535 614 535 614 492.5 636.5 c 128,-1,28
 450 659 450 659 394 659 c 0,29,30
 340 659 340 659 297.5 641 c 128,-1,31
 255 623 255 623 226 586 c 128,-1,32
 197 549 197 549 181.5 491.5 c 128,-1,33
 166 434 166 434 166 355 c 0,34,35
 166 277 166 277 181.5 219 c 128,-1,36
 197 161 197 161 226.5 124 c 128,-1,37
 256 87 256 87 300 69 c 128,-1,38
 344 51 344 51 401 51 c 0,39,40
 456 51 456 51 492.5 63.5 c 128,-1,41
 529 76 529 76 552 93 c 128,-1,42
 575 110 575 110 587 122 c 1,43,-1
 587 231 l 2,44,45
 587 256 587 256 560 263.5 c 128,-1,46
 533 271 533 271 495 271 c 2,47,-1
 465 271 l 1,48,-1
 465 347 l 1,49,-1
 779 347 l 1,50,-1
 779 271 l 1,51,-1
 755 271 l 2,52,53
 720 271 720 271 702 263.5 c 128,-1,54
 684 256 684 256 684 231 c 2,0,-1
EndSplineSet
EndChar

StartChar: Gcaron
Encoding: 486 486 73
Width: 810
GlyphClass: 1
Flags: W
LayerCount: 2
Fore
SplineSet
368 805 m 1,0,-1
 440 805 l 1,1,-1
 571 961 l 1,2,-1
 571 981 l 1,3,-1
 520 981 l 1,4,-1
 340 838 l 1,5,-1
 474 843 l 1,6,-1
 297 981 l 1,7,-1
 236 981 l 1,8,-1
 236 961 l 1,9,-1
 368 805 l 1,0,-1
684 231 m 2,10,-1
 684 99 l 1,11,12
 668 80 668 80 642 58 c 128,-1,13
 616 36 616 36 580 17.5 c 128,-1,14
 544 -1 544 -1 498.5 -13 c 128,-1,15
 453 -25 453 -25 401 -25 c 0,16,17
 323 -25 323 -25 259.5 -1 c 128,-1,18
 196 23 196 23 152 71 c 128,-1,19
 108 119 108 119 84 190 c 128,-1,20
 60 261 60 261 60 355 c 0,21,22
 60 450 60 450 85 521 c 128,-1,23
 110 592 110 592 155.5 639.5 c 128,-1,24
 201 687 201 687 261.5 711 c 128,-1,25
 322 735 322 735 393 735 c 0,26,27
 457 735 457 735 504.5 711 c 128,-1,28
 552 687 552 687 581 641 c 128,-1,29
 610 595 610 595 620 527 c 1,30,-1
 600 573 l 1,31,-1
 613 720 l 1,32,-1
 689 720 l 1,33,-1
 689 489 l 1,34,-1
 611 489 l 1,35,36
 595 537 595 537 565 575.5 c 128,-1,37
 535 614 535 614 492.5 636.5 c 128,-1,38
 450 659 450 659 394 659 c 0,39,40
 340 659 340 659 297.5 641 c 128,-1,41
 255 623 255 623 226 586 c 128,-1,42
 197 549 197 549 181.5 491.5 c 128,-1,43
 166 434 166 434 166 355 c 0,44,45
 166 277 166 277 181.5 219 c 128,-1,46
 197 161 197 161 226.5 124 c 128,-1,47
 256 87 256 87 300 69 c 128,-1,48
 344 51 344 51 401 51 c 0,49,50
 456 51 456 51 492.5 63.5 c 128,-1,51
 529 76 529 76 552 93 c 128,-1,52
 575 110 575 110 587 122 c 1,53,-1
 587 231 l 2,54,55
 587 256 587 256 560 263.5 c 128,-1,56
 533 271 533 271 495 271 c 2,57,-1
 465 271 l 1,58,-1
 465 347 l 1,59,-1
 779 347 l 1,60,-1
 779 271 l 1,61,-1
 755 271 l 2,62,63
 720 271 720 271 702 263.5 c 128,-1,64
 684 256 684 256 684 231 c 2,10,-1
EndSplineSet
EndChar

StartChar: H
Encoding: 72 72 75
Width: 842
GlyphClass: 2
Flags: W
AnchorPoint: "Anchor-1" 422 0 basechar 0
AnchorPoint: "Anchor-0" 422 741 basechar 0
LayerCount: 2
Fore
SplineSet
221 404 m 1,0,-1
 621 404 l 1,1,-1
 621 328 l 1,2,-1
 221 328 l 1,3,-1
 221 404 l 1,0,-1
58 0 m 1,4,-1
 58 76 l 1,5,-1
 69 76 l 2,6,7
 98 76 98 76 120 83 c 128,-1,8
 142 90 142 90 142 112 c 2,9,-1
 142 598 l 2,10,11
 142 620 142 620 120 627 c 128,-1,12
 98 634 98 634 69 634 c 2,13,-1
 58 634 l 1,14,-1
 58 710 l 1,15,-1
 334 710 l 1,16,-1
 334 635 l 1,17,-1
 325 635 l 2,18,19
 312 635 312 635 297 634 c 128,-1,20
 282 633 282 633 270 631.5 c 128,-1,21
 258 630 258 630 250 628.5 c 128,-1,22
 242 627 242 627 242 625 c 2,23,-1
 242 85 l 2,24,25
 242 82 242 82 250 81 c 128,-1,26
 258 80 258 80 270 78.5 c 128,-1,27
 282 77 282 77 297 76.5 c 128,-1,28
 312 76 312 76 325 76 c 2,29,-1
 334 76 l 1,30,-1
 334 0 l 1,31,-1
 58 0 l 1,4,-1
509 0 m 1,32,-1
 509 75 l 1,33,-1
 517 75 l 2,34,35
 530 75 530 75 545 76 c 128,-1,36
 560 77 560 77 572.5 78.5 c 128,-1,37
 585 80 585 80 592.5 81.5 c 128,-1,38
 600 83 600 83 600 85 c 2,39,-1
 600 625 l 2,40,41
 600 628 600 628 592.5 629 c 128,-1,42
 585 630 585 630 572.5 631.5 c 128,-1,43
 560 633 560 633 545.5 633.5 c 128,-1,44
 531 634 531 634 517 634 c 2,45,-1
 509 634 l 1,46,-1
 509 710 l 1,47,-1
 784 710 l 1,48,-1
 784 634 l 1,49,-1
 774 634 l 2,50,51
 745 634 745 634 722.5 627 c 128,-1,52
 700 620 700 620 700 598 c 2,53,-1
 700 112 l 2,54,55
 700 90 700 90 722.5 83 c 128,-1,56
 745 76 745 76 774 76 c 2,57,-1
 784 76 l 1,58,-1
 784 0 l 1,59,-1
 509 0 l 1,32,-1
EndSplineSet
EndChar

StartChar: I
Encoding: 73 73 79
Width: 408
GlyphClass: 2
Flags: W
AnchorPoint: "Anchor-2" 269 0 basechar 0
AnchorPoint: "Anchor-1" 205 0 basechar 0
AnchorPoint: "Anchor-0" 205 741 basechar 0
LayerCount: 2
Fore
SplineSet
154 112 m 2,0,-1
 154 598 l 2,1,2
 154 620 154 620 131.5 627 c 128,-1,3
 109 634 109 634 77 634 c 2,4,-1
 57 634 l 1,5,-1
 57 710 l 1,6,-1
 351 710 l 1,7,-1
 351 634 l 1,8,-1
 332 634 l 2,9,10
 299 634 299 634 276.5 627 c 128,-1,11
 254 620 254 620 254 598 c 2,12,-1
 254 112 l 2,13,14
 254 90 254 90 276.5 83 c 128,-1,15
 299 76 299 76 332 76 c 2,16,-1
 351 76 l 1,17,-1
 351 0 l 1,18,-1
 57 0 l 1,19,-1
 57 76 l 1,20,-1
 77 76 l 2,21,22
 109 76 109 76 131.5 83 c 128,-1,23
 154 90 154 90 154 112 c 2,0,-1
EndSplineSet
EndChar

StartChar: Icaron
Encoding: 463 463 89
Width: 408
GlyphClass: 1
Flags: W
LayerCount: 2
Fore
SplineSet
168 805 m 1,0,-1
 241 805 l 1,1,-1
 371 961 l 1,2,-1
 371 981 l 1,3,-1
 321 981 l 1,4,-1
 140 838 l 1,5,-1
 274 843 l 1,6,-1
 98 981 l 1,7,-1
 37 981 l 1,8,-1
 37 961 l 1,9,-1
 168 805 l 1,0,-1
154 112 m 2,10,-1
 154 598 l 2,11,12
 154 620 154 620 131.5 627 c 128,-1,13
 109 634 109 634 77 634 c 2,14,-1
 57 634 l 1,15,-1
 57 710 l 1,16,-1
 351 710 l 1,17,-1
 351 634 l 1,18,-1
 332 634 l 2,19,20
 299 634 299 634 276.5 627 c 128,-1,21
 254 620 254 620 254 598 c 2,22,-1
 254 112 l 2,23,24
 254 90 254 90 276.5 83 c 128,-1,25
 299 76 299 76 332 76 c 2,26,-1
 351 76 l 1,27,-1
 351 0 l 1,28,-1
 57 0 l 1,29,-1
 57 76 l 1,30,-1
 77 76 l 2,31,32
 109 76 109 76 131.5 83 c 128,-1,33
 154 90 154 90 154 112 c 2,10,-1
EndSplineSet
EndChar

StartChar: Idblgrave
Encoding: 520 520 90
Width: 408
GlyphClass: 1
Flags: W
LayerCount: 2
Fore
SplineSet
294 928 m 2,0,-1
 339 826 l 1,1,-1
 339 793 l 1,2,-1
 297 793 l 1,3,-1
 226 855 l 2,4,5
 205 873 205 873 193.5 890 c 128,-1,6
 182 907 182 907 182 928 c 0,7,8
 182 946 182 946 195.5 959 c 128,-1,9
 209 972 209 972 232 972 c 0,10,11
 248 972 248 972 260 966 c 128,-1,12
 272 960 272 960 280.5 950 c 128,-1,13
 289 940 289 940 294 928 c 2,0,-1
102 928 m 2,14,-1
 143 826 l 1,15,-1
 143 793 l 1,16,-1
 101 793 l 1,17,-1
 31 855 l 2,18,19
 9 873 9 873 -2 890 c 128,-1,20
 -13 907 -13 907 -13 928 c 0,21,22
 -13 946 -13 946 0.5 959 c 128,-1,23
 14 972 14 972 37 972 c 0,24,25
 53 972 53 972 66 966 c 128,-1,26
 79 960 79 960 87.5 950 c 128,-1,27
 96 940 96 940 102 928 c 2,14,-1
154 112 m 2,28,-1
 154 598 l 2,29,30
 154 620 154 620 131.5 627 c 128,-1,31
 109 634 109 634 77 634 c 2,32,-1
 57 634 l 1,33,-1
 57 710 l 1,34,-1
 351 710 l 1,35,-1
 351 634 l 1,36,-1
 332 634 l 2,37,38
 299 634 299 634 276.5 627 c 128,-1,39
 254 620 254 620 254 598 c 2,40,-1
 254 112 l 2,41,42
 254 90 254 90 276.5 83 c 128,-1,43
 299 76 299 76 332 76 c 2,44,-1
 351 76 l 1,45,-1
 351 0 l 1,46,-1
 57 0 l 1,47,-1
 57 76 l 1,48,-1
 77 76 l 2,49,50
 109 76 109 76 131.5 83 c 128,-1,51
 154 90 154 90 154 112 c 2,28,-1
EndSplineSet
EndChar

StartChar: Iinvertedbreve
Encoding: 522 522 91
Width: 408
GlyphClass: 1
Flags: W
LayerCount: 2
Fore
SplineSet
205 928 m 0,0,1
 149 928 149 928 110.5 911.5 c 128,-1,2
 72 895 72 895 51.5 858 c 128,-1,3
 31 821 31 821 30 759 c 1,4,-1
 104 759 l 1,5,6
 106 796 106 796 115 815 c 128,-1,7
 124 834 124 834 145.5 841 c 128,-1,8
 167 848 167 848 205 848 c 0,9,10
 239 848 239 848 259.5 841 c 128,-1,11
 280 834 280 834 290 815 c 128,-1,12
 300 796 300 796 302 759 c 1,13,-1
 380 759 l 1,14,15
 379 821 379 821 357.5 858 c 128,-1,16
 336 895 336 895 297 911.5 c 128,-1,17
 258 928 258 928 205 928 c 0,0,1
154 112 m 2,18,-1
 154 598 l 2,19,20
 154 620 154 620 131.5 627 c 128,-1,21
 109 634 109 634 77 634 c 2,22,-1
 57 634 l 1,23,-1
 57 710 l 1,24,-1
 351 710 l 1,25,-1
 351 634 l 1,26,-1
 332 634 l 2,27,28
 299 634 299 634 276.5 627 c 128,-1,29
 254 620 254 620 254 598 c 2,30,-1
 254 112 l 2,31,32
 254 90 254 90 276.5 83 c 128,-1,33
 299 76 299 76 332 76 c 2,34,-1
 351 76 l 1,35,-1
 351 0 l 1,36,-1
 57 0 l 1,37,-1
 57 76 l 1,38,-1
 77 76 l 2,39,40
 109 76 109 76 131.5 83 c 128,-1,41
 154 90 154 90 154 112 c 2,18,-1
EndSplineSet
EndChar

StartChar: J
Encoding: 74 74 94
Width: 649
GlyphClass: 2
Flags: W
AnchorPoint: "Anchor-0" 436 741 basechar 0
LayerCount: 2
Fore
SplineSet
305 710 m 1,0,-1
 603 710 l 1,1,-1
 603 634 l 1,2,-1
 583 634 l 2,3,4
 553 634 553 634 531.5 627 c 128,-1,5
 510 620 510 620 510 598 c 2,6,-1
 510 207 l 2,7,8
 510 145 510 145 491.5 100.5 c 128,-1,9
 473 56 473 56 440 28.5 c 128,-1,10
 407 1 407 1 362.5 -12 c 128,-1,11
 318 -25 318 -25 266 -25 c 0,12,13
 209 -25 209 -25 167.5 -11.5 c 128,-1,14
 126 2 126 2 98 20 c 128,-1,15
 70 38 70 38 53 52 c 1,16,-1
 53 223 l 1,17,-1
 166 223 l 1,18,-1
 166 45 l 1,19,20
 149 50 149 50 136 60.5 c 128,-1,21
 123 71 123 71 117 81.5 c 128,-1,22
 111 92 111 92 112 99 c 128,-1,23
 113 106 113 106 124 105 c 1,24,25
 138 93 138 93 157.5 80.5 c 128,-1,26
 177 68 177 68 204 59.5 c 128,-1,27
 231 51 231 51 265 51 c 0,28,29
 312 51 312 51 344 64 c 128,-1,30
 376 77 376 77 393 111 c 128,-1,31
 410 145 410 145 410 207 c 2,32,-1
 410 598 l 2,33,34
 410 613 410 613 399.5 620.5 c 128,-1,35
 389 628 389 628 370 631 c 128,-1,36
 351 634 351 634 328 634 c 2,37,-1
 305 634 l 1,38,-1
 305 710 l 1,0,-1
EndSplineSet
EndChar

StartChar: K
Encoding: 75 75 96
Width: 766
GlyphClass: 2
Flags: W
AnchorPoint: "Anchor-1" 394 0 basechar 0
AnchorPoint: "Anchor-0" 394 741 basechar 0
LayerCount: 2
Fore
SplineSet
58 0 m 1,0,-1
 58 76 l 1,1,-1
 69 76 l 2,2,3
 98 76 98 76 120 83 c 128,-1,4
 142 90 142 90 142 112 c 2,5,-1
 142 598 l 2,6,7
 142 620 142 620 120 627 c 128,-1,8
 98 634 98 634 69 634 c 2,9,-1
 58 634 l 1,10,-1
 58 710 l 1,11,-1
 329 710 l 1,12,-1
 329 634 l 1,13,-1
 321 634 l 2,14,15
 309 634 309 634 295 633.5 c 128,-1,16
 281 633 281 633 269 631.5 c 128,-1,17
 257 630 257 630 249.5 629 c 128,-1,18
 242 628 242 628 242 625 c 2,19,-1
 242 85 l 2,20,21
 242 83 242 83 249.5 81.5 c 128,-1,22
 257 80 257 80 269 78.5 c 128,-1,23
 281 77 281 77 295 76.5 c 128,-1,24
 309 76 309 76 320 76 c 2,25,-1
 329 76 l 1,26,-1
 329 0 l 1,27,-1
 58 0 l 1,0,-1
447 0 m 1,28,-1
 447 76 l 1,29,-1
 456 76 l 2,30,31
 476 76 476 76 494 77 c 128,-1,32
 512 78 512 78 523.5 80.5 c 128,-1,33
 535 83 535 83 535 86 c 2,34,-1
 290 344 l 1,35,-1
 290 372 l 1,36,-1
 545 623 l 2,37,38
 545 627 545 627 534 629 c 128,-1,39
 523 631 523 631 505.5 632.5 c 128,-1,40
 488 634 488 634 470 634 c 2,41,-1
 461 634 l 1,42,-1
 461 710 l 1,43,-1
 713 710 l 1,44,-1
 713 634 l 1,45,-1
 687 634 l 2,46,47
 676 634 676 634 665.5 631.5 c 128,-1,48
 655 629 655 629 644 623 c 128,-1,49
 633 617 633 617 623 605 c 2,50,-1
 366 355 l 1,51,-1
 367 398 l 1,52,-1
 655 97 l 2,53,54
 664 88 664 88 674 83.5 c 128,-1,55
 684 79 684 79 695.5 77.5 c 128,-1,56
 707 76 707 76 719 76 c 2,57,-1
 738 76 l 1,58,-1
 738 0 l 1,59,-1
 447 0 l 1,28,-1
EndSplineSet
EndChar

StartChar: L
Encoding: 76 76 98
Width: 642
GlyphClass: 2
Flags: W
AnchorPoint: "Anchor-2" 489 710 basechar 0
AnchorPoint: "Anchor-1" 394 0 basechar 0
AnchorPoint: "Anchor-0" 394 741 basechar 0
LayerCount: 2
Fore
SplineSet
345 710 m 1,0,-1
 58 710 l 1,1,-1
 58 634 l 1,2,-1
 69 634 l 2,3,4
 98 634 98 634 120 627 c 128,-1,5
 142 620 142 620 142 598 c 2,6,-1
 142 112 l 2,7,8
 142 90 142 90 120 83 c 128,-1,9
 98 76 98 76 69 76 c 2,10,-1
 58 76 l 1,11,-1
 58 0 l 1,12,-1
 593 0 l 1,13,-1
 593 235 l 1,14,-1
 517 235 l 1,15,-1
 503 120 l 2,16,17
 501 102 501 102 488.5 92 c 128,-1,18
 476 82 476 82 450 78.5 c 128,-1,19
 424 75 424 75 383 75 c 2,20,-1
 242 75 l 1,21,-1
 242 598 l 2,22,23
 242 620 242 620 267 627 c 128,-1,24
 292 634 292 634 329 634 c 2,25,-1
 345 634 l 1,26,-1
 345 710 l 1,0,-1
EndSplineSet
EndChar

StartChar: M
Encoding: 77 77 104
Width: 969
GlyphClass: 2
Flags: W
AnchorPoint: "Anchor-1" 473 0 basechar 0
LayerCount: 2
Fore
SplineSet
59 0 m 1,0,-1
 59 76 l 1,1,-1
 70 76 l 2,2,3
 90 76 90 76 106.5 79 c 128,-1,4
 123 82 123 82 133.5 90 c 128,-1,5
 144 98 144 98 144 112 c 2,6,-1
 144 598 l 2,7,8
 144 613 144 613 133.5 620.5 c 128,-1,9
 123 628 123 628 106.5 631 c 128,-1,10
 90 634 90 634 70 634 c 2,11,-1
 59 634 l 1,12,-1
 59 710 l 1,13,-1
 310 710 l 1,14,-1
 500 107 l 1,15,-1
 459 86 l 1,16,-1
 665 710 l 1,17,-1
 910 710 l 1,18,-1
 910 634 l 1,19,-1
 899 634 l 2,20,21
 870 634 870 634 847.5 627 c 128,-1,22
 825 620 825 620 825 598 c 2,23,-1
 825 112 l 2,24,25
 825 90 825 90 847.5 83 c 128,-1,26
 870 76 870 76 899 76 c 2,27,-1
 910 76 l 1,28,-1
 910 0 l 1,29,-1
 645 0 l 1,30,-1
 645 76 l 1,31,-1
 654 76 l 2,32,33
 668 76 668 76 685 77 c 128,-1,34
 702 78 702 78 714.5 80.5 c 128,-1,35
 727 83 727 83 727 86 c 2,36,-1
 727 692 l 1,37,-1
 745 702 l 1,38,-1
 505 -2 l 1,39,-1
 441 -2 l 1,40,-1
 210 702 l 1,41,-1
 227 692 l 1,42,-1
 227 86 l 2,43,44
 227 83 227 83 239 80.5 c 128,-1,45
 251 78 251 78 266 77 c 128,-1,46
 281 76 281 76 289 76 c 2,47,-1
 292 76 l 1,48,-1
 292 0 l 1,49,-1
 59 0 l 1,0,-1
EndSplineSet
EndChar

StartChar: N
Encoding: 78 78 106
Width: 817
GlyphClass: 2
Flags: W
AnchorPoint: "Anchor-1" 418 0 basechar 0
AnchorPoint: "Anchor-0" 418 741 basechar 0
LayerCount: 2
Fore
SplineSet
59 0 m 1,0,-1
 59 76 l 1,1,-1
 70 76 l 2,2,3
 90 76 90 76 106.5 79 c 128,-1,4
 123 82 123 82 133.5 90 c 128,-1,5
 144 98 144 98 144 112 c 2,6,-1
 144 598 l 2,7,8
 144 613 144 613 133.5 620.5 c 128,-1,9
 123 628 123 628 106.5 631 c 128,-1,10
 90 634 90 634 70 634 c 2,11,-1
 59 634 l 1,12,-1
 59 710 l 1,13,-1
 279 710 l 1,14,-1
 632 89 l 1,15,-1
 600 83 l 1,16,-1
 600 624 l 2,17,18
 600 628 600 628 587.5 630 c 128,-1,19
 575 632 575 632 558.5 633 c 128,-1,20
 542 634 542 634 530 634 c 2,21,-1
 517 634 l 1,22,-1
 517 710 l 1,23,-1
 769 710 l 1,24,-1
 769 634 l 1,25,-1
 759 634 l 2,26,27
 739 634 739 634 722 631 c 128,-1,28
 705 628 705 628 695 620.5 c 128,-1,29
 685 613 685 613 685 598 c 2,30,-1
 685 0 l 1,31,-1
 577 0 l 1,32,-1
 195 668 l 1,33,-1
 228 670 l 1,34,-1
 228 86 l 2,35,36
 228 83 228 83 240.5 80.5 c 128,-1,37
 253 78 253 78 270 77 c 128,-1,38
 287 76 287 76 299 76 c 2,39,-1
 312 76 l 1,40,-1
 312 0 l 1,41,-1
 59 0 l 1,0,-1
EndSplineSet
EndChar

StartChar: Ncaron
Encoding: 327 327 110
Width: 817
GlyphClass: 1
Flags: W
LayerCount: 2
Fore
SplineSet
382 805 m 1,0,-1
 455 805 l 1,1,-1
 585 961 l 1,2,-1
 585 981 l 1,3,-1
 535 981 l 1,4,-1
 354 838 l 1,5,-1
 488 843 l 1,6,-1
 311 981 l 1,7,-1
 250 981 l 1,8,-1
 250 961 l 1,9,-1
 382 805 l 1,0,-1
59 0 m 1,10,-1
 59 76 l 1,11,-1
 70 76 l 2,12,13
 90 76 90 76 106.5 79 c 128,-1,14
 123 82 123 82 133.5 90 c 128,-1,15
 144 98 144 98 144 112 c 2,16,-1
 144 598 l 2,17,18
 144 613 144 613 133.5 620.5 c 128,-1,19
 123 628 123 628 106.5 631 c 128,-1,20
 90 634 90 634 70 634 c 2,21,-1
 59 634 l 1,22,-1
 59 710 l 1,23,-1
 279 710 l 1,24,-1
 632 89 l 1,25,-1
 600 83 l 1,26,-1
 600 624 l 2,27,28
 600 628 600 628 587.5 630 c 128,-1,29
 575 632 575 632 558.5 633 c 128,-1,30
 542 634 542 634 530 634 c 2,31,-1
 517 634 l 1,32,-1
 517 710 l 1,33,-1
 769 710 l 1,34,-1
 769 634 l 1,35,-1
 759 634 l 2,36,37
 739 634 739 634 722 631 c 128,-1,38
 705 628 705 628 695 620.5 c 128,-1,39
 685 613 685 613 685 598 c 2,40,-1
 685 0 l 1,41,-1
 577 0 l 1,42,-1
 195 668 l 1,43,-1
 228 670 l 1,44,-1
 228 86 l 2,45,46
 228 83 228 83 240.5 80.5 c 128,-1,47
 253 78 253 78 270 77 c 128,-1,48
 287 76 287 76 299 76 c 2,49,-1
 312 76 l 1,50,-1
 312 0 l 1,51,-1
 59 0 l 1,10,-1
EndSplineSet
EndChar

StartChar: O
Encoding: 79 79 114
Width: 799
GlyphClass: 2
Flags: W
AnchorPoint: "Anchor-2" 440 0 basechar 0
AnchorPoint: "Anchor-1" 399 0 basechar 0
AnchorPoint: "Anchor-0" 399 741 basechar 0
LayerCount: 2
Fore
SplineSet
399 -25 m 0,0,1
 323 -25 323 -25 261 0 c 128,-1,2
 199 25 199 25 153.5 73.5 c 128,-1,3
 108 122 108 122 84 192.5 c 128,-1,4
 60 263 60 263 60 355 c 0,5,6
 60 448 60 448 84 518.5 c 128,-1,7
 108 589 108 589 153.5 637.5 c 128,-1,8
 199 686 199 686 261 710.5 c 128,-1,9
 323 735 323 735 399 735 c 0,10,11
 476 735 476 735 538.5 710.5 c 128,-1,12
 601 686 601 686 645.5 637.5 c 128,-1,13
 690 589 690 589 714.5 518.5 c 128,-1,14
 739 448 739 448 739 355 c 0,15,16
 739 263 739 263 714.5 192.5 c 128,-1,17
 690 122 690 122 645.5 73.5 c 128,-1,18
 601 25 601 25 538.5 0 c 128,-1,19
 476 -25 476 -25 399 -25 c 0,0,1
399 53 m 0,20,21
 457 53 457 53 500.5 71 c 128,-1,22
 544 89 544 89 573 126.5 c 128,-1,23
 602 164 602 164 617 220.5 c 128,-1,24
 632 277 632 277 632 355 c 256,25,26
 632 433 632 433 617 489.5 c 128,-1,27
 602 546 602 546 573 583.5 c 128,-1,28
 544 621 544 621 500.5 639 c 128,-1,29
 457 657 457 657 399 657 c 0,30,31
 342 657 342 657 298.5 639 c 128,-1,32
 255 621 255 621 225.5 583.5 c 128,-1,33
 196 546 196 546 181 489.5 c 128,-1,34
 166 433 166 433 166 355 c 256,35,36
 166 277 166 277 181 220.5 c 128,-1,37
 196 164 196 164 225.5 126.5 c 128,-1,38
 255 89 255 89 298.5 71 c 128,-1,39
 342 53 342 53 399 53 c 0,20,21
EndSplineSet
EndChar

StartChar: Ohorn
Encoding: 416 416 123
Width: 847
GlyphClass: 2
Flags: W
AnchorPoint: "Anchor-1" 420 -35 basechar 0
AnchorPoint: "Anchor-0" 420 742 basechar 0
LayerCount: 2
Fore
SplineSet
399 53 m 0,0,1
 458 53 458 53 501.5 70.5 c 128,-1,2
 545 88 545 88 574 124.5 c 128,-1,3
 603 161 603 161 617.5 218.5 c 128,-1,4
 632 276 632 276 632 355 c 256,5,6
 632 434 632 434 617.5 491.5 c 128,-1,7
 603 549 603 549 574 585.5 c 128,-1,8
 545 622 545 622 501.5 639.5 c 128,-1,9
 458 657 458 657 399 657 c 0,10,11
 342 657 342 657 298 639.5 c 128,-1,12
 254 622 254 622 225 585.5 c 128,-1,13
 196 549 196 549 181 491.5 c 128,-1,14
 166 434 166 434 166 355 c 256,15,16
 166 276 166 276 181 218.5 c 128,-1,17
 196 161 196 161 225 124.5 c 128,-1,18
 254 88 254 88 298 70.5 c 128,-1,19
 342 53 342 53 399 53 c 0,0,1
593 632 m 1,20,-1
 558 670 l 1,21,22
 597 650 597 650 630 621.5 c 128,-1,23
 663 593 663 593 687.5 554.5 c 128,-1,24
 712 516 712 516 725.5 467 c 128,-1,25
 739 418 739 418 739 355 c 0,26,27
 739 263 739 263 714.5 192 c 128,-1,28
 690 121 690 121 645.5 72.5 c 128,-1,29
 601 24 601 24 538.5 -0.5 c 128,-1,30
 476 -25 476 -25 399 -25 c 0,31,32
 324 -25 324 -25 261.5 -0.5 c 128,-1,33
 199 24 199 24 154 72.5 c 128,-1,34
 109 121 109 121 84.5 192 c 128,-1,35
 60 263 60 263 60 355 c 0,36,37
 60 448 60 448 84.5 518.5 c 128,-1,38
 109 589 109 589 154 637.5 c 128,-1,39
 199 686 199 686 261.5 710.5 c 128,-1,40
 324 735 324 735 399 735 c 0,41,42
 447 735 447 735 482.5 729 c 128,-1,43
 518 723 518 723 545.5 716 c 128,-1,44
 573 709 573 709 597 703 c 128,-1,45
 621 697 621 697 648 697 c 0,46,47
 678 697 678 697 700 710.5 c 128,-1,48
 722 724 722 724 736.5 749.5 c 128,-1,49
 751 775 751 775 759.5 812.5 c 128,-1,50
 768 850 768 850 772 899 c 1,51,-1
 865 899 l 1,52,53
 862 826 862 826 847 773.5 c 128,-1,54
 832 721 832 721 807 687 c 128,-1,55
 782 653 782 653 752 637 c 128,-1,56
 722 621 722 621 690 621 c 0,57,58
 672 621 672 621 654.5 624.5 c 128,-1,59
 637 628 637 628 620.5 635 c 128,-1,60
 604 642 604 642 586.5 650.5 c 128,-1,61
 569 659 569 659 550 668 c 1,62,-1
 593 666 l 1,63,-1
 593 632 l 1,20,-1
EndSplineSet
EndChar

StartChar: Ocaron
Encoding: 465 465 124
Width: 799
GlyphClass: 1
Flags: W
LayerCount: 2
Fore
SplineSet
363 805 m 1,0,-1
 436 805 l 1,1,-1
 566 961 l 1,2,-1
 566 981 l 1,3,-1
 516 981 l 1,4,-1
 335 838 l 1,5,-1
 469 843 l 1,6,-1
 292 981 l 1,7,-1
 232 981 l 1,8,-1
 232 961 l 1,9,-1
 363 805 l 1,0,-1
399 -25 m 0,10,11
 323 -25 323 -25 260.5 0 c 128,-1,12
 198 25 198 25 153 73.5 c 128,-1,13
 108 122 108 122 84 192.5 c 128,-1,14
 60 263 60 263 60 355 c 0,15,16
 60 448 60 448 84 518.5 c 128,-1,17
 108 589 108 589 153 637.5 c 128,-1,18
 198 686 198 686 260.5 710.5 c 128,-1,19
 323 735 323 735 399 735 c 0,20,21
 476 735 476 735 538.5 710.5 c 128,-1,22
 601 686 601 686 645.5 637.5 c 128,-1,23
 690 589 690 589 714.5 518.5 c 128,-1,24
 739 448 739 448 739 355 c 0,25,26
 739 263 739 263 714.5 192.5 c 128,-1,27
 690 122 690 122 645.5 73.5 c 128,-1,28
 601 25 601 25 538.5 0 c 128,-1,29
 476 -25 476 -25 399 -25 c 0,10,11
399 53 m 0,30,31
 457 53 457 53 500.5 71 c 128,-1,32
 544 89 544 89 573 126.5 c 128,-1,33
 602 164 602 164 617 220.5 c 128,-1,34
 632 277 632 277 632 355 c 256,35,36
 632 433 632 433 617 489.5 c 128,-1,37
 602 546 602 546 573 583.5 c 128,-1,38
 544 621 544 621 500.5 639 c 128,-1,39
 457 657 457 657 399 657 c 0,40,41
 342 657 342 657 298.5 639 c 128,-1,42
 255 621 255 621 225.5 583.5 c 128,-1,43
 196 546 196 546 181 489.5 c 128,-1,44
 166 433 166 433 166 355 c 256,45,46
 166 277 166 277 181 220.5 c 128,-1,47
 196 164 196 164 225.5 126.5 c 128,-1,48
 255 89 255 89 298.5 71 c 128,-1,49
 342 53 342 53 399 53 c 0,30,31
EndSplineSet
EndChar

StartChar: Oogonek
Encoding: 490 490 125
Width: 799
GlyphClass: 1
Flags: W
LayerCount: 2
Fore
SplineSet
399 53 m 0,0,1
 458 53 458 53 501.5 70.5 c 128,-1,2
 545 88 545 88 574 124.5 c 128,-1,3
 603 161 603 161 617.5 218.5 c 128,-1,4
 632 276 632 276 632 355 c 256,5,6
 632 434 632 434 617.5 491.5 c 128,-1,7
 603 549 603 549 574 585.5 c 128,-1,8
 545 622 545 622 501.5 639.5 c 128,-1,9
 458 657 458 657 399 657 c 0,10,11
 342 657 342 657 298.5 639.5 c 128,-1,12
 255 622 255 622 225.5 585.5 c 128,-1,13
 196 549 196 549 181 491.5 c 128,-1,14
 166 434 166 434 166 355 c 256,15,16
 166 276 166 276 181 218.5 c 128,-1,17
 196 161 196 161 225.5 124.5 c 128,-1,18
 255 88 255 88 298.5 70.5 c 128,-1,19
 342 53 342 53 399 53 c 0,0,1
641 70 m 0,20,21
 621 49 621 49 595 27.5 c 128,-1,22
 569 6 569 6 542 -15.5 c 128,-1,23
 515 -37 515 -37 492.5 -59.5 c 128,-1,24
 470 -82 470 -82 456 -104.5 c 128,-1,25
 442 -127 442 -127 442 -150 c 0,26,27
 442 -167 442 -167 452.5 -177.5 c 128,-1,28
 463 -188 463 -188 486 -188 c 0,29,30
 515 -188 515 -188 534.5 -173 c 128,-1,31
 554 -158 554 -158 567 -142 c 1,32,-1
 611 -182 l 1,33,34
 594 -202 594 -202 573.5 -218 c 128,-1,35
 553 -234 553 -234 526.5 -243 c 128,-1,36
 500 -252 500 -252 464 -252 c 0,37,38
 425 -252 425 -252 395 -242.5 c 128,-1,39
 365 -233 365 -233 348 -213 c 128,-1,40
 331 -193 331 -193 331 -162 c 0,41,42
 331 -138 331 -138 340.5 -118.5 c 128,-1,43
 350 -99 350 -99 372.5 -78 c 128,-1,44
 395 -57 395 -57 434 -30 c 128,-1,45
 473 -3 473 -3 532 35 c 1,46,-1
 517 -6 l 1,47,48
 499 -12 499 -12 480 -16.5 c 128,-1,49
 461 -21 461 -21 441 -23 c 128,-1,50
 421 -25 421 -25 399 -25 c 0,51,52
 324 -25 324 -25 261.5 -0.5 c 128,-1,53
 199 24 199 24 154 72.5 c 128,-1,54
 109 121 109 121 84.5 192 c 128,-1,55
 60 263 60 263 60 355 c 0,56,57
 60 448 60 448 84.5 518.5 c 128,-1,58
 109 589 109 589 154 637.5 c 128,-1,59
 199 686 199 686 261.5 710.5 c 128,-1,60
 324 735 324 735 399 735 c 0,61,62
 476 735 476 735 538.5 710.5 c 128,-1,63
 601 686 601 686 645.5 637.5 c 128,-1,64
 690 589 690 589 714.5 518.5 c 128,-1,65
 739 448 739 448 739 355 c 0,66,67
 739 294 739 294 727.5 241 c 128,-1,68
 716 188 716 188 694 145.5 c 128,-1,69
 672 103 672 103 641 70 c 0,20,21
EndSplineSet
EndChar

StartChar: Odblgrave
Encoding: 524 524 126
Width: 799
GlyphClass: 1
Flags: W
LayerCount: 2
Fore
SplineSet
491 928 m 2,0,-1
 536 826 l 1,1,-1
 536 793 l 1,2,-1
 494 793 l 1,3,-1
 423 855 l 2,4,5
 402 873 402 873 390.5 890 c 128,-1,6
 379 907 379 907 379 928 c 0,7,8
 379 946 379 946 392.5 959 c 128,-1,9
 406 972 406 972 429 972 c 0,10,11
 446 972 446 972 457.5 966 c 128,-1,12
 469 960 469 960 477.5 950 c 128,-1,13
 486 940 486 940 491 928 c 2,0,-1
298 928 m 2,14,-1
 340 826 l 1,15,-1
 340 793 l 1,16,-1
 298 793 l 1,17,-1
 227 855 l 2,18,19
 206 873 206 873 194.5 890 c 128,-1,20
 183 907 183 907 183 928 c 0,21,22
 183 946 183 946 197 959 c 128,-1,23
 211 972 211 972 233 972 c 0,24,25
 250 972 250 972 262.5 966 c 128,-1,26
 275 960 275 960 284 950 c 128,-1,27
 293 940 293 940 298 928 c 2,14,-1
399 -25 m 0,28,29
 323 -25 323 -25 261 0 c 128,-1,30
 199 25 199 25 153.5 73.5 c 128,-1,31
 108 122 108 122 84 192.5 c 128,-1,32
 60 263 60 263 60 355 c 0,33,34
 60 448 60 448 84 518.5 c 128,-1,35
 108 589 108 589 153.5 637.5 c 128,-1,36
 199 686 199 686 261 710.5 c 128,-1,37
 323 735 323 735 399 735 c 0,38,39
 476 735 476 735 538.5 710.5 c 128,-1,40
 601 686 601 686 645.5 637.5 c 128,-1,41
 690 589 690 589 714.5 518.5 c 128,-1,42
 739 448 739 448 739 355 c 0,43,44
 739 263 739 263 714.5 192.5 c 128,-1,45
 690 122 690 122 645.5 73.5 c 128,-1,46
 601 25 601 25 538.5 0 c 128,-1,47
 476 -25 476 -25 399 -25 c 0,28,29
399 53 m 0,48,49
 457 53 457 53 500.5 71 c 128,-1,50
 544 89 544 89 573 126.5 c 128,-1,51
 602 164 602 164 617 220.5 c 128,-1,52
 632 277 632 277 632 355 c 256,53,54
 632 433 632 433 617 489.5 c 128,-1,55
 602 546 602 546 573 583.5 c 128,-1,56
 544 621 544 621 500.5 639 c 128,-1,57
 457 657 457 657 399 657 c 0,58,59
 342 657 342 657 298.5 639 c 128,-1,60
 255 621 255 621 225.5 583.5 c 128,-1,61
 196 546 196 546 181 489.5 c 128,-1,62
 166 433 166 433 166 355 c 256,63,64
 166 277 166 277 181 220.5 c 128,-1,65
 196 164 196 164 225.5 126.5 c 128,-1,66
 255 89 255 89 298.5 71 c 128,-1,67
 342 53 342 53 399 53 c 0,48,49
EndSplineSet
EndChar

StartChar: Oinvertedbreve
Encoding: 526 526 127
Width: 799
GlyphClass: 1
Flags: W
LayerCount: 2
Fore
SplineSet
399 928 m 0,0,1
 344 928 344 928 305.5 911.5 c 128,-1,2
 267 895 267 895 246.5 858 c 128,-1,3
 226 821 226 821 225 759 c 1,4,-1
 299 759 l 1,5,6
 301 796 301 796 310 815 c 128,-1,7
 319 834 319 834 340.5 841 c 128,-1,8
 362 848 362 848 399 848 c 0,9,10
 434 848 434 848 454.5 841 c 128,-1,11
 475 834 475 834 484.5 815 c 128,-1,12
 494 796 494 796 496 759 c 1,13,-1
 575 759 l 1,14,15
 574 821 574 821 552.5 858 c 128,-1,16
 531 895 531 895 492 911.5 c 128,-1,17
 453 928 453 928 399 928 c 0,0,1
399 -25 m 0,18,19
 323 -25 323 -25 261 0 c 128,-1,20
 199 25 199 25 153.5 73.5 c 128,-1,21
 108 122 108 122 84 192.5 c 128,-1,22
 60 263 60 263 60 355 c 0,23,24
 60 448 60 448 84 518.5 c 128,-1,25
 108 589 108 589 153.5 637.5 c 128,-1,26
 199 686 199 686 261 710.5 c 128,-1,27
 323 735 323 735 399 735 c 0,28,29
 476 735 476 735 538.5 710.5 c 128,-1,30
 601 686 601 686 645.5 637.5 c 128,-1,31
 690 589 690 589 714.5 518.5 c 128,-1,32
 739 448 739 448 739 355 c 0,33,34
 739 263 739 263 714.5 192.5 c 128,-1,35
 690 122 690 122 645.5 73.5 c 128,-1,36
 601 25 601 25 538.5 0 c 128,-1,37
 476 -25 476 -25 399 -25 c 0,18,19
399 53 m 0,38,39
 457 53 457 53 500.5 71 c 128,-1,40
 544 89 544 89 573 126.5 c 128,-1,41
 602 164 602 164 617 220.5 c 128,-1,42
 632 277 632 277 632 355 c 256,43,44
 632 433 632 433 617 489.5 c 128,-1,45
 602 546 602 546 573 583.5 c 128,-1,46
 544 621 544 621 500.5 639 c 128,-1,47
 457 657 457 657 399 657 c 0,48,49
 342 657 342 657 298.5 639 c 128,-1,50
 255 621 255 621 225.5 583.5 c 128,-1,51
 196 546 196 546 181 489.5 c 128,-1,52
 166 433 166 433 166 355 c 256,53,54
 166 277 166 277 181 220.5 c 128,-1,55
 196 164 196 164 225.5 126.5 c 128,-1,56
 255 89 255 89 298.5 71 c 128,-1,57
 342 53 342 53 399 53 c 0,38,39
EndSplineSet
EndChar

StartChar: P
Encoding: 80 80 147
Width: 678
GlyphClass: 2
Flags: W
AnchorPoint: "Anchor-0" 319 741 basechar 0
LayerCount: 2
Fore
SplineSet
242 86 m 2,0,-1
 242 635 l 1,1,-1
 381 635 l 2,2,3
 427 635 427 635 457 619 c 128,-1,4
 487 603 487 603 501.5 571.5 c 128,-1,5
 516 540 516 540 516 494 c 0,6,7
 516 449 516 449 501.5 416.5 c 128,-1,8
 487 384 487 384 457 367 c 128,-1,9
 427 350 427 350 381 350 c 2,10,-1
 225 350 l 1,11,-1
 225 275 l 1,12,-1
 382 275 l 2,13,14
 453 275 453 275 506.5 299.5 c 128,-1,15
 560 324 560 324 591 374 c 128,-1,16
 622 424 622 424 622 498 c 0,17,18
 622 607 622 607 557.5 658.5 c 128,-1,19
 493 710 493 710 382 710 c 2,20,-1
 58 710 l 1,21,-1
 58 634 l 1,22,-1
 69 634 l 2,23,24
 98 634 98 634 120 627 c 128,-1,25
 142 620 142 620 142 598 c 2,26,-1
 142 112 l 2,27,28
 142 90 142 90 120 83 c 128,-1,29
 98 76 98 76 69 76 c 2,30,-1
 58 76 l 1,31,-1
 58 0 l 1,32,-1
 352 0 l 1,33,-1
 352 76 l 1,34,-1
 333 76 l 2,35,36
 316 76 316 76 299.5 76.5 c 128,-1,37
 283 77 283 77 270.5 78.5 c 128,-1,38
 258 80 258 80 250 81.5 c 128,-1,39
 242 83 242 83 242 86 c 2,0,-1
EndSplineSet
EndChar

StartChar: Q
Encoding: 81 81 148
Width: 799
GlyphClass: 1
Flags: W
LayerCount: 2
Fore
SplineSet
358 -3 m 1,0,-1
 438 10 l 1,1,2
 440 -50 440 -50 454.5 -85 c 128,-1,3
 469 -120 469 -120 499 -135.5 c 128,-1,4
 529 -151 529 -151 578 -151 c 0,5,6
 609 -151 609 -151 636.5 -147 c 128,-1,7
 664 -143 664 -143 689 -136.5 c 128,-1,8
 714 -130 714 -130 736 -124 c 1,9,-1
 736 -224 l 1,10,11
 707 -230 707 -230 666 -234.5 c 128,-1,12
 625 -239 625 -239 586 -239 c 0,13,14
 508 -239 508 -239 457.5 -212 c 128,-1,15
 407 -185 407 -185 382.5 -132 c 128,-1,16
 358 -79 358 -79 358 -3 c 1,0,-1
399 -25 m 0,17,18
 323 -25 323 -25 261 0 c 128,-1,19
 199 25 199 25 153.5 73.5 c 128,-1,20
 108 122 108 122 84 192.5 c 128,-1,21
 60 263 60 263 60 355 c 0,22,23
 60 448 60 448 84 518.5 c 128,-1,24
 108 589 108 589 153.5 637.5 c 128,-1,25
 199 686 199 686 261 710.5 c 128,-1,26
 323 735 323 735 399 735 c 0,27,28
 476 735 476 735 538.5 710.5 c 128,-1,29
 601 686 601 686 645.5 637.5 c 128,-1,30
 690 589 690 589 714.5 518.5 c 128,-1,31
 739 448 739 448 739 355 c 0,32,33
 739 263 739 263 714.5 192.5 c 128,-1,34
 690 122 690 122 645.5 73.5 c 128,-1,35
 601 25 601 25 538.5 0 c 128,-1,36
 476 -25 476 -25 399 -25 c 0,17,18
399 53 m 0,37,38
 457 53 457 53 501.5 71 c 128,-1,39
 546 89 546 89 576 126.5 c 128,-1,40
 606 164 606 164 622.5 220.5 c 128,-1,41
 639 277 639 277 640 355 c 256,42,43
 641 433 641 433 625 489.5 c 128,-1,44
 609 546 609 546 578 583.5 c 128,-1,45
 547 621 547 621 502 639 c 128,-1,46
 457 657 457 657 399 657 c 0,47,48
 342 657 342 657 298.5 639 c 128,-1,49
 255 621 255 621 225.5 583.5 c 128,-1,50
 196 546 196 546 181 489.5 c 128,-1,51
 166 433 166 433 166 355 c 256,52,53
 166 277 166 277 181 220.5 c 128,-1,54
 196 164 196 164 225.5 126.5 c 128,-1,55
 255 89 255 89 298.5 71 c 128,-1,56
 342 53 342 53 399 53 c 0,37,38
EndSplineSet
EndChar

StartChar: R
Encoding: 82 82 149
Width: 744
GlyphClass: 2
Flags: W
AnchorPoint: "Anchor-1" 417 0 basechar 0
AnchorPoint: "Anchor-0" 417 741 basechar 0
LayerCount: 2
Fore
SplineSet
383 321 m 1,0,-1
 560 0 l 1,1,-1
 711 0 l 1,2,-1
 711 76 l 1,3,-1
 702 76 l 2,4,5
 680 76 680 76 662 80.5 c 128,-1,6
 644 85 644 85 628.5 98.5 c 128,-1,7
 613 112 613 112 598 137 c 2,8,-1
 467 364 l 1,9,-1
 383 321 l 1,0,-1
242 86 m 2,10,-1
 242 635 l 1,11,-1
 382 635 l 2,12,13
 431 635 431 635 462.5 620.5 c 128,-1,14
 494 606 494 606 509 578.5 c 128,-1,15
 524 551 524 551 524 508 c 0,16,17
 524 466 524 466 509 434 c 128,-1,18
 494 402 494 402 461.5 384 c 128,-1,19
 429 366 429 366 376 366 c 2,20,-1
 232 366 l 1,21,-1
 232 294 l 1,22,-1
 416 294 l 2,23,24
 420 294 420 294 423.5 296 c 128,-1,25
 427 298 427 298 431.5 302 c 128,-1,26
 436 306 436 306 443 311 c 0,27,28
 497 324 497 324 537 351 c 128,-1,29
 577 378 577 378 599.5 420.5 c 128,-1,30
 622 463 622 463 622 519 c 0,31,32
 622 582 622 582 593.5 624.5 c 128,-1,33
 565 667 565 667 512.5 688.5 c 128,-1,34
 460 710 460 710 384 710 c 2,35,-1
 58 710 l 1,36,-1
 58 634 l 1,37,-1
 69 634 l 2,38,39
 98 634 98 634 120 627 c 128,-1,40
 142 620 142 620 142 598 c 2,41,-1
 142 112 l 2,42,43
 142 90 142 90 120 83 c 128,-1,44
 98 76 98 76 69 76 c 2,45,-1
 58 76 l 1,46,-1
 58 0 l 1,47,-1
 352 0 l 1,48,-1
 352 76 l 1,49,-1
 333 76 l 2,50,51
 316 76 316 76 299.5 76.5 c 128,-1,52
 283 77 283 77 270 78.5 c 128,-1,53
 257 80 257 80 249.5 81.5 c 128,-1,54
 242 83 242 83 242 86 c 2,10,-1
EndSplineSet
EndChar

StartChar: Rcaron
Encoding: 344 344 152
Width: 744
GlyphClass: 1
Flags: W
LayerCount: 2
Fore
SplineSet
324 805 m 1,0,-1
 397 805 l 1,1,-1
 527 961 l 1,2,-1
 527 981 l 1,3,-1
 477 981 l 1,4,-1
 296 838 l 1,5,-1
 430 843 l 1,6,-1
 253 981 l 1,7,-1
 192 981 l 1,8,-1
 192 961 l 1,9,-1
 324 805 l 1,0,-1
383 321 m 1,10,-1
 560 0 l 1,11,-1
 711 0 l 1,12,-1
 711 76 l 1,13,-1
 702 76 l 2,14,15
 680 76 680 76 662 80.5 c 128,-1,16
 644 85 644 85 628.5 98.5 c 128,-1,17
 613 112 613 112 598 137 c 2,18,-1
 467 364 l 1,19,-1
 383 321 l 1,10,-1
242 86 m 2,20,-1
 242 635 l 1,21,-1
 382 635 l 2,22,23
 431 635 431 635 462.5 620.5 c 128,-1,24
 494 606 494 606 509 578.5 c 128,-1,25
 524 551 524 551 524 508 c 0,26,27
 524 466 524 466 509 434 c 128,-1,28
 494 402 494 402 461.5 384 c 128,-1,29
 429 366 429 366 376 366 c 2,30,-1
 232 366 l 1,31,-1
 232 294 l 1,32,-1
 416 294 l 2,33,34
 420 294 420 294 423.5 296 c 128,-1,35
 427 298 427 298 431.5 302 c 128,-1,36
 436 306 436 306 443 311 c 0,37,38
 497 324 497 324 537 351 c 128,-1,39
 577 378 577 378 599.5 420.5 c 128,-1,40
 622 463 622 463 622 519 c 0,41,42
 622 582 622 582 593.5 624.5 c 128,-1,43
 565 667 565 667 512.5 688.5 c 128,-1,44
 460 710 460 710 384 710 c 2,45,-1
 58 710 l 1,46,-1
 58 634 l 1,47,-1
 69 634 l 2,48,49
 98 634 98 634 120 627 c 128,-1,50
 142 620 142 620 142 598 c 2,51,-1
 142 112 l 2,52,53
 142 90 142 90 120 83 c 128,-1,54
 98 76 98 76 69 76 c 2,55,-1
 58 76 l 1,56,-1
 58 0 l 1,57,-1
 352 0 l 1,58,-1
 352 76 l 1,59,-1
 333 76 l 2,60,61
 316 76 316 76 299.5 76.5 c 128,-1,62
 283 77 283 77 270 78.5 c 128,-1,63
 257 80 257 80 249.5 81.5 c 128,-1,64
 242 83 242 83 242 86 c 2,20,-1
EndSplineSet
EndChar

StartChar: Rdblgrave
Encoding: 528 528 153
Width: 744
GlyphClass: 1
Flags: W
LayerCount: 2
Fore
SplineSet
455 928 m 2,0,-1
 500 826 l 1,1,-1
 500 793 l 1,2,-1
 458 793 l 1,3,-1
 387 855 l 2,4,5
 366 873 366 873 354.5 890 c 128,-1,6
 343 907 343 907 343 928 c 0,7,8
 343 946 343 946 356.5 959 c 128,-1,9
 370 972 370 972 393 972 c 0,10,11
 410 972 410 972 421.5 966 c 128,-1,12
 433 960 433 960 441.5 950 c 128,-1,13
 450 940 450 940 455 928 c 2,0,-1
262 928 m 2,14,-1
 304 826 l 1,15,-1
 304 793 l 1,16,-1
 262 793 l 1,17,-1
 191 855 l 2,18,19
 170 873 170 873 158.5 890 c 128,-1,20
 147 907 147 907 147 928 c 0,21,22
 147 946 147 946 161 959 c 128,-1,23
 175 972 175 972 197 972 c 0,24,25
 214 972 214 972 226.5 966 c 128,-1,26
 239 960 239 960 248 950 c 128,-1,27
 257 940 257 940 262 928 c 2,14,-1
383 321 m 1,28,-1
 560 0 l 1,29,-1
 711 0 l 1,30,-1
 711 76 l 1,31,-1
 702 76 l 2,32,33
 680 76 680 76 662 80.5 c 128,-1,34
 644 85 644 85 628.5 98.5 c 128,-1,35
 613 112 613 112 598 137 c 2,36,-1
 467 364 l 1,37,-1
 383 321 l 1,28,-1
242 86 m 2,38,-1
 242 635 l 1,39,-1
 382 635 l 2,40,41
 431 635 431 635 462.5 620.5 c 128,-1,42
 494 606 494 606 509 578.5 c 128,-1,43
 524 551 524 551 524 508 c 0,44,45
 524 466 524 466 509 434 c 128,-1,46
 494 402 494 402 461.5 384 c 128,-1,47
 429 366 429 366 376 366 c 2,48,-1
 232 366 l 1,49,-1
 232 294 l 1,50,-1
 416 294 l 2,51,52
 420 294 420 294 423.5 296 c 128,-1,53
 427 298 427 298 431.5 302 c 128,-1,54
 436 306 436 306 443 311 c 0,55,56
 497 324 497 324 537 351 c 128,-1,57
 577 378 577 378 599.5 420.5 c 128,-1,58
 622 463 622 463 622 519 c 0,59,60
 622 582 622 582 593.5 624.5 c 128,-1,61
 565 667 565 667 512.5 688.5 c 128,-1,62
 460 710 460 710 384 710 c 2,63,-1
 58 710 l 1,64,-1
 58 634 l 1,65,-1
 69 634 l 2,66,67
 98 634 98 634 120 627 c 128,-1,68
 142 620 142 620 142 598 c 2,69,-1
 142 112 l 2,70,71
 142 90 142 90 120 83 c 128,-1,72
 98 76 98 76 69 76 c 2,73,-1
 58 76 l 1,74,-1
 58 0 l 1,75,-1
 352 0 l 1,76,-1
 352 76 l 1,77,-1
 333 76 l 2,78,79
 316 76 316 76 299.5 76.5 c 128,-1,80
 283 77 283 77 270 78.5 c 128,-1,81
 257 80 257 80 249.5 81.5 c 128,-1,82
 242 83 242 83 242 86 c 2,38,-1
EndSplineSet
EndChar

StartChar: Rinvertedbreve
Encoding: 530 530 154
Width: 744
GlyphClass: 1
Flags: W
LayerCount: 2
Fore
SplineSet
360 928 m 0,0,1
 305 928 305 928 266.5 911.5 c 128,-1,2
 228 895 228 895 207.5 858 c 128,-1,3
 187 821 187 821 186 759 c 1,4,-1
 259 759 l 1,5,6
 261 796 261 796 270.5 815 c 128,-1,7
 280 834 280 834 301.5 841 c 128,-1,8
 323 848 323 848 360 848 c 0,9,10
 395 848 395 848 415.5 841 c 128,-1,11
 436 834 436 834 445.5 815 c 128,-1,12
 455 796 455 796 457 759 c 1,13,-1
 536 759 l 1,14,15
 535 821 535 821 513 858 c 128,-1,16
 491 895 491 895 452.5 911.5 c 128,-1,17
 414 928 414 928 360 928 c 0,0,1
383 321 m 1,18,-1
 560 0 l 1,19,-1
 711 0 l 1,20,-1
 711 76 l 1,21,-1
 702 76 l 2,22,23
 680 76 680 76 662 80.5 c 128,-1,24
 644 85 644 85 628.5 98.5 c 128,-1,25
 613 112 613 112 598 137 c 2,26,-1
 467 364 l 1,27,-1
 383 321 l 1,18,-1
242 86 m 2,28,-1
 242 635 l 1,29,-1
 382 635 l 2,30,31
 431 635 431 635 462.5 620.5 c 128,-1,32
 494 606 494 606 509 578.5 c 128,-1,33
 524 551 524 551 524 508 c 0,34,35
 524 466 524 466 509 434 c 128,-1,36
 494 402 494 402 461.5 384 c 128,-1,37
 429 366 429 366 376 366 c 2,38,-1
 232 366 l 1,39,-1
 232 294 l 1,40,-1
 416 294 l 2,41,42
 420 294 420 294 423.5 296 c 128,-1,43
 427 298 427 298 431.5 302 c 128,-1,44
 436 306 436 306 443 311 c 0,45,46
 497 324 497 324 537 351 c 128,-1,47
 577 378 577 378 599.5 420.5 c 128,-1,48
 622 463 622 463 622 519 c 0,49,50
 622 582 622 582 593.5 624.5 c 128,-1,51
 565 667 565 667 512.5 688.5 c 128,-1,52
 460 710 460 710 384 710 c 2,53,-1
 58 710 l 1,54,-1
 58 634 l 1,55,-1
 69 634 l 2,56,57
 98 634 98 634 120 627 c 128,-1,58
 142 620 142 620 142 598 c 2,59,-1
 142 112 l 2,60,61
 142 90 142 90 120 83 c 128,-1,62
 98 76 98 76 69 76 c 2,63,-1
 58 76 l 1,64,-1
 58 0 l 1,65,-1
 352 0 l 1,66,-1
 352 76 l 1,67,-1
 333 76 l 2,68,69
 316 76 316 76 299.5 76.5 c 128,-1,70
 283 77 283 77 270 78.5 c 128,-1,71
 257 80 257 80 249.5 81.5 c 128,-1,72
 242 83 242 83 242 86 c 2,28,-1
EndSplineSet
EndChar

StartChar: S
Encoding: 83 83 157
Width: 646
GlyphClass: 2
Flags: W
AnchorPoint: "Anchor-1" 354 0 basechar 0
AnchorPoint: "Anchor-0" 354 741 basechar 0
LayerCount: 2
Fore
SplineSet
359 51 m 0,0,1
 410 51 410 51 441 62 c 128,-1,2
 472 73 472 73 486 99.5 c 128,-1,3
 500 126 500 126 500 172 c 0,4,5
 500 212 500 212 484 237 c 128,-1,6
 468 262 468 262 440 278 c 128,-1,7
 412 294 412 294 377 304 c 128,-1,8
 342 314 342 314 305 323 c 0,9,10
 259 335 259 335 218.5 348.5 c 128,-1,11
 178 362 178 362 147.5 384.5 c 128,-1,12
 117 407 117 407 99.5 445.5 c 128,-1,13
 82 484 82 484 82 545 c 0,14,15
 82 604 82 604 106.5 646.5 c 128,-1,16
 131 689 131 689 179 712 c 128,-1,17
 227 735 227 735 299 735 c 0,18,19
 359 735 359 735 401 715.5 c 128,-1,20
 443 696 443 696 466 652.5 c 128,-1,21
 489 609 489 609 491 538 c 1,22,-1
 473 586 l 1,23,-1
 486 720 l 1,24,-1
 559 720 l 1,25,-1
 559 501 l 1,26,-1
 483 501 l 1,27,28
 470 552 470 552 447 587.5 c 128,-1,29
 424 623 424 623 388.5 642 c 128,-1,30
 353 661 353 661 300 661 c 0,31,32
 253 661 253 661 225 648 c 128,-1,33
 197 635 197 635 185 610 c 128,-1,34
 173 585 173 585 173 549 c 0,35,36
 173 512 173 512 186 489.5 c 128,-1,37
 199 467 199 467 224 453.5 c 128,-1,38
 249 440 249 440 283 430.5 c 128,-1,39
 317 421 317 421 360 409 c 0,40,41
 402 398 402 398 444 384.5 c 128,-1,42
 486 371 486 371 520.5 347.5 c 128,-1,43
 555 324 555 324 575.5 286 c 128,-1,44
 596 248 596 248 596 189 c 0,45,46
 596 113 596 113 565.5 66 c 128,-1,47
 535 19 535 19 482 -3 c 128,-1,48
 429 -25 429 -25 360 -25 c 0,49,50
 293 -25 293 -25 242.5 -4 c 128,-1,51
 192 17 192 17 162.5 66.5 c 128,-1,52
 133 116 133 116 127 200 c 1,53,-1
 150 150 l 1,54,-1
 137 -9 l 1,55,-1
 65 -9 l 1,56,-1
 65 237 l 1,57,-1
 143 237 l 1,58,59
 156 172 156 172 183 131 c 128,-1,60
 210 90 210 90 253.5 70.5 c 128,-1,61
 297 51 297 51 359 51 c 0,0,1
EndSplineSet
EndChar

StartChar: Scaron
Encoding: 352 352 161
Width: 646
GlyphClass: 1
Flags: W
LayerCount: 2
Fore
SplineSet
294 805 m 1,0,-1
 367 805 l 1,1,-1
 497 961 l 1,2,-1
 497 981 l 1,3,-1
 447 981 l 1,4,-1
 266 838 l 1,5,-1
 400 843 l 1,6,-1
 224 981 l 1,7,-1
 163 981 l 1,8,-1
 163 961 l 1,9,-1
 294 805 l 1,0,-1
359 51 m 0,10,11
 410 51 410 51 441 62 c 128,-1,12
 472 73 472 73 486 99.5 c 128,-1,13
 500 126 500 126 500 172 c 0,14,15
 500 212 500 212 484 237 c 128,-1,16
 468 262 468 262 440 278 c 128,-1,17
 412 294 412 294 377 304 c 128,-1,18
 342 314 342 314 305 323 c 0,19,20
 259 335 259 335 218.5 348.5 c 128,-1,21
 178 362 178 362 147.5 384.5 c 128,-1,22
 117 407 117 407 99.5 445.5 c 128,-1,23
 82 484 82 484 82 545 c 0,24,25
 82 604 82 604 106.5 646.5 c 128,-1,26
 131 689 131 689 179 712 c 128,-1,27
 227 735 227 735 299 735 c 0,28,29
 359 735 359 735 401 715.5 c 128,-1,30
 443 696 443 696 466 652.5 c 128,-1,31
 489 609 489 609 491 538 c 1,32,-1
 473 586 l 1,33,-1
 486 720 l 1,34,-1
 559 720 l 1,35,-1
 559 501 l 1,36,-1
 483 501 l 1,37,38
 470 552 470 552 447 587.5 c 128,-1,39
 424 623 424 623 388.5 642 c 128,-1,40
 353 661 353 661 300 661 c 0,41,42
 253 661 253 661 225 648 c 128,-1,43
 197 635 197 635 185 610 c 128,-1,44
 173 585 173 585 173 549 c 0,45,46
 173 512 173 512 186 489.5 c 128,-1,47
 199 467 199 467 224 453.5 c 128,-1,48
 249 440 249 440 283 430.5 c 128,-1,49
 317 421 317 421 360 409 c 0,50,51
 402 398 402 398 444 384.5 c 128,-1,52
 486 371 486 371 520.5 347.5 c 128,-1,53
 555 324 555 324 575.5 286 c 128,-1,54
 596 248 596 248 596 189 c 0,55,56
 596 113 596 113 565.5 66 c 128,-1,57
 535 19 535 19 482 -3 c 128,-1,58
 429 -25 429 -25 360 -25 c 0,59,60
 293 -25 293 -25 242.5 -4 c 128,-1,61
 192 17 192 17 162.5 66.5 c 128,-1,62
 133 116 133 116 127 200 c 1,63,-1
 150 150 l 1,64,-1
 137 -9 l 1,65,-1
 65 -9 l 1,66,-1
 65 237 l 1,67,-1
 143 237 l 1,68,69
 156 172 156 172 183 131 c 128,-1,70
 210 90 210 90 253.5 70.5 c 128,-1,71
 297 51 297 51 359 51 c 0,10,11
EndSplineSet
EndChar

StartChar: Scarondotaccent
Encoding: 7782 7782 166
Width: 646
GlyphClass: 1
Flags: W
LayerCount: 2
Fore
SplineSet
290 805 m 1,0,-1
 363 805 l 1,1,-1
 493 961 l 1,2,-1
 493 981 l 1,3,-1
 443 981 l 1,4,-1
 262 838 l 1,5,-1
 396 843 l 1,6,-1
 220 981 l 1,7,-1
 159 981 l 1,8,-1
 159 961 l 1,9,-1
 290 805 l 1,0,-1
359 51 m 0,10,11
 410 51 410 51 441 62 c 128,-1,12
 472 73 472 73 486 99.5 c 128,-1,13
 500 126 500 126 500 172 c 0,14,15
 500 212 500 212 484 237 c 128,-1,16
 468 262 468 262 440 278 c 128,-1,17
 412 294 412 294 377 304 c 128,-1,18
 342 314 342 314 305 323 c 0,19,20
 259 335 259 335 218.5 348.5 c 128,-1,21
 178 362 178 362 147.5 384.5 c 128,-1,22
 117 407 117 407 99.5 445.5 c 128,-1,23
 82 484 82 484 82 545 c 0,24,25
 82 604 82 604 106.5 646.5 c 128,-1,26
 131 689 131 689 179 712 c 128,-1,27
 227 735 227 735 299 735 c 0,28,29
 359 735 359 735 401 715.5 c 128,-1,30
 443 696 443 696 466 652.5 c 128,-1,31
 489 609 489 609 491 538 c 1,32,-1
 473 586 l 1,33,-1
 486 720 l 1,34,-1
 559 720 l 1,35,-1
 559 501 l 1,36,-1
 483 501 l 1,37,38
 470 552 470 552 447 587.5 c 128,-1,39
 424 623 424 623 388.5 642 c 128,-1,40
 353 661 353 661 300 661 c 0,41,42
 253 661 253 661 225 648 c 128,-1,43
 197 635 197 635 185 610 c 128,-1,44
 173 585 173 585 173 549 c 0,45,46
 173 512 173 512 186 489.5 c 128,-1,47
 199 467 199 467 224 453.5 c 128,-1,48
 249 440 249 440 283 430.5 c 128,-1,49
 317 421 317 421 360 409 c 0,50,51
 402 398 402 398 444 384.5 c 128,-1,52
 486 371 486 371 520.5 347.5 c 128,-1,53
 555 324 555 324 575.5 286 c 128,-1,54
 596 248 596 248 596 189 c 0,55,56
 596 113 596 113 565.5 66 c 128,-1,57
 535 19 535 19 482 -3 c 128,-1,58
 429 -25 429 -25 360 -25 c 0,59,60
 293 -25 293 -25 242.5 -4 c 128,-1,61
 192 17 192 17 162.5 66.5 c 128,-1,62
 133 116 133 116 127 200 c 1,63,-1
 150 150 l 1,64,-1
 137 -9 l 1,65,-1
 65 -9 l 1,66,-1
 65 237 l 1,67,-1
 143 237 l 1,68,69
 156 172 156 172 183 131 c 128,-1,70
 210 90 210 90 253.5 70.5 c 128,-1,71
 297 51 297 51 359 51 c 0,10,11
327 1007 m 0,72,73
 291 1007 291 1007 271 1026 c 128,-1,74
 251 1045 251 1045 251 1081 c 0,75,76
 251 1115 251 1115 271 1134 c 128,-1,77
 291 1153 291 1153 327 1153 c 0,78,79
 362 1153 362 1153 382 1134 c 128,-1,80
 402 1115 402 1115 402 1081 c 0,81,82
 402 1045 402 1045 382 1026 c 128,-1,83
 362 1007 362 1007 327 1007 c 0,72,73
EndSplineSet
EndChar

StartChar: T
Encoding: 84 84 168
Width: 713
GlyphClass: 2
Flags: W
AnchorPoint: "Anchor-1" 361 0 basechar 0
AnchorPoint: "Anchor-0" 361 741 basechar 0
LayerCount: 2
Fore
SplineSet
307 112 m 2,0,-1
 307 635 l 1,1,-1
 246 635 l 2,2,3
 203 635 203 635 180.5 628.5 c 128,-1,4
 158 622 158 622 149 609.5 c 128,-1,5
 140 597 140 597 138 577 c 2,6,-1
 126 471 l 1,7,-1
 53 471 l 1,8,-1
 53 710 l 1,9,-1
 661 710 l 1,10,-1
 661 471 l 1,11,-1
 587 471 l 1,12,-1
 576 577 l 2,13,14
 574 597 574 597 565 609.5 c 128,-1,15
 556 622 556 622 533 628.5 c 128,-1,16
 510 635 510 635 467 635 c 2,17,-1
 407 635 l 1,18,-1
 407 112 l 2,19,20
 407 90 407 90 432 83 c 128,-1,21
 457 76 457 76 489 76 c 2,22,-1
 508 76 l 1,23,-1
 508 0 l 1,24,-1
 205 0 l 1,25,-1
 205 76 l 1,26,-1
 224 76 l 2,27,28
 257 76 257 76 282 83 c 128,-1,29
 307 90 307 90 307 112 c 2,0,-1
EndSplineSet
EndChar

StartChar: Tcaron
Encoding: 356 356 170
Width: 713
GlyphClass: 1
Flags: W
LayerCount: 2
Fore
SplineSet
314 805 m 1,0,-1
 387 805 l 1,1,-1
 517 961 l 1,2,-1
 517 981 l 1,3,-1
 467 981 l 1,4,-1
 286 838 l 1,5,-1
 420 843 l 1,6,-1
 244 981 l 1,7,-1
 183 981 l 1,8,-1
 183 961 l 1,9,-1
 314 805 l 1,0,-1
307 112 m 2,10,-1
 307 635 l 1,11,-1
 246 635 l 2,12,13
 203 635 203 635 180.5 628.5 c 128,-1,14
 158 622 158 622 149 609.5 c 128,-1,15
 140 597 140 597 138 577 c 2,16,-1
 126 471 l 1,17,-1
 53 471 l 1,18,-1
 53 710 l 1,19,-1
 661 710 l 1,20,-1
 661 471 l 1,21,-1
 587 471 l 1,22,-1
 576 577 l 2,23,24
 574 597 574 597 565 609.5 c 128,-1,25
 556 622 556 622 533 628.5 c 128,-1,26
 510 635 510 635 467 635 c 2,27,-1
 407 635 l 1,28,-1
 407 112 l 2,29,30
 407 90 407 90 432 83 c 128,-1,31
 457 76 457 76 489 76 c 2,32,-1
 508 76 l 1,33,-1
 508 0 l 1,34,-1
 205 0 l 1,35,-1
 205 76 l 1,36,-1
 224 76 l 2,37,38
 257 76 257 76 282 83 c 128,-1,39
 307 90 307 90 307 112 c 2,10,-1
EndSplineSet
EndChar

StartChar: U
Encoding: 85 85 174
Width: 803
GlyphClass: 2
Flags: W
AnchorPoint: "Anchor-2" 460 0 basechar 0
AnchorPoint: "Anchor-1" 406 0 basechar 0
AnchorPoint: "Anchor-0" 406 741 basechar 0
LayerCount: 2
Fore
SplineSet
234 258 m 2,0,1
 234 202 234 202 247.5 163.5 c 128,-1,2
 261 125 261 125 284.5 102 c 128,-1,3
 308 79 308 79 340.5 68.5 c 128,-1,4
 373 58 373 58 412 58 c 0,5,6
 450 58 450 58 482 68.5 c 128,-1,7
 514 79 514 79 537.5 102 c 128,-1,8
 561 125 561 125 573 163.5 c 128,-1,9
 585 202 585 202 585 258 c 2,10,-1
 585 615 l 2,11,12
 585 620 585 620 577.5 623.5 c 128,-1,13
 570 627 570 627 558.5 629 c 128,-1,14
 547 631 547 631 534 632.5 c 128,-1,15
 521 634 521 634 510 634 c 2,16,-1
 501 634 l 1,17,-1
 501 710 l 1,18,-1
 753 710 l 1,19,-1
 753 634 l 1,20,-1
 742 634 l 2,21,22
 723 634 723 634 706 630 c 128,-1,23
 689 626 689 626 679 616 c 128,-1,24
 669 606 669 606 669 589 c 2,25,-1
 669 247 l 2,26,27
 669 175 669 175 648 123 c 128,-1,28
 627 71 627 71 590 38 c 128,-1,29
 553 5 553 5 505.5 -10 c 128,-1,30
 458 -25 458 -25 405 -25 c 0,31,32
 348 -25 348 -25 298.5 -9.5 c 128,-1,33
 249 6 249 6 212 38.5 c 128,-1,34
 175 71 175 71 154.5 122.5 c 128,-1,35
 134 174 134 174 134 247 c 2,36,-1
 134 598 l 2,37,38
 134 620 134 620 112 627 c 128,-1,39
 90 634 90 634 60 634 c 2,40,-1
 49 634 l 1,41,-1
 49 710 l 1,42,-1
 326 710 l 1,43,-1
 326 635 l 1,44,-1
 317 635 l 2,45,46
 304 635 304 635 289 634 c 128,-1,47
 274 633 274 633 261.5 631.5 c 128,-1,48
 249 630 249 630 241.5 628.5 c 128,-1,49
 234 627 234 627 234 624 c 2,50,-1
 234 258 l 2,0,1
EndSplineSet
EndChar

StartChar: Uogonek
Encoding: 370 370 184
Width: 803
GlyphClass: 1
Flags: W
LayerCount: 2
Fore
SplineSet
514 39 m 1,0,-1
 515 -5 l 1,1,2
 491 -15 491 -15 463 -20 c 128,-1,3
 435 -25 435 -25 405 -25 c 0,4,5
 347 -25 347 -25 297.5 -9.5 c 128,-1,6
 248 6 248 6 211 38.5 c 128,-1,7
 174 71 174 71 154 122.5 c 128,-1,8
 134 174 134 174 134 247 c 2,9,-1
 134 598 l 2,10,11
 134 620 134 620 115 627 c 128,-1,12
 96 634 96 634 60 634 c 2,13,-1
 49 634 l 1,14,-1
 49 710 l 1,15,-1
 326 710 l 1,16,-1
 326 635 l 1,17,-1
 317 635 l 2,18,19
 304 635 304 635 289 634 c 128,-1,20
 274 633 274 633 261.5 631.5 c 128,-1,21
 249 630 249 630 241.5 628.5 c 128,-1,22
 234 627 234 627 234 625 c 2,23,-1
 234 247 l 2,24,25
 234 194 234 194 247.5 158 c 128,-1,26
 261 122 261 122 284.5 100 c 128,-1,27
 308 78 308 78 341.5 69 c 128,-1,28
 375 60 375 60 414 60 c 256,29,30
 453 60 453 60 484.5 69 c 128,-1,31
 516 78 516 78 538.5 99.5 c 128,-1,32
 561 121 561 121 573.5 157.5 c 128,-1,33
 586 194 586 194 586 247 c 2,34,-1
 586 615 l 2,35,36
 586 620 586 620 579 623.5 c 128,-1,37
 572 627 572 627 561.5 629 c 128,-1,38
 551 631 551 631 537 632.5 c 128,-1,39
 523 634 523 634 510 634 c 2,40,-1
 501 634 l 1,41,-1
 501 710 l 1,42,-1
 753 710 l 1,43,-1
 753 634 l 1,44,-1
 742 634 l 2,45,46
 719 634 719 634 702.5 630 c 128,-1,47
 686 626 686 626 677.5 616 c 128,-1,48
 669 606 669 606 669 589 c 2,49,-1
 669 247 l 2,50,51
 669 200 669 200 659 161 c 128,-1,52
 649 122 649 122 632.5 92 c 128,-1,53
 616 62 616 62 595 40 c 0,54,55
 575 20 575 20 547 -1.5 c 128,-1,56
 519 -23 519 -23 493 -45.5 c 128,-1,57
 467 -68 467 -68 448.5 -94 c 128,-1,58
 430 -120 430 -120 430 -150 c 0,59,60
 430 -163 430 -163 439.5 -173.5 c 128,-1,61
 449 -184 449 -184 472 -184 c 0,62,63
 503 -184 503 -184 522 -170.5 c 128,-1,64
 541 -157 541 -157 553 -141 c 1,65,-1
 596 -182 l 1,66,67
 571 -213 571 -213 536.5 -232.5 c 128,-1,68
 502 -252 502 -252 449 -252 c 0,69,70
 413 -252 413 -252 384 -242.5 c 128,-1,71
 355 -233 355 -233 338.5 -213 c 128,-1,72
 322 -193 322 -193 322 -162 c 0,73,74
 322 -138 322 -138 330.5 -118 c 128,-1,75
 339 -98 339 -98 360 -77.5 c 128,-1,76
 381 -57 381 -57 419 -29 c 128,-1,77
 457 -1 457 -1 514 39 c 1,0,-1
EndSplineSet
EndChar

StartChar: Uhorn
Encoding: 431 431 185
Width: 910
GlyphClass: 2
Flags: W
AnchorPoint: "Anchor-1" 459 -35 basechar 0
AnchorPoint: "Anchor-0" 459 663 basechar 0
LayerCount: 2
Fore
SplineSet
134 247 m 2,0,-1
 134 598 l 2,1,2
 134 620 134 620 115 627 c 128,-1,3
 96 634 96 634 60 634 c 2,4,-1
 49 634 l 1,5,-1
 49 710 l 1,6,-1
 326 710 l 1,7,-1
 326 635 l 1,8,-1
 317 635 l 2,9,10
 304 635 304 635 289 634 c 128,-1,11
 274 633 274 633 261.5 631.5 c 128,-1,12
 249 630 249 630 241.5 628.5 c 128,-1,13
 234 627 234 627 234 625 c 2,14,-1
 234 247 l 2,15,16
 234 194 234 194 247.5 157.5 c 128,-1,17
 261 121 261 121 285 99.5 c 128,-1,18
 309 78 309 78 342 68.5 c 128,-1,19
 375 59 375 59 415 59 c 0,20,21
 464 59 464 59 502.5 76.5 c 128,-1,22
 541 94 541 94 563.5 135.5 c 128,-1,23
 586 177 586 177 586 247 c 2,24,-1
 586 615 l 2,25,26
 586 620 586 620 579 623.5 c 128,-1,27
 572 627 572 627 561.5 629 c 128,-1,28
 551 631 551 631 537 632.5 c 128,-1,29
 523 634 523 634 510 634 c 2,30,-1
 501 634 l 1,31,-1
 501 710 l 1,32,-1
 729 710 l 2,33,34
 765 710 765 710 788 722.5 c 128,-1,35
 811 735 811 735 825.5 759.5 c 128,-1,36
 840 784 840 784 847 819 c 128,-1,37
 854 854 854 854 857 899 c 1,38,-1
 950 899 l 1,39,40
 949 846 949 846 941 805 c 128,-1,41
 933 764 933 764 917.5 733.5 c 128,-1,42
 902 703 902 703 877 683 c 128,-1,43
 852 663 852 663 816 651 c 128,-1,44
 780 639 780 639 732 634 c 0,45,46
 713 633 713 633 699 629 c 128,-1,47
 685 625 685 625 677 615.5 c 128,-1,48
 669 606 669 606 669 590 c 2,49,-1
 669 247 l 2,50,51
 669 174 669 174 649 122.5 c 128,-1,52
 629 71 629 71 592.5 38 c 128,-1,53
 556 5 556 5 508 -10 c 128,-1,54
 460 -25 460 -25 405 -25 c 0,55,56
 347 -25 347 -25 297.5 -9.5 c 128,-1,57
 248 6 248 6 211 38.5 c 128,-1,58
 174 71 174 71 154 122.5 c 128,-1,59
 134 174 134 174 134 247 c 2,0,-1
EndSplineSet
EndChar

StartChar: Ucaron
Encoding: 467 467 186
Width: 803
GlyphClass: 1
Flags: W
LayerCount: 2
Fore
SplineSet
372 805 m 1,0,-1
 445 805 l 1,1,-1
 576 961 l 1,2,-1
 576 981 l 1,3,-1
 525 981 l 1,4,-1
 345 838 l 1,5,-1
 479 843 l 1,6,-1
 302 981 l 1,7,-1
 241 981 l 1,8,-1
 241 961 l 1,9,-1
 372 805 l 1,0,-1
234 258 m 2,10,11
 234 202 234 202 247.5 163.5 c 128,-1,12
 261 125 261 125 284.5 102 c 128,-1,13
 308 79 308 79 340.5 68.5 c 128,-1,14
 373 58 373 58 412 58 c 0,15,16
 450 58 450 58 482 68.5 c 128,-1,17
 514 79 514 79 537.5 102 c 128,-1,18
 561 125 561 125 573 163.5 c 128,-1,19
 585 202 585 202 585 258 c 2,20,-1
 585 615 l 2,21,22
 585 620 585 620 577.5 623.5 c 128,-1,23
 570 627 570 627 558.5 629 c 128,-1,24
 547 631 547 631 534 632.5 c 128,-1,25
 521 634 521 634 510 634 c 2,26,-1
 501 634 l 1,27,-1
 501 710 l 1,28,-1
 753 710 l 1,29,-1
 753 634 l 1,30,-1
 742 634 l 2,31,32
 723 634 723 634 706 630 c 128,-1,33
 689 626 689 626 679 616 c 128,-1,34
 669 606 669 606 669 589 c 2,35,-1
 669 247 l 2,36,37
 669 175 669 175 648 123 c 128,-1,38
 627 71 627 71 590 38 c 128,-1,39
 553 5 553 5 505.5 -10 c 128,-1,40
 458 -25 458 -25 405 -25 c 0,41,42
 348 -25 348 -25 298.5 -9.5 c 128,-1,43
 249 6 249 6 212 38.5 c 128,-1,44
 175 71 175 71 154.5 122.5 c 128,-1,45
 134 174 134 174 134 247 c 2,46,-1
 134 598 l 2,47,48
 134 620 134 620 112 627 c 128,-1,49
 90 634 90 634 60 634 c 2,50,-1
 49 634 l 1,51,-1
 49 710 l 1,52,-1
 326 710 l 1,53,-1
 326 635 l 1,54,-1
 317 635 l 2,55,56
 304 635 304 635 289 634 c 128,-1,57
 274 633 274 633 261.5 631.5 c 128,-1,58
 249 630 249 630 241.5 628.5 c 128,-1,59
 234 627 234 627 234 624 c 2,60,-1
 234 258 l 2,10,11
EndSplineSet
EndChar

StartChar: Udieresiscaron
Encoding: 473 473 187
Width: 803
GlyphClass: 1
Flags: W
LayerCount: 2
Fore
SplineSet
377 987 m 1,0,-1
 450 987 l 1,1,-1
 580 1143 l 1,2,-1
 580 1163 l 1,3,-1
 530 1163 l 1,4,-1
 349 1020 l 1,5,-1
 483 1025 l 1,6,-1
 306 1163 l 1,7,-1
 246 1163 l 1,8,-1
 246 1143 l 1,9,-1
 377 987 l 1,0,-1
234 258 m 2,10,11
 234 202 234 202 247.5 163.5 c 128,-1,12
 261 125 261 125 284.5 102 c 128,-1,13
 308 79 308 79 340.5 68.5 c 128,-1,14
 373 58 373 58 412 58 c 0,15,16
 450 58 450 58 482 68.5 c 128,-1,17
 514 79 514 79 537.5 102 c 128,-1,18
 561 125 561 125 573 163.5 c 128,-1,19
 585 202 585 202 585 258 c 2,20,-1
 585 615 l 2,21,22
 585 620 585 620 577.5 623.5 c 128,-1,23
 570 627 570 627 558.5 629 c 128,-1,24
 547 631 547 631 534 632.5 c 128,-1,25
 521 634 521 634 510 634 c 2,26,-1
 501 634 l 1,27,-1
 501 710 l 1,28,-1
 753 710 l 1,29,-1
 753 634 l 1,30,-1
 742 634 l 2,31,32
 723 634 723 634 706 630 c 128,-1,33
 689 626 689 626 679 616 c 128,-1,34
 669 606 669 606 669 589 c 2,35,-1
 669 247 l 2,36,37
 669 175 669 175 648 123 c 128,-1,38
 627 71 627 71 590 38 c 128,-1,39
 553 5 553 5 505.5 -10 c 128,-1,40
 458 -25 458 -25 405 -25 c 0,41,42
 348 -25 348 -25 298.5 -9.5 c 128,-1,43
 249 6 249 6 212 38.5 c 128,-1,44
 175 71 175 71 154.5 122.5 c 128,-1,45
 134 174 134 174 134 247 c 2,46,-1
 134 598 l 2,47,48
 134 620 134 620 112 627 c 128,-1,49
 90 634 90 634 60 634 c 2,50,-1
 49 634 l 1,51,-1
 49 710 l 1,52,-1
 326 710 l 1,53,-1
 326 635 l 1,54,-1
 317 635 l 2,55,56
 304 635 304 635 289 634 c 128,-1,57
 274 633 274 633 261.5 631.5 c 128,-1,58
 249 630 249 630 241.5 628.5 c 128,-1,59
 234 627 234 627 234 624 c 2,60,-1
 234 258 l 2,10,11
358 883 m 0,61,62
 358 846 358 846 338 829.5 c 128,-1,63
 318 813 318 813 286 813 c 256,64,65
 254 813 254 813 234.5 829.5 c 128,-1,66
 215 846 215 846 215 883 c 0,67,68
 215 919 215 919 234.5 935.5 c 128,-1,69
 254 952 254 952 286 952 c 256,70,71
 318 952 318 952 338 935.5 c 128,-1,72
 358 919 358 919 358 883 c 0,61,62
610 883 m 0,73,74
 610 846 610 846 590 829.5 c 128,-1,75
 570 813 570 813 538 813 c 256,76,77
 506 813 506 813 486.5 829.5 c 128,-1,78
 467 846 467 846 467 883 c 0,79,80
 467 919 467 919 486.5 935.5 c 128,-1,81
 506 952 506 952 538 952 c 256,82,83
 570 952 570 952 590 935.5 c 128,-1,84
 610 919 610 919 610 883 c 0,73,74
EndSplineSet
EndChar

StartChar: Udblgrave
Encoding: 532 532 188
Width: 803
GlyphClass: 1
Flags: W
LayerCount: 2
Fore
SplineSet
491 928 m 2,0,-1
 536 826 l 1,1,-1
 536 793 l 1,2,-1
 494 793 l 1,3,-1
 423 855 l 2,4,5
 402 873 402 873 390.5 890 c 128,-1,6
 379 907 379 907 379 928 c 0,7,8
 379 946 379 946 392.5 959 c 128,-1,9
 406 972 406 972 429 972 c 0,10,11
 445 972 445 972 457 966 c 128,-1,12
 469 960 469 960 477.5 950 c 128,-1,13
 486 940 486 940 491 928 c 2,0,-1
298 928 m 2,14,-1
 340 826 l 1,15,-1
 340 793 l 1,16,-1
 298 793 l 1,17,-1
 227 855 l 2,18,19
 206 873 206 873 194.5 890 c 128,-1,20
 183 907 183 907 183 928 c 0,21,22
 183 946 183 946 197 959 c 128,-1,23
 211 972 211 972 233 972 c 0,24,25
 249 972 249 972 262 966 c 128,-1,26
 275 960 275 960 284 950 c 128,-1,27
 293 940 293 940 298 928 c 2,14,-1
234 258 m 2,28,29
 234 202 234 202 247.5 163.5 c 128,-1,30
 261 125 261 125 284.5 102 c 128,-1,31
 308 79 308 79 340.5 68.5 c 128,-1,32
 373 58 373 58 412 58 c 0,33,34
 450 58 450 58 482 68.5 c 128,-1,35
 514 79 514 79 537.5 102 c 128,-1,36
 561 125 561 125 573 163.5 c 128,-1,37
 585 202 585 202 585 258 c 2,38,-1
 585 615 l 2,39,40
 585 620 585 620 577.5 623.5 c 128,-1,41
 570 627 570 627 558.5 629 c 128,-1,42
 547 631 547 631 534 632.5 c 128,-1,43
 521 634 521 634 510 634 c 2,44,-1
 501 634 l 1,45,-1
 501 710 l 1,46,-1
 753 710 l 1,47,-1
 753 634 l 1,48,-1
 742 634 l 2,49,50
 723 634 723 634 706 630 c 128,-1,51
 689 626 689 626 679 616 c 128,-1,52
 669 606 669 606 669 589 c 2,53,-1
 669 247 l 2,54,55
 669 175 669 175 648 123 c 128,-1,56
 627 71 627 71 590 38 c 128,-1,57
 553 5 553 5 505.5 -10 c 128,-1,58
 458 -25 458 -25 405 -25 c 0,59,60
 348 -25 348 -25 298.5 -9.5 c 128,-1,61
 249 6 249 6 212 38.5 c 128,-1,62
 175 71 175 71 154.5 122.5 c 128,-1,63
 134 174 134 174 134 247 c 2,64,-1
 134 598 l 2,65,66
 134 620 134 620 112 627 c 128,-1,67
 90 634 90 634 60 634 c 2,68,-1
 49 634 l 1,69,-1
 49 710 l 1,70,-1
 326 710 l 1,71,-1
 326 635 l 1,72,-1
 317 635 l 2,73,74
 304 635 304 635 289 634 c 128,-1,75
 274 633 274 633 261.5 631.5 c 128,-1,76
 249 630 249 630 241.5 628.5 c 128,-1,77
 234 627 234 627 234 624 c 2,78,-1
 234 258 l 2,28,29
EndSplineSet
EndChar

StartChar: Uinvertedbreve
Encoding: 534 534 189
Width: 803
GlyphClass: 1
Flags: W
LayerCount: 2
Fore
SplineSet
401 928 m 0,0,1
 346 928 346 928 307.5 911.5 c 128,-1,2
 269 895 269 895 248.5 858 c 128,-1,3
 228 821 228 821 227 759 c 1,4,-1
 300 759 l 1,5,6
 302 796 302 796 311.5 815 c 128,-1,7
 321 834 321 834 342.5 841 c 128,-1,8
 364 848 364 848 401 848 c 0,9,10
 436 848 436 848 456.5 841 c 128,-1,11
 477 834 477 834 486.5 815 c 128,-1,12
 496 796 496 796 498 759 c 1,13,-1
 577 759 l 1,14,15
 576 821 576 821 554 858 c 128,-1,16
 532 895 532 895 493.5 911.5 c 128,-1,17
 455 928 455 928 401 928 c 0,0,1
234 258 m 2,18,19
 234 202 234 202 247.5 163.5 c 128,-1,20
 261 125 261 125 284.5 102 c 128,-1,21
 308 79 308 79 340.5 68.5 c 128,-1,22
 373 58 373 58 412 58 c 0,23,24
 450 58 450 58 482 68.5 c 128,-1,25
 514 79 514 79 537.5 102 c 128,-1,26
 561 125 561 125 573 163.5 c 128,-1,27
 585 202 585 202 585 258 c 2,28,-1
 585 615 l 2,29,30
 585 620 585 620 577.5 623.5 c 128,-1,31
 570 627 570 627 558.5 629 c 128,-1,32
 547 631 547 631 534 632.5 c 128,-1,33
 521 634 521 634 510 634 c 2,34,-1
 501 634 l 1,35,-1
 501 710 l 1,36,-1
 753 710 l 1,37,-1
 753 634 l 1,38,-1
 742 634 l 2,39,40
 723 634 723 634 706 630 c 128,-1,41
 689 626 689 626 679 616 c 128,-1,42
 669 606 669 606 669 589 c 2,43,-1
 669 247 l 2,44,45
 669 175 669 175 648 123 c 128,-1,46
 627 71 627 71 590 38 c 128,-1,47
 553 5 553 5 505.5 -10 c 128,-1,48
 458 -25 458 -25 405 -25 c 0,49,50
 348 -25 348 -25 298.5 -9.5 c 128,-1,51
 249 6 249 6 212 38.5 c 128,-1,52
 175 71 175 71 154.5 122.5 c 128,-1,53
 134 174 134 174 134 247 c 2,54,-1
 134 598 l 2,55,56
 134 620 134 620 112 627 c 128,-1,57
 90 634 90 634 60 634 c 2,58,-1
 49 634 l 1,59,-1
 49 710 l 1,60,-1
 326 710 l 1,61,-1
 326 635 l 1,62,-1
 317 635 l 2,63,64
 304 635 304 635 289 634 c 128,-1,65
 274 633 274 633 261.5 631.5 c 128,-1,66
 249 630 249 630 241.5 628.5 c 128,-1,67
 234 627 234 627 234 624 c 2,68,-1
 234 258 l 2,18,19
EndSplineSet
EndChar

StartChar: V
Encoding: 86 86 199
Width: 729
GlyphClass: 2
Flags: W
AnchorPoint: "Anchor-0" 360 741 basechar 0
LayerCount: 2
Fore
SplineSet
386 27 m 1,0,-1
 363 40 l 1,1,-1
 556 611 l 2,2,3
 556 618 556 618 546 623 c 128,-1,4
 536 628 536 628 518 631 c 128,-1,5
 500 634 500 634 477 634 c 2,6,-1
 465 634 l 1,7,-1
 465 710 l 1,8,-1
 709 710 l 1,9,-1
 709 634 l 1,10,-1
 703 634 l 2,11,12
 680 634 680 634 661 622 c 128,-1,13
 642 610 642 610 628 570 c 2,14,-1
 429 -12 l 1,15,-1
 303 -12 l 1,16,-1
 100 570 l 2,17,18
 87 610 87 610 68 622 c 128,-1,19
 49 634 49 634 25 634 c 2,20,-1
 20 634 l 1,21,-1
 20 710 l 1,22,-1
 282 710 l 1,23,-1
 282 634 l 1,24,-1
 270 634 l 2,25,26
 243 634 243 634 224 632.5 c 128,-1,27
 205 631 205 631 194.5 629 c 128,-1,28
 184 627 184 627 184 623 c 2,29,-1
 386 27 l 1,0,-1
EndSplineSet
EndChar

StartChar: W
Encoding: 87 87 200
Width: 1014
GlyphClass: 2
Flags: W
AnchorPoint: "Anchor-0" 521 741 basechar 0
LayerCount: 2
Fore
SplineSet
20 710 m 1,0,-1
 268 710 l 1,1,-1
 268 634 l 1,2,-1
 251 634 l 2,3,4
 239 634 239 634 222.5 632.5 c 128,-1,5
 206 631 206 631 194.5 629 c 128,-1,6
 183 627 183 627 183 623 c 2,7,-1
 329 47 l 1,8,-1
 290 47 l 1,9,-1
 464 710 l 1,10,-1
 574 710 l 1,11,-1
 747 50 l 1,12,-1
 711 50 l 1,13,-1
 854 610 l 2,14,15
 854 617 854 617 844 622.5 c 128,-1,16
 834 628 834 628 820 631 c 128,-1,17
 806 634 806 634 794 634 c 2,18,-1
 780 634 l 1,19,-1
 780 710 l 1,20,-1
 995 710 l 1,21,-1
 995 634 l 1,22,-1
 988 634 l 2,23,24
 967 634 967 634 950.5 623 c 128,-1,25
 934 612 934 612 927 588 c 2,26,-1
 776 -1 l 1,27,-1
 668 -1 l 1,28,-1
 491 656 l 1,29,-1
 528 657 l 1,30,-1
 358 -1 l 1,31,-1
 250 -1 l 1,32,-1
 89 598 l 2,33,34
 82 624 82 624 66.5 629 c 128,-1,35
 51 634 51 634 27 634 c 2,36,-1
 20 634 l 1,37,-1
 20 710 l 1,0,-1
EndSplineSet
EndChar

StartChar: X
Encoding: 88 88 205
Width: 744
GlyphClass: 2
Flags: W
AnchorPoint: "Anchor-1" 355 0 basechar 0
AnchorPoint: "Anchor-0" 378 741 basechar 0
LayerCount: 2
Fore
SplineSet
42 634 m 1,0,-1
 42 710 l 1,1,-1
 315 710 l 1,2,-1
 315 634 l 1,3,-1
 299 634 l 2,4,5
 281 634 281 634 265 633 c 128,-1,6
 249 632 249 632 238.5 630.5 c 128,-1,7
 228 629 228 629 228 625 c 2,8,-1
 405 391 l 1,9,-1
 415 388 l 1,10,-1
 623 110 l 2,11,12
 641 88 641 88 657.5 82 c 128,-1,13
 674 76 674 76 695 76 c 2,14,-1
 715 76 l 1,15,-1
 715 0 l 1,16,-1
 436 0 l 1,17,-1
 436 76 l 1,18,-1
 452 76 l 2,19,20
 470 76 470 76 486.5 77 c 128,-1,21
 503 78 503 78 513.5 80.5 c 128,-1,22
 524 83 524 83 524 85 c 2,23,-1
 334 339 l 1,24,-1
 324 342 l 1,25,-1
 129 600 l 2,26,27
 112 623 112 623 94.5 628.5 c 128,-1,28
 77 634 77 634 56 634 c 2,29,-1
 42 634 l 1,0,-1
29 0 m 1,30,-1
 29 76 l 1,31,-1
 48 76 l 2,32,33
 68 76 68 76 85 85.5 c 128,-1,34
 102 95 102 95 121 122 c 2,35,-1
 313 379 l 1,36,-1
 374 335 l 1,37,-1
 195 93 l 2,38,39
 195 89 195 89 206 85 c 128,-1,40
 217 81 217 81 232.5 78.5 c 128,-1,41
 248 76 248 76 262 76 c 2,42,-1
 280 76 l 1,43,-1
 280 0 l 1,44,-1
 29 0 l 1,30,-1
428 355 m 1,45,-1
 366 396 l 1,46,-1
 536 617 l 2,47,48
 536 623 536 623 524.5 626.5 c 128,-1,49
 513 630 513 630 497.5 632 c 128,-1,50
 482 634 482 634 467 634 c 2,51,-1
 453 634 l 1,52,-1
 453 710 l 1,53,-1
 700 710 l 1,54,-1
 700 634 l 1,55,-1
 686 634 l 2,56,57
 666 634 666 634 648.5 625.5 c 128,-1,58
 631 617 631 617 609 589 c 2,59,-1
 428 355 l 1,45,-1
EndSplineSet
EndChar

StartChar: Y
Encoding: 89 89 206
Width: 696
GlyphClass: 2
Flags: W
AnchorPoint: "Anchor-1" 352 0 basechar 0
AnchorPoint: "Anchor-0" 352 741 basechar 0
LayerCount: 2
Fore
SplineSet
301 306 m 1,0,-1
 308 263 l 1,1,-1
 105 598 l 2,2,3
 96 613 96 613 86.5 621 c 128,-1,4
 77 629 77 629 66 631.5 c 128,-1,5
 55 634 55 634 41 634 c 2,6,-1
 28 634 l 1,7,-1
 28 710 l 1,8,-1
 273 710 l 1,9,-1
 273 634 l 1,10,-1
 257 634 l 2,11,12
 242 634 242 634 227.5 632.5 c 128,-1,13
 213 631 213 631 203.5 629 c 128,-1,14
 194 627 194 627 194 623 c 2,15,-1
 381 306 l 1,16,-1
 342 306 l 1,17,-1
 513 611 l 2,18,19
 513 618 513 618 503 623 c 128,-1,20
 493 628 493 628 480 631 c 128,-1,21
 467 634 467 634 456 634 c 2,22,-1
 445 634 l 1,23,-1
 445 710 l 1,24,-1
 667 710 l 1,25,-1
 667 634 l 1,26,-1
 654 634 l 2,27,28
 642 634 642 634 630.5 629.5 c 128,-1,29
 619 625 619 625 607.5 614.5 c 128,-1,30
 596 604 596 604 585 586 c 2,31,-1
 394 263 l 1,32,-1
 401 306 l 1,33,-1
 401 112 l 2,34,35
 401 90 401 90 424.5 83 c 128,-1,36
 448 76 448 76 481 76 c 2,37,-1
 501 76 l 1,38,-1
 501 0 l 1,39,-1
 200 0 l 1,40,-1
 200 76 l 1,41,-1
 221 76 l 2,42,43
 255 76 255 76 278 83 c 128,-1,44
 301 90 301 90 301 112 c 2,45,-1
 301 306 l 1,0,-1
EndSplineSet
EndChar

StartChar: Z
Encoding: 90 90 216
Width: 661
GlyphClass: 2
Flags: W
AnchorPoint: "Anchor-1" 350 0 basechar 0
AnchorPoint: "Anchor-0" 350 741 basechar 0
LayerCount: 2
Fore
SplineSet
269 635 m 2,0,1
 238 635 238 635 218 633 c 128,-1,2
 198 631 198 631 187 626 c 128,-1,3
 176 621 176 621 171 612.5 c 128,-1,4
 166 604 166 604 164 590 c 2,5,-1
 151 504 l 1,6,-1
 77 504 l 1,7,-1
 77 710 l 1,8,-1
 584 710 l 1,9,-1
 584 628 l 1,10,-1
 134 21 l 1,11,-1
 117 75 l 1,12,-1
 404 75 l 2,13,14
 445 75 445 75 467 78.5 c 128,-1,15
 489 82 489 82 498 92 c 128,-1,16
 507 102 507 102 509 120 c 2,17,-1
 523 230 l 1,18,-1
 599 230 l 1,19,-1
 599 0 l 1,20,-1
 63 0 l 1,21,-1
 63 85 l 1,22,-1
 500 677 l 1,23,-1
 522 635 l 1,24,-1
 269 635 l 2,0,1
EndSplineSet
EndChar

StartChar: Zcaron
Encoding: 381 381 219
Width: 661
GlyphClass: 1
Flags: W
LayerCount: 2
Fore
SplineSet
289 805 m 1,0,-1
 362 805 l 1,1,-1
 492 961 l 1,2,-1
 492 981 l 1,3,-1
 442 981 l 1,4,-1
 261 838 l 1,5,-1
 395 843 l 1,6,-1
 218 981 l 1,7,-1
 158 981 l 1,8,-1
 158 961 l 1,9,-1
 289 805 l 1,0,-1
269 635 m 2,10,11
 238 635 238 635 218 633 c 128,-1,12
 198 631 198 631 187 626 c 128,-1,13
 176 621 176 621 171 612.5 c 128,-1,14
 166 604 166 604 164 590 c 2,15,-1
 151 504 l 1,16,-1
 77 504 l 1,17,-1
 77 710 l 1,18,-1
 584 710 l 1,19,-1
 584 628 l 1,20,-1
 134 21 l 1,21,-1
 117 75 l 1,22,-1
 404 75 l 2,23,24
 445 75 445 75 467 78.5 c 128,-1,25
 489 82 489 82 498 92 c 128,-1,26
 507 102 507 102 509 120 c 2,27,-1
 523 230 l 1,28,-1
 599 230 l 1,29,-1
 599 0 l 1,30,-1
 63 0 l 1,31,-1
 63 85 l 1,32,-1
 500 677 l 1,33,-1
 522 635 l 1,34,-1
 269 635 l 2,10,11
EndSplineSet
EndChar

StartChar: AE
Encoding: 198 198 221
Width: 1066
GlyphClass: 2
Flags: W
AnchorPoint: "Anchor-0" 658 741 basechar 0
LayerCount: 2
Fore
SplineSet
237 301 m 1,0,-1
 559 301 l 1,1,-1
 577 226 l 1,2,-1
 218 226 l 1,3,-1
 237 301 l 1,0,-1
602 401 m 1,4,5
 647 403 647 403 692.5 405 c 128,-1,6
 738 407 738 407 785 409.5 c 128,-1,7
 832 412 832 412 880 416 c 1,8,-1
 880 314 l 1,9,10
 834 316 834 316 787.5 318.5 c 128,-1,11
 741 321 741 321 695 324 c 128,-1,12
 649 327 649 327 602 329 c 1,13,-1
 602 401 l 1,4,5
435 0 m 1,14,-1
 435 76 l 1,15,-1
 442 76 l 2,16,17
 468 76 468 76 486 79 c 128,-1,18
 504 82 504 82 513 88 c 128,-1,19
 522 94 522 94 522 101 c 2,20,-1
 522 657 l 1,21,-1
 501 642 l 1,22,-1
 175 99 l 2,23,24
 175 93 175 93 182.5 87.5 c 128,-1,25
 190 82 190 82 206 79 c 128,-1,26
 222 76 222 76 249 76 c 2,27,-1
 259 76 l 1,28,-1
 259 0 l 1,29,-1
 5 0 l 1,30,-1
 5 76 l 1,31,-1
 11 76 l 2,32,33
 31 76 31 76 46.5 82.5 c 128,-1,34
 62 89 62 89 76 103 c 128,-1,35
 90 117 90 117 104 140 c 2,36,-1
 381 602 l 1,37,38
 381 617 381 617 375 623.5 c 128,-1,39
 369 630 369 630 355.5 632 c 128,-1,40
 342 634 342 634 318 634 c 2,41,-1
 307 634 l 1,42,-1
 307 710 l 1,43,-1
 976 710 l 1,44,-1
 976 509 l 1,45,-1
 902 509 l 1,46,-1
 890 590 l 2,47,48
 887 608 887 608 874.5 617.5 c 128,-1,49
 862 627 862 627 836.5 631 c 128,-1,50
 811 635 811 635 770 635 c 2,51,-1
 622 635 l 1,52,-1
 622 75 l 1,53,-1
 786 75 l 2,54,55
 817 75 817 75 839 77 c 128,-1,56
 861 79 861 79 875 84 c 128,-1,57
 889 89 889 89 896 98 c 128,-1,58
 903 107 903 107 905 120 c 2,59,-1
 919 226 l 1,60,-1
 995 226 l 1,61,-1
 995 0 l 1,62,-1
 435 0 l 1,14,-1
EndSplineSet
EndChar

StartChar: Eth
Encoding: 208 208 223
Width: 784
GlyphClass: 1
Flags: W
LayerCount: 2
Fore
SplineSet
48 398 m 1,0,-1
 443 398 l 1,1,-1
 443 323 l 1,2,-1
 48 323 l 1,3,-1
 48 398 l 1,0,-1
58 634 m 1,4,-1
 58 710 l 1,5,-1
 355 710 l 2,6,7
 442 710 442 710 511 688.5 c 128,-1,8
 580 667 580 667 627.5 623.5 c 128,-1,9
 675 580 675 580 699.5 514 c 128,-1,10
 724 448 724 448 724 359 c 0,11,12
 724 271 724 271 699.5 203.5 c 128,-1,13
 675 136 675 136 627.5 91 c 128,-1,14
 580 46 580 46 511 23 c 128,-1,15
 442 0 442 0 355 0 c 2,16,-1
 58 0 l 1,17,-1
 58 76 l 1,18,-1
 69 76 l 2,19,20
 98 76 98 76 120 83 c 128,-1,21
 142 90 142 90 142 112 c 2,22,-1
 142 598 l 2,23,24
 142 620 142 620 120 627 c 128,-1,25
 98 634 98 634 69 634 c 2,26,-1
 58 634 l 1,4,-1
354 635 m 2,27,-1
 242 635 l 1,28,-1
 242 75 l 1,29,-1
 354 75 l 2,30,31
 421 75 421 75 470.5 92.5 c 128,-1,32
 520 110 520 110 553 145 c 128,-1,33
 586 180 586 180 601.5 233.5 c 128,-1,34
 617 287 617 287 617 359 c 256,35,36
 617 431 617 431 601.5 483 c 128,-1,37
 586 535 586 535 553 568.5 c 128,-1,38
 520 602 520 602 470.5 618.5 c 128,-1,39
 421 635 421 635 354 635 c 2,27,-1
EndSplineSet
EndChar

StartChar: Oslash
Encoding: 216 216 224
Width: 799
GlyphClass: 2
Flags: W
AnchorPoint: "Anchor-0" 398 731 basechar 0
LayerCount: 2
Fore
SplineSet
399 657 m 0,0,1
 342 657 342 657 298.5 639 c 128,-1,2
 255 621 255 621 225.5 583.5 c 128,-1,3
 196 546 196 546 181 489 c 128,-1,4
 166 432 166 432 166 355 c 0,5,6
 166 272 166 272 181 214 c 128,-1,7
 196 156 196 156 225 120.5 c 128,-1,8
 254 85 254 85 298 69 c 128,-1,9
 342 53 342 53 399 53 c 0,10,11
 457 53 457 53 500.5 71 c 128,-1,12
 544 89 544 89 573 126.5 c 128,-1,13
 602 164 602 164 617 220.5 c 128,-1,14
 632 277 632 277 632 355 c 0,15,16
 632 438 632 438 617.5 496 c 128,-1,17
 603 554 603 554 574 589.5 c 128,-1,18
 545 625 545 625 501 641 c 128,-1,19
 457 657 457 657 399 657 c 0,0,1
399 -25 m 0,20,21
 323 -25 323 -25 260.5 1.5 c 128,-1,22
 198 28 198 28 153 78 c 128,-1,23
 108 128 108 128 84 198.5 c 128,-1,24
 60 269 60 269 60 355 c 0,25,26
 60 448 60 448 84.5 518.5 c 128,-1,27
 109 589 109 589 154 637.5 c 128,-1,28
 199 686 199 686 261.5 710.5 c 128,-1,29
 324 735 324 735 399 735 c 0,30,31
 476 735 476 735 538.5 708.5 c 128,-1,32
 601 682 601 682 645.5 632 c 128,-1,33
 690 582 690 582 714.5 512 c 128,-1,34
 739 442 739 442 739 355 c 0,35,36
 739 263 739 263 714.5 192 c 128,-1,37
 690 121 690 121 645.5 72.5 c 128,-1,38
 601 24 601 24 538.5 -0.5 c 128,-1,39
 476 -25 476 -25 399 -25 c 0,20,21
0 -24 m 1,40,-1
 709 734 l 1,41,-1
 799 734 l 1,42,-1
 89 -24 l 1,43,-1
 0 -24 l 1,40,-1
EndSplineSet
EndChar

StartChar: Thorn
Encoding: 222 222 226
Width: 701
GlyphClass: 1
Flags: W
LayerCount: 2
Fore
SplineSet
352 710 m 1,0,-1
 58 710 l 1,1,-1
 58 634 l 1,2,-1
 69 634 l 2,3,4
 104 634 104 634 123 627 c 128,-1,5
 142 620 142 620 142 598 c 2,6,-1
 142 112 l 2,7,8
 142 90 142 90 123 83 c 128,-1,9
 104 76 104 76 69 76 c 2,10,-1
 58 76 l 1,11,-1
 58 0 l 1,12,-1
 352 0 l 1,13,-1
 352 75 l 1,14,-1
 333 75 l 2,15,16
 316 75 316 75 299.5 76 c 128,-1,17
 283 77 283 77 270.5 78.5 c 128,-1,18
 258 80 258 80 250 81.5 c 128,-1,19
 242 83 242 83 242 85 c 2,20,-1
 242 625 l 2,21,22
 242 627 242 627 250 628.5 c 128,-1,23
 258 630 258 630 270.5 631.5 c 128,-1,24
 283 633 283 633 299.5 633.5 c 128,-1,25
 316 634 316 634 333 634 c 2,26,-1
 352 634 l 1,27,-1
 352 710 l 1,0,-1
643 367 m 0,28,29
 643 431 643 431 614 472.5 c 128,-1,30
 585 514 585 514 531.5 534 c 128,-1,31
 478 554 478 554 404 554 c 2,32,-1
 215 554 l 1,33,-1
 215 478 l 1,34,-1
 402 478 l 2,35,36
 450 478 450 478 480 466.5 c 128,-1,37
 510 455 510 455 523.5 430.5 c 128,-1,38
 537 406 537 406 537 366 c 256,39,40
 537 326 537 326 523.5 300 c 128,-1,41
 510 274 510 274 480 262 c 128,-1,42
 450 250 450 250 402 250 c 2,43,-1
 215 250 l 1,44,-1
 215 174 l 1,45,-1
 403 174 l 2,46,47
 474 174 474 174 528 196 c 128,-1,48
 582 218 582 218 612.5 261 c 128,-1,49
 643 304 643 304 643 367 c 0,28,29
EndSplineSet
EndChar

StartChar: Hbar
Encoding: 294 294 228
Width: 841
GlyphClass: 1
Flags: W
LayerCount: 2
Fore
SplineSet
220 373 m 1,0,-1
 620 373 l 1,1,-1
 620 305 l 1,2,-1
 220 305 l 1,3,-1
 220 373 l 1,0,-1
57 0 m 1,4,-1
 57 76 l 1,5,-1
 68 76 l 2,6,7
 97 76 97 76 119.5 83 c 128,-1,8
 142 90 142 90 142 112 c 2,9,-1
 142 598 l 2,10,11
 142 620 142 620 119.5 627 c 128,-1,12
 97 634 97 634 68 634 c 2,13,-1
 57 634 l 1,14,-1
 57 710 l 1,15,-1
 333 710 l 1,16,-1
 333 635 l 1,17,-1
 325 635 l 2,18,19
 311 635 311 635 296.5 634 c 128,-1,20
 282 633 282 633 269.5 631.5 c 128,-1,21
 257 630 257 630 249.5 628.5 c 128,-1,22
 242 627 242 627 242 625 c 2,23,-1
 242 85 l 2,24,25
 242 82 242 82 249.5 81 c 128,-1,26
 257 80 257 80 269.5 78.5 c 128,-1,27
 282 77 282 77 296.5 76.5 c 128,-1,28
 311 76 311 76 325 76 c 2,29,-1
 333 76 l 1,30,-1
 333 0 l 1,31,-1
 57 0 l 1,4,-1
508 0 m 1,32,-1
 508 75 l 1,33,-1
 517 75 l 2,34,35
 530 75 530 75 544.5 76 c 128,-1,36
 559 77 559 77 571.5 78.5 c 128,-1,37
 584 80 584 80 592 81.5 c 128,-1,38
 600 83 600 83 600 85 c 2,39,-1
 600 625 l 2,40,41
 600 628 600 628 592 629 c 128,-1,42
 584 630 584 630 571.5 631.5 c 128,-1,43
 559 633 559 633 544.5 633.5 c 128,-1,44
 530 634 530 634 517 634 c 2,45,-1
 508 634 l 1,46,-1
 508 710 l 1,47,-1
 784 710 l 1,48,-1
 784 634 l 1,49,-1
 773 634 l 2,50,51
 744 634 744 634 721.5 627 c 128,-1,52
 699 620 699 620 699 598 c 2,53,-1
 699 112 l 2,54,55
 699 90 699 90 721.5 83 c 128,-1,56
 744 76 744 76 773 76 c 2,57,-1
 784 76 l 1,58,-1
 784 0 l 1,59,-1
 508 0 l 1,32,-1
48 474 m 1,60,-1
 48 541 l 1,61,-1
 793 541 l 1,62,-1
 793 474 l 1,63,-1
 48 474 l 1,60,-1
EndSplineSet
EndChar

StartChar: Ldot
Encoding: 319 319 230
Width: 642
GlyphClass: 1
Flags: W
LayerCount: 2
Fore
SplineSet
345 710 m 1,0,-1
 58 710 l 1,1,-1
 58 634 l 1,2,-1
 69 634 l 2,3,4
 98 634 98 634 120 627 c 128,-1,5
 142 620 142 620 142 598 c 2,6,-1
 142 112 l 2,7,8
 142 90 142 90 120 83 c 128,-1,9
 98 76 98 76 69 76 c 2,10,-1
 58 76 l 1,11,-1
 58 0 l 1,12,-1
 593 0 l 1,13,-1
 593 221 l 1,14,-1
 517 221 l 1,15,-1
 503 120 l 2,16,17
 501 102 501 102 488 92 c 128,-1,18
 475 82 475 82 449.5 78.5 c 128,-1,19
 424 75 424 75 383 75 c 2,20,-1
 242 75 l 1,21,-1
 242 598 l 2,22,23
 242 620 242 620 267 627 c 128,-1,24
 292 634 292 634 329 634 c 2,25,-1
 345 634 l 1,26,-1
 345 710 l 1,0,-1
530 343 m 0,27,28
 491 343 491 343 465 367 c 128,-1,29
 439 391 439 391 439 430 c 256,30,31
 439 469 439 469 465 492.5 c 128,-1,32
 491 516 491 516 530 516 c 0,33,34
 571 516 571 516 597 492.5 c 128,-1,35
 623 469 623 469 623 430 c 256,36,37
 623 391 623 391 597 367 c 128,-1,38
 571 343 571 343 530 343 c 0,27,28
EndSplineSet
Ligature2: "Ligature Substitution lookup 5 subtable" L periodcentered
EndChar

StartChar: Lslash
Encoding: 321 321 231
Width: 642
GlyphClass: 1
Flags: W
LayerCount: 2
Fore
SplineSet
30 182 m 1,0,-1
 502 471 l 1,1,-1
 502 552 l 1,2,-1
 30 263 l 1,3,-1
 30 182 l 1,0,-1
345 710 m 1,4,-1
 58 710 l 1,5,-1
 58 634 l 1,6,-1
 69 634 l 2,7,8
 98 634 98 634 120 627 c 128,-1,9
 142 620 142 620 142 598 c 2,10,-1
 142 112 l 2,11,12
 142 90 142 90 120 83 c 128,-1,13
 98 76 98 76 69 76 c 2,14,-1
 58 76 l 1,15,-1
 58 0 l 1,16,-1
 593 0 l 1,17,-1
 593 235 l 1,18,-1
 517 235 l 1,19,-1
 503 120 l 2,20,21
 501 102 501 102 488.5 92 c 128,-1,22
 476 82 476 82 450 78.5 c 128,-1,23
 424 75 424 75 383 75 c 2,24,-1
 242 75 l 1,25,-1
 242 598 l 2,26,27
 242 620 242 620 267 627 c 128,-1,28
 292 634 292 634 329 634 c 2,29,-1
 345 634 l 1,30,-1
 345 710 l 1,4,-1
EndSplineSet
EndChar

StartChar: Eng
Encoding: 330 330 232
Width: 817
GlyphClass: 1
Flags: W
LayerCount: 2
Fore
SplineSet
685 -15 m 2,0,1
 685 -78 685 -78 667.5 -123 c 128,-1,2
 650 -168 650 -168 618.5 -196 c 128,-1,3
 587 -224 587 -224 545.5 -237 c 128,-1,4
 504 -250 504 -250 454 -250 c 0,5,6
 413 -250 413 -250 384 -244.5 c 128,-1,7
 355 -239 355 -239 337 -231 c 1,8,-1
 337 -148 l 1,9,10
 351 -154 351 -154 368 -159 c 128,-1,11
 385 -164 385 -164 406.5 -167 c 128,-1,12
 428 -170 428 -170 451 -170 c 0,13,14
 502 -170 502 -170 535 -155.5 c 128,-1,15
 568 -141 568 -141 584.5 -105 c 128,-1,16
 601 -69 601 -69 601 -4 c 2,17,-1
 601 64 l 1,18,-1
 620 -34 l 1,19,-1
 196 668 l 1,20,-1
 228 670 l 1,21,-1
 228 86 l 2,22,23
 228 83 228 83 239 80.5 c 128,-1,24
 250 78 250 78 266.5 77 c 128,-1,25
 283 76 283 76 299 76 c 2,26,-1
 312 76 l 1,27,-1
 312 0 l 1,28,-1
 59 0 l 1,29,-1
 59 76 l 1,30,-1
 70 76 l 2,31,32
 94 76 94 76 110 79 c 128,-1,33
 126 82 126 82 135 90 c 128,-1,34
 144 98 144 98 144 112 c 2,35,-1
 144 598 l 2,36,37
 144 613 144 613 135 620.5 c 128,-1,38
 126 628 126 628 110 631 c 128,-1,39
 94 634 94 634 70 634 c 2,40,-1
 59 634 l 1,41,-1
 59 710 l 1,42,-1
 279 710 l 1,43,-1
 655 81 l 1,44,-1
 600 83 l 1,45,-1
 600 624 l 2,46,47
 600 628 600 628 589 630 c 128,-1,48
 578 632 578 632 562 633 c 128,-1,49
 546 634 546 634 530 634 c 2,50,-1
 517 634 l 1,51,-1
 517 710 l 1,52,-1
 769 710 l 1,53,-1
 769 634 l 1,54,-1
 759 634 l 2,55,56
 736 634 736 634 719 631 c 128,-1,57
 702 628 702 628 693.5 620.5 c 128,-1,58
 685 613 685 613 685 598 c 2,59,-1
 685 -15 l 2,0,1
EndSplineSet
Substitution2: "'ss07' Style Set 7 lookup 67 subtable" Eng.afr
EndChar

StartChar: OE
Encoding: 338 338 233
Width: 1078
GlyphClass: 1
Flags: W
LayerCount: 2
Fore
SplineSet
615 400 m 1,0,1
 661 403 661 403 707.5 405.5 c 128,-1,2
 754 408 754 408 800 410.5 c 128,-1,3
 846 413 846 413 892 415 c 1,4,-1
 892 315 l 1,5,6
 846 318 846 318 800 320.5 c 128,-1,7
 754 323 754 323 707.5 325.5 c 128,-1,8
 661 328 661 328 615 330 c 1,9,-1
 615 400 l 1,0,1
427 75 m 2,10,-1
 535 75 l 1,11,-1
 535 635 l 1,12,-1
 427 635 l 2,13,14
 361 635 361 635 312 618.5 c 128,-1,15
 263 602 263 602 231 568 c 128,-1,16
 199 534 199 534 182.5 480 c 128,-1,17
 166 426 166 426 166 351 c 256,18,19
 166 276 166 276 182.5 223.5 c 128,-1,20
 199 171 199 171 231 138.5 c 128,-1,21
 263 106 263 106 312 90.5 c 128,-1,22
 361 75 361 75 427 75 c 2,10,-1
426 0 m 2,23,24
 339 0 339 0 271 21.5 c 128,-1,25
 203 43 203 43 155.5 86.5 c 128,-1,26
 108 130 108 130 84 196 c 128,-1,27
 60 262 60 262 60 351 c 256,28,29
 60 440 60 440 84 507 c 128,-1,30
 108 574 108 574 155.5 619 c 128,-1,31
 203 664 203 664 271 687 c 128,-1,32
 339 710 339 710 426 710 c 2,33,-1
 988 710 l 1,34,-1
 988 509 l 1,35,-1
 914 509 l 1,36,-1
 902 590 l 2,37,38
 901 608 901 608 890.5 617.5 c 128,-1,39
 880 627 880 627 857 631 c 128,-1,40
 834 635 834 635 793 635 c 2,41,-1
 635 635 l 1,42,-1
 635 75 l 1,43,-1
 808 75 l 2,44,45
 839 75 839 75 859.5 77 c 128,-1,46
 880 79 880 79 892 84 c 128,-1,47
 904 89 904 89 910 98 c 128,-1,48
 916 107 916 107 917 120 c 2,49,-1
 931 226 l 1,50,-1
 1007 226 l 1,51,-1
 1007 0 l 1,52,-1
 426 0 l 2,23,24
EndSplineSet
EndChar

StartChar: Tbar
Encoding: 358 358 234
Width: 713
GlyphClass: 1
Flags: W
LayerCount: 2
Fore
SplineSet
131 342 m 1,0,-1
 580 342 l 1,1,-1
 580 268 l 1,2,-1
 131 268 l 1,3,-1
 131 342 l 1,0,-1
307 112 m 2,4,-1
 307 635 l 1,5,-1
 246 635 l 2,6,7
 203 635 203 635 180.5 628.5 c 128,-1,8
 158 622 158 622 149 609.5 c 128,-1,9
 140 597 140 597 138 577 c 2,10,-1
 126 471 l 1,11,-1
 53 471 l 1,12,-1
 53 710 l 1,13,-1
 661 710 l 1,14,-1
 661 471 l 1,15,-1
 587 471 l 1,16,-1
 576 577 l 2,17,18
 574 597 574 597 565 609.5 c 128,-1,19
 556 622 556 622 533 628.5 c 128,-1,20
 510 635 510 635 467 635 c 2,21,-1
 407 635 l 1,22,-1
 407 112 l 2,23,24
 407 90 407 90 432 83 c 128,-1,25
 457 76 457 76 489 76 c 2,26,-1
 508 76 l 1,27,-1
 508 0 l 1,28,-1
 205 0 l 1,29,-1
 205 76 l 1,30,-1
 224 76 l 2,31,32
 257 76 257 76 282 83 c 128,-1,33
 307 90 307 90 307 112 c 2,4,-1
EndSplineSet
EndChar

StartChar: Bhook
Encoding: 385 385 235
Width: 762
GlyphClass: 2
Flags: W
AnchorPoint: "Anchor-1" 412 0 basechar 0
AnchorPoint: "Anchor-0" 381 741 basechar 0
LayerCount: 2
Fore
SplineSet
265 408 m 1,0,-1
 444 408 l 2,1,2
 487 408 487 408 513 421 c 128,-1,3
 539 434 539 434 551 460.5 c 128,-1,4
 563 487 563 487 563 527 c 0,5,6
 563 561 563 561 551.5 585 c 128,-1,7
 540 609 540 609 514 622 c 128,-1,8
 488 635 488 635 445 635 c 2,9,-1
 306 635 l 1,10,-1
 306 75 l 1,11,-1
 454 75 l 2,12,13
 503 75 503 75 533 90 c 128,-1,14
 563 105 563 105 577 133.5 c 128,-1,15
 591 162 591 162 591 203 c 0,16,17
 591 245 591 245 576 274.5 c 128,-1,18
 561 304 561 304 528.5 320 c 128,-1,19
 496 336 496 336 444 336 c 2,20,-1
 265 336 l 1,21,-1
 265 408 l 1,0,-1
187 710 m 2,22,-1
 449 710 l 2,23,24
 501 710 501 710 541.5 699 c 128,-1,25
 582 688 582 688 609.5 665.5 c 128,-1,26
 637 643 637 643 651.5 609.5 c 128,-1,27
 666 576 666 576 666 531 c 0,28,29
 666 487 666 487 645.5 451.5 c 128,-1,30
 625 416 625 416 584 395.5 c 128,-1,31
 543 375 543 375 481 375 c 1,32,-1
 491 391 l 1,33,-1
 491 352 l 1,34,-1
 481 371 l 1,35,36
 552 368 552 368 599.5 346.5 c 128,-1,37
 647 325 647 325 671.5 287.5 c 128,-1,38
 696 250 696 250 696 198 c 0,39,40
 696 148 696 148 680 111 c 128,-1,41
 664 74 664 74 633.5 49.5 c 128,-1,42
 603 25 603 25 559.5 12.5 c 128,-1,43
 516 0 516 0 458 0 c 2,44,-1
 122 0 l 1,45,-1
 122 76 l 1,46,-1
 132 76 l 2,47,48
 162 76 162 76 184 83 c 128,-1,49
 206 90 206 90 206 112 c 2,50,-1
 206 635 l 1,51,-1
 188 635 l 2,52,53
 159 635 159 635 139 626.5 c 128,-1,54
 119 618 119 618 109.5 598.5 c 128,-1,55
 100 579 100 579 100 543 c 0,56,57
 100 521 100 521 102.5 503 c 128,-1,58
 105 485 105 485 109 468 c 1,59,-1
 12 468 l 1,60,61
 9 482 9 482 7.5 500.5 c 128,-1,62
 6 519 6 519 6 537 c 0,63,64
 6 596 6 596 26 634 c 128,-1,65
 46 672 46 672 86 691 c 128,-1,66
 126 710 126 710 187 710 c 2,22,-1
EndSplineSet
EndChar

StartChar: Dhook
Encoding: 394 394 236
Width: 847
GlyphClass: 2
Flags: W
AnchorPoint: "Anchor-1" 424 0 basechar 0
AnchorPoint: "Anchor-0" 398 741 basechar 0
LayerCount: 2
Fore
SplineSet
186 710 m 2,0,-1
 418 710 l 2,1,2
 506 710 506 710 574.5 688.5 c 128,-1,3
 643 667 643 667 691 623.5 c 128,-1,4
 739 580 739 580 763.5 514 c 128,-1,5
 788 448 788 448 788 359 c 0,6,7
 788 271 788 271 763.5 203.5 c 128,-1,8
 739 136 739 136 691 91 c 128,-1,9
 643 46 643 46 574.5 23 c 128,-1,10
 506 0 506 0 418 0 c 2,11,-1
 122 0 l 1,12,-1
 122 76 l 1,13,-1
 132 76 l 2,14,15
 162 76 162 76 184 83 c 128,-1,16
 206 90 206 90 206 112 c 2,17,-1
 206 635 l 1,18,-1
 188 635 l 2,19,20
 158 635 158 635 138.5 626.5 c 128,-1,21
 119 618 119 618 109.5 598.5 c 128,-1,22
 100 579 100 579 100 543 c 0,23,24
 100 521 100 521 102.5 503 c 128,-1,25
 105 485 105 485 109 468 c 1,26,-1
 11 468 l 1,27,28
 9 482 9 482 7.5 500.5 c 128,-1,29
 6 519 6 519 6 537 c 0,30,31
 6 596 6 596 26 634 c 128,-1,32
 46 672 46 672 86 691 c 128,-1,33
 126 710 126 710 186 710 c 2,0,-1
417 635 m 2,34,-1
 306 635 l 1,35,-1
 306 75 l 1,36,-1
 417 75 l 2,37,38
 485 75 485 75 534.5 92.5 c 128,-1,39
 584 110 584 110 616.5 145 c 128,-1,40
 649 180 649 180 665 233.5 c 128,-1,41
 681 287 681 287 681 359 c 256,42,43
 681 431 681 431 665 483 c 128,-1,44
 649 535 649 535 616.5 568.5 c 128,-1,45
 584 602 584 602 534.5 618.5 c 128,-1,46
 485 635 485 635 417 635 c 2,34,-1
EndSplineSet
EndChar

StartChar: Schwa
Encoding: 399 399 237
Width: 743
GlyphClass: 1
Flags: W
LayerCount: 2
Fore
SplineSet
358 750 m 0,0,1
 457 750 457 750 530 707.5 c 128,-1,2
 603 665 603 665 643 580.5 c 128,-1,3
 683 496 683 496 683 369 c 0,4,5
 683 279 683 279 660 206 c 128,-1,6
 637 133 637 133 595 82 c 128,-1,7
 553 31 553 31 493.5 3 c 128,-1,8
 434 -25 434 -25 361 -25 c 0,9,10
 256 -25 256 -25 191 22.5 c 128,-1,11
 126 70 126 70 95.5 163.5 c 128,-1,12
 65 257 65 257 62 397 c 1,13,-1
 618 397 l 1,14,-1
 618 319 l 1,15,-1
 148 319 l 1,16,-1
 169 340 l 1,17,18
 172 258 172 258 184.5 202.5 c 128,-1,19
 197 147 197 147 219.5 114 c 128,-1,20
 242 81 242 81 276.5 67 c 128,-1,21
 311 53 311 53 360 53 c 0,22,23
 411 53 411 53 451.5 70 c 128,-1,24
 492 87 492 87 519.5 124.5 c 128,-1,25
 547 162 547 162 561.5 222.5 c 128,-1,26
 576 283 576 283 576 369 c 0,27,28
 576 462 576 462 560.5 521 c 128,-1,29
 545 580 545 580 515.5 613 c 128,-1,30
 486 646 486 646 446 659 c 128,-1,31
 406 672 406 672 357 672 c 0,32,33
 300 672 300 672 259 659 c 128,-1,34
 218 646 218 646 186 617.5 c 128,-1,35
 154 589 154 589 125 540 c 1,36,-1
 60 585 l 1,37,38
 89 635 89 635 131 671.5 c 128,-1,39
 173 708 173 708 230 729 c 128,-1,40
 287 750 287 750 358 750 c 0,0,1
EndSplineSet
EndChar

StartChar: Khook
Encoding: 408 408 238
Width: 767
GlyphClass: 2
Flags: W
AnchorPoint: "Anchor-1" 391 0 basechar 0
AnchorPoint: "Anchor-0" 437 741 basechar 0
LayerCount: 2
Fore
SplineSet
58 0 m 1,0,-1
 58 76 l 1,1,-1
 69 76 l 2,2,3
 98 76 98 76 120 83 c 128,-1,4
 142 90 142 90 142 112 c 2,5,-1
 142 598 l 2,6,7
 142 620 142 620 120 627 c 128,-1,8
 98 634 98 634 69 634 c 2,9,-1
 58 634 l 1,10,-1
 58 710 l 1,11,-1
 329 710 l 1,12,-1
 329 634 l 1,13,-1
 321 634 l 2,14,15
 309 634 309 634 295 633.5 c 128,-1,16
 281 633 281 633 269 631.5 c 128,-1,17
 257 630 257 630 249.5 629 c 128,-1,18
 242 628 242 628 242 625 c 2,19,-1
 242 86 l 2,20,21
 242 83 242 83 249.5 81.5 c 128,-1,22
 257 80 257 80 269 78.5 c 128,-1,23
 281 77 281 77 295 76.5 c 128,-1,24
 309 76 309 76 320 76 c 2,25,-1
 329 76 l 1,26,-1
 329 0 l 1,27,-1
 58 0 l 1,0,-1
682 719 m 0,28,29
 713 719 713 719 733.5 705 c 128,-1,30
 754 691 754 691 765 663.5 c 128,-1,31
 776 636 776 636 776 594 c 0,32,33
 776 557 776 557 770.5 522 c 128,-1,34
 765 487 765 487 758 468 c 1,35,-1
 660 468 l 1,36,37
 666 480 666 480 671.5 499.5 c 128,-1,38
 677 519 677 519 680 542 c 128,-1,39
 683 565 683 565 683 588 c 0,40,41
 683 609 683 609 676 619 c 128,-1,42
 669 629 669 629 654 629 c 0,43,44
 643 629 643 629 631 622 c 128,-1,45
 619 615 619 615 597 593 c 128,-1,46
 575 571 575 571 532 527 c 2,47,-1
 366 355 l 1,48,-1
 367 398 l 1,49,-1
 655 97 l 2,50,51
 664 88 664 88 674 83.5 c 128,-1,52
 684 79 684 79 695.5 77.5 c 128,-1,53
 707 76 707 76 719 76 c 2,54,-1
 738 76 l 1,55,-1
 738 0 l 1,56,-1
 447 0 l 1,57,-1
 447 76 l 1,58,-1
 456 76 l 2,59,60
 476 76 476 76 494 77 c 128,-1,61
 512 78 512 78 523.5 80.5 c 128,-1,62
 535 83 535 83 535 86 c 2,63,-1
 290 344 l 1,64,-1
 290 372 l 1,65,-1
 482 572 l 2,66,67
 527 619 527 619 557 648 c 128,-1,68
 587 677 587 677 608 692.5 c 128,-1,69
 629 708 629 708 646 713.5 c 128,-1,70
 663 719 663 719 682 719 c 0,28,29
EndSplineSet
EndChar

StartChar: Yhook
Encoding: 435 435 239
Width: 739
GlyphClass: 2
Flags: W
AnchorPoint: "Anchor-1" 347 0 basechar 0
AnchorPoint: "Anchor-0" 377 741 basechar 0
LayerCount: 2
Fore
SplineSet
493 575 m 2,0,1
 523 628 523 628 548 659.5 c 128,-1,2
 573 691 573 691 598 705 c 128,-1,3
 623 719 623 719 654 719 c 0,4,5
 694 719 694 719 716.5 701 c 128,-1,6
 739 683 739 683 749 653 c 128,-1,7
 759 623 759 623 759 587 c 0,8,9
 759 554 759 554 754 520 c 128,-1,10
 749 486 749 486 742 468 c 1,11,-1
 645 468 l 1,12,13
 650 481 650 481 655 498.5 c 128,-1,14
 660 516 660 516 663.5 536.5 c 128,-1,15
 667 557 667 557 667 577 c 0,16,17
 667 602 667 602 660.5 615 c 128,-1,18
 654 628 654 628 637 628 c 0,19,20
 625 628 625 628 614 619.5 c 128,-1,21
 603 611 603 611 590.5 592.5 c 128,-1,22
 578 574 578 574 560 544 c 2,23,-1
 394 263 l 1,24,-1
 401 306 l 1,25,-1
 401 112 l 2,26,27
 401 90 401 90 424.5 83 c 128,-1,28
 448 76 448 76 481 76 c 2,29,-1
 501 76 l 1,30,-1
 501 0 l 1,31,-1
 200 0 l 1,32,-1
 200 76 l 1,33,-1
 221 76 l 2,34,35
 255 76 255 76 278 83 c 128,-1,36
 301 90 301 90 301 112 c 2,37,-1
 301 306 l 1,38,-1
 308 263 l 1,39,-1
 105 598 l 2,40,41
 96 613 96 613 86.5 621 c 128,-1,42
 77 629 77 629 66 631.5 c 128,-1,43
 55 634 55 634 41 634 c 2,44,-1
 28 634 l 1,45,-1
 28 710 l 1,46,-1
 273 710 l 1,47,-1
 273 634 l 1,48,-1
 257 634 l 2,49,50
 242 634 242 634 227.5 632.5 c 128,-1,51
 213 631 213 631 203.5 629 c 128,-1,52
 194 627 194 627 194 623 c 2,53,-1
 381 306 l 1,54,-1
 342 306 l 1,55,-1
 493 575 l 2,0,1
EndSplineSet
EndChar

StartChar: Germandbls
Encoding: 7838 7838 240
Width: 856
GlyphClass: 1
Flags: W
LayerCount: 2
Fore
SplineSet
592 58 m 0,0,1
 636 58 636 58 658 71 c 128,-1,2
 680 84 680 84 688 111.5 c 128,-1,3
 696 139 696 139 696 183 c 0,4,5
 696 228 696 228 684.5 256 c 128,-1,6
 673 284 673 284 647.5 301.5 c 128,-1,7
 622 319 622 319 581 333 c 128,-1,8
 540 347 540 347 482 365 c 1,9,-1
 482 440 l 1,10,-1
 629 670 l 1,11,-1
 660 634 l 1,12,-1
 389 634 l 2,13,14
 345 634 345 634 316 623 c 128,-1,15
 287 612 287 612 269.5 591 c 128,-1,16
 252 570 252 570 245 538.5 c 128,-1,17
 238 507 238 507 238 466 c 2,18,-1
 238 0 l 1,19,-1
 50 0 l 1,20,-1
 50 76 l 1,21,-1
 60 76 l 2,22,23
 96 76 96 76 117 83 c 128,-1,24
 138 90 138 90 138 112 c 2,25,-1
 138 459 l 2,26,27
 138 520 138 520 151 567 c 128,-1,28
 164 614 164 614 193.5 645.5 c 128,-1,29
 223 677 223 677 270.5 693.5 c 128,-1,30
 318 710 318 710 387 710 c 2,31,-1
 709 710 l 1,32,-1
 709 633 l 1,33,-1
 563 401 l 1,34,-1
 527 421 l 1,35,36
 585 405 585 405 634.5 388.5 c 128,-1,37
 684 372 684 372 720 347.5 c 128,-1,38
 756 323 756 323 776 284.5 c 128,-1,39
 796 246 796 246 796 186 c 0,40,41
 796 125 796 125 774.5 80 c 128,-1,42
 753 35 753 35 708.5 10.5 c 128,-1,43
 664 -14 664 -14 594 -14 c 0,44,45
 535 -14 535 -14 497 7.5 c 128,-1,46
 459 29 459 29 440 74.5 c 128,-1,47
 421 120 421 120 416 190 c 1,48,-1
 431 143 l 1,49,-1
 419 0 l 1,50,-1
 345 0 l 1,51,-1
 345 232 l 1,52,-1
 427 232 l 1,53,54
 437 192 437 192 449 160 c 128,-1,55
 461 128 461 128 478.5 105.5 c 128,-1,56
 496 83 496 83 523.5 70.5 c 128,-1,57
 551 58 551 58 592 58 c 0,0,1
EndSplineSet
EndChar

StartChar: Delta
Encoding: 916 916 241
Width: 745
GlyphClass: 1
Flags: W
LayerCount: 2
Fore
SplineSet
54 0 m 1,0,-1
 54 86 l 1,1,-1
 316 710 l 1,2,-1
 430 710 l 1,3,-1
 692 86 l 1,4,-1
 692 0 l 1,5,-1
 54 0 l 1,0,-1
604 57 m 1,6,-1
 337 700 l 1,7,-1
 390 697 l 1,8,-1
 123 54 l 1,9,-1
 84 89 l 1,10,-1
 633 89 l 1,11,-1
 604 57 l 1,6,-1
EndSplineSet
EndChar

StartChar: Omega
Encoding: 937 937 242
Width: 853
GlyphClass: 1
Flags: W
LayerCount: 2
Fore
SplineSet
426 735 m 0,0,1
 355 735 355 735 296.5 718.5 c 128,-1,2
 238 702 238 702 196 668.5 c 128,-1,3
 154 635 154 635 131 585 c 128,-1,4
 108 535 108 535 108 468 c 0,5,6
 108 431 108 431 116.5 395.5 c 128,-1,7
 125 360 125 360 142.5 323.5 c 128,-1,8
 160 287 160 287 186.5 246.5 c 128,-1,9
 213 206 213 206 250 159.5 c 128,-1,10
 287 113 287 113 334 57 c 1,11,-1
 343 72 l 1,12,-1
 242 72 l 2,13,14
 201 72 201 72 178.5 76.5 c 128,-1,15
 156 81 156 81 146.5 92.5 c 128,-1,16
 137 104 137 104 134 121 c 2,17,-1
 120 216 l 1,18,-1
 48 216 l 1,19,-1
 48 0 l 1,20,-1
 380 0 l 1,21,-1
 380 117 l 1,22,23
 342 165 342 165 312 206 c 128,-1,24
 282 247 282 247 260 286 c 128,-1,25
 238 325 238 325 226.5 366.5 c 128,-1,26
 215 408 215 408 215 456 c 0,27,28
 215 533 215 533 239 577.5 c 128,-1,29
 263 622 263 622 310 641.5 c 128,-1,30
 357 661 357 661 426 661 c 0,31,32
 496 661 496 661 543 641.5 c 128,-1,33
 590 622 590 622 614 577.5 c 128,-1,34
 638 533 638 533 638 456 c 0,35,36
 638 408 638 408 626.5 366.5 c 128,-1,37
 615 325 615 325 593 286 c 128,-1,38
 571 247 571 247 541 206 c 128,-1,39
 511 165 511 165 473 117 c 1,40,-1
 473 0 l 1,41,-1
 805 0 l 1,42,-1
 805 216 l 1,43,-1
 733 216 l 1,44,-1
 719 121 l 2,45,46
 716 103 716 103 706 92 c 128,-1,47
 696 81 696 81 673.5 76.5 c 128,-1,48
 651 72 651 72 610 72 c 2,49,-1
 510 72 l 1,50,-1
 519 57 l 1,51,52
 566 113 566 113 603 159.5 c 128,-1,53
 640 206 640 206 666.5 246.5 c 128,-1,54
 693 287 693 287 710.5 323.5 c 128,-1,55
 728 360 728 360 736.5 395.5 c 128,-1,56
 745 431 745 431 745 468 c 0,57,58
 745 535 745 535 722 585 c 128,-1,59
 699 635 699 635 657 668.5 c 128,-1,60
 615 702 615 702 556.5 718.5 c 128,-1,61
 498 735 498 735 426 735 c 0,0,1
EndSplineSet
EndChar

StartChar: Djecyr
Encoding: 1026 1026 244
Width: 859
GlyphClass: 2
Flags: W
AnchorPoint: "Anchor-0" 335 741 basechar 0
LayerCount: 2
Fore
SplineSet
798 199 m 0,0,1
 798 145 798 145 782 103.5 c 128,-1,2
 766 62 766 62 735 33 c 128,-1,3
 704 4 704 4 660 -10.5 c 128,-1,4
 616 -25 616 -25 561 -25 c 1,5,-1
 561 51 l 1,6,7
 604 51 604 51 633 66 c 128,-1,8
 662 81 662 81 677 113.5 c 128,-1,9
 692 146 692 146 692 199 c 0,10,11
 692 264 692 264 655 304.5 c 128,-1,12
 618 345 618 345 545 345 c 0,13,14
 488 345 488 345 441 333 c 128,-1,15
 394 321 394 321 343 291 c 1,16,-1
 343 367 l 1,17,18
 391 393 391 393 440.5 407 c 128,-1,19
 490 421 490 421 548 421 c 0,20,21
 633 421 633 421 688.5 393 c 128,-1,22
 744 365 744 365 771 315 c 128,-1,23
 798 265 798 265 798 199 c 0,0,1
187 0 m 1,24,-1
 187 76 l 1,25,-1
 206 76 l 2,26,27
 240 76 240 76 264.5 83 c 128,-1,28
 289 90 289 90 289 112 c 2,29,-1
 289 635 l 1,30,-1
 246 635 l 2,31,32
 203 635 203 635 180.5 628.5 c 128,-1,33
 158 622 158 622 149 609.5 c 128,-1,34
 140 597 140 597 138 577 c 2,35,-1
 126 471 l 1,36,-1
 53 471 l 1,37,-1
 53 710 l 1,38,-1
 662 710 l 1,39,-1
 662 490 l 1,40,-1
 588 490 l 1,41,-1
 577 577 l 2,42,43
 574 597 574 597 565 609.5 c 128,-1,44
 556 622 556 622 533.5 628.5 c 128,-1,45
 511 635 511 635 468 635 c 2,46,-1
 389 635 l 1,47,-1
 389 86 l 2,48,49
 389 83 389 83 399.5 80.5 c 128,-1,50
 410 78 410 78 427.5 77 c 128,-1,51
 445 76 445 76 463 76 c 2,52,-1
 474 76 l 1,53,-1
 474 0 l 1,54,-1
 187 0 l 1,24,-1
EndSplineSet
EndChar

StartChar: Eukrcyr
Encoding: 1028 1028 245
Width: 762
GlyphClass: 2
Flags: W
AnchorPoint: "Anchor-1" 396 0 basechar 0
AnchorPoint: "Anchor-0" 396 741 basechar 0
LayerCount: 2
Fore
SplineSet
134 400 m 1,0,1
 163 401 163 401 192.5 402.5 c 128,-1,2
 222 404 222 404 251.5 405 c 128,-1,3
 281 406 281 406 311 407.5 c 128,-1,4
 341 409 341 409 370.5 410 c 128,-1,5
 400 411 400 411 429.5 412.5 c 128,-1,6
 459 414 459 414 489 415 c 1,7,-1
 489 315 l 1,8,9
 459 316 459 316 429.5 317.5 c 128,-1,10
 400 319 400 319 370.5 320 c 128,-1,11
 341 321 341 321 311 322.5 c 128,-1,12
 281 324 281 324 251.5 325 c 128,-1,13
 222 326 222 326 192.5 327.5 c 128,-1,14
 163 329 163 329 134 330 c 1,15,-1
 134 400 l 1,0,1
387 658 m 0,16,17
 331 658 331 658 289.5 640 c 128,-1,18
 248 622 248 622 221 585.5 c 128,-1,19
 194 549 194 549 180 492 c 128,-1,20
 166 435 166 435 166 355 c 0,21,22
 166 277 166 277 180 219.5 c 128,-1,23
 194 162 194 162 222.5 124.5 c 128,-1,24
 251 87 251 87 294.5 69 c 128,-1,25
 338 51 338 51 398 51 c 0,26,27
 468 51 468 51 514 78 c 128,-1,28
 560 105 560 105 588 148.5 c 128,-1,29
 616 192 616 192 633 241 c 1,30,-1
 705 213 l 1,31,32
 682 139 682 139 640 86 c 128,-1,33
 598 33 598 33 536.5 4 c 128,-1,34
 475 -25 475 -25 393 -25 c 0,35,36
 318 -25 318 -25 256.5 -1 c 128,-1,37
 195 23 195 23 151 71 c 128,-1,38
 107 119 107 119 83.5 190 c 128,-1,39
 60 261 60 261 60 355 c 0,40,41
 60 450 60 450 83.5 521 c 128,-1,42
 107 592 107 592 150.5 639.5 c 128,-1,43
 194 687 194 687 254 711 c 128,-1,44
 314 735 314 735 386 735 c 0,45,46
 452 735 452 735 502 708.5 c 128,-1,47
 552 682 552 682 582.5 630 c 128,-1,48
 613 578 613 578 621 499 c 1,49,-1
 601 545 l 1,50,-1
 615 720 l 1,51,-1
 691 720 l 1,52,-1
 691 461 l 1,53,-1
 608 461 l 1,54,55
 591 520 591 520 562 564 c 128,-1,56
 533 608 533 608 489.5 633 c 128,-1,57
 446 658 446 658 387 658 c 0,16,17
EndSplineSet
Substitution2: "'ss01' Style Set 1 lookup 61 subtable" Ieukran.alt1
EndChar

StartChar: Yukrcyr
Encoding: 1031 1031 248
Width: 408
GlyphClass: 2
Flags: W
AnchorPoint: "Anchor-1" 205 0 basechar 0
AnchorPoint: "Anchor-0" 205 915 basechar 0
LayerCount: 2
Fore
SplineSet
174 855 m 0,0,1
 174 819 174 819 154 802.5 c 128,-1,2
 134 786 134 786 102 786 c 256,3,4
 70 786 70 786 50.5 802.5 c 128,-1,5
 31 819 31 819 31 855 c 0,6,7
 31 892 31 892 50.5 908.5 c 128,-1,8
 70 925 70 925 102 925 c 256,9,10
 134 925 134 925 154 908.5 c 128,-1,11
 174 892 174 892 174 855 c 0,0,1
377 855 m 0,12,13
 377 819 377 819 357.5 802.5 c 128,-1,14
 338 786 338 786 306 786 c 256,15,16
 274 786 274 786 254.5 802.5 c 128,-1,17
 235 819 235 819 235 855 c 0,18,19
 235 892 235 892 254.5 908.5 c 128,-1,20
 274 925 274 925 306 925 c 256,21,22
 338 925 338 925 357.5 908.5 c 128,-1,23
 377 892 377 892 377 855 c 0,12,13
154 112 m 2,24,-1
 154 598 l 2,25,26
 154 620 154 620 131.5 627 c 128,-1,27
 109 634 109 634 77 634 c 2,28,-1
 57 634 l 1,29,-1
 57 710 l 1,30,-1
 351 710 l 1,31,-1
 351 634 l 1,32,-1
 332 634 l 2,33,34
 299 634 299 634 276.5 627 c 128,-1,35
 254 620 254 620 254 598 c 2,36,-1
 254 112 l 2,37,38
 254 90 254 90 276.5 83 c 128,-1,39
 299 76 299 76 332 76 c 2,40,-1
 351 76 l 1,41,-1
 351 0 l 1,42,-1
 57 0 l 1,43,-1
 57 76 l 1,44,-1
 77 76 l 2,45,46
 109 76 109 76 131.5 83 c 128,-1,47
 154 90 154 90 154 112 c 2,24,-1
EndSplineSet
EndChar

StartChar: Ljecyr
Encoding: 1033 1033 250
Width: 1047
GlyphClass: 2
Flags: W
AnchorPoint: "Anchor-0" 419 741 basechar 0
LayerCount: 2
Fore
SplineSet
249 710 m 1,0,-1
 569 710 l 1,1,-1
 569 634 l 1,2,-1
 249 634 l 1,3,-1
 249 710 l 1,0,-1
182 271 m 2,4,-1
 208 598 l 2,5,6
 210 620 210 620 188 627 c 128,-1,7
 166 634 166 634 136 634 c 2,8,-1
 126 634 l 1,9,-1
 126 710 l 1,10,-1
 303 710 l 1,11,-1
 268 267 l 2,12,13
 260 167 260 167 237 105 c 128,-1,14
 214 43 214 43 175.5 14 c 128,-1,15
 137 -15 137 -15 80 -15 c 0,16,17
 57 -15 57 -15 40.5 -10 c 128,-1,18
 24 -5 24 -5 14 0 c 1,19,-1
 14 97 l 1,20,21
 21 93 21 93 37.5 87.5 c 128,-1,22
 54 82 54 82 77 82 c 0,23,24
 108 82 108 82 129 101 c 128,-1,25
 150 120 150 120 163.5 161.5 c 128,-1,26
 177 203 177 203 182 271 c 2,4,-1
751 0 m 2,27,-1
 428 0 l 1,28,-1
 428 76 l 1,29,-1
 436 76 l 2,30,31
 454 76 454 76 472.5 77 c 128,-1,32
 491 78 491 78 503 80 c 128,-1,33
 515 82 515 82 515 86 c 2,34,-1
 515 710 l 1,35,-1
 710 710 l 1,36,-1
 710 634 l 1,37,-1
 685 634 l 2,38,39
 657 634 657 634 636 627 c 128,-1,40
 615 620 615 620 615 598 c 2,41,-1
 615 75 l 1,42,-1
 750 75 l 2,43,44
 798 75 798 75 827.5 90.5 c 128,-1,45
 857 106 857 106 870.5 137 c 128,-1,46
 884 168 884 168 884 215 c 0,47,48
 884 264 884 264 870.5 296 c 128,-1,49
 857 328 857 328 827.5 344 c 128,-1,50
 798 360 798 360 750 360 c 2,51,-1
 569 360 l 1,52,-1
 569 435 l 1,53,-1
 751 435 l 2,54,55
 825 435 825 435 878.5 412 c 128,-1,56
 932 389 932 389 961.5 340.5 c 128,-1,57
 991 292 991 292 991 215 c 0,58,59
 991 146 991 146 960 97.5 c 128,-1,60
 929 49 929 49 875.5 24.5 c 128,-1,61
 822 0 822 0 751 0 c 2,27,-1
EndSplineSet
EndChar

StartChar: Njecyr
Encoding: 1034 1034 251
Width: 1087
GlyphClass: 2
Flags: W
AnchorPoint: "Anchor-0" 402 741 basechar 0
LayerCount: 2
Fore
SplineSet
221 427 m 1,0,-1
 580 427 l 1,1,-1
 580 352 l 1,2,-1
 221 352 l 1,3,-1
 221 427 l 1,0,-1
58 0 m 1,4,-1
 58 76 l 1,5,-1
 69 76 l 2,6,7
 98 76 98 76 120 83 c 128,-1,8
 142 90 142 90 142 112 c 2,9,-1
 142 598 l 2,10,11
 142 620 142 620 120 627 c 128,-1,12
 98 634 98 634 69 634 c 2,13,-1
 58 634 l 1,14,-1
 58 710 l 1,15,-1
 334 710 l 1,16,-1
 334 634 l 1,17,-1
 325 634 l 2,18,19
 307 634 307 634 288 633 c 128,-1,20
 269 632 269 632 255.5 630 c 128,-1,21
 242 628 242 628 242 625 c 2,22,-1
 242 85 l 2,23,24
 242 82 242 82 255.5 80 c 128,-1,25
 269 78 269 78 288 77 c 128,-1,26
 307 76 307 76 325 76 c 2,27,-1
 334 76 l 1,28,-1
 334 0 l 1,29,-1
 58 0 l 1,4,-1
468 0 m 1,30,-1
 468 76 l 1,31,-1
 476 76 l 2,32,33
 494 76 494 76 512 77 c 128,-1,34
 530 78 530 78 542.5 80 c 128,-1,35
 555 82 555 82 555 85 c 2,36,-1
 555 625 l 2,37,38
 555 628 555 628 542.5 630 c 128,-1,39
 530 632 530 632 512 633 c 128,-1,40
 494 634 494 634 476 634 c 2,41,-1
 468 634 l 1,42,-1
 468 710 l 1,43,-1
 759 710 l 1,44,-1
 759 634 l 1,45,-1
 733 634 l 2,46,47
 713 634 713 634 695 631 c 128,-1,48
 677 628 677 628 666 620.5 c 128,-1,49
 655 613 655 613 655 598 c 2,50,-1
 655 75 l 1,51,-1
 790 75 l 2,52,53
 835 75 835 75 865 89.5 c 128,-1,54
 895 104 895 104 910 134.5 c 128,-1,55
 925 165 925 165 925 211 c 0,56,57
 925 258 925 258 910 289.5 c 128,-1,58
 895 321 895 321 865 336.5 c 128,-1,59
 835 352 835 352 790 352 c 2,60,-1
 622 352 l 1,61,-1
 622 427 l 1,62,-1
 791 427 l 2,63,64
 866 427 866 427 919.5 403.5 c 128,-1,65
 973 380 973 380 1002 332 c 128,-1,66
 1031 284 1031 284 1031 211 c 0,67,68
 1031 142 1031 142 1000.5 95 c 128,-1,69
 970 48 970 48 916 24 c 128,-1,70
 862 0 862 0 791 0 c 2,71,-1
 468 0 l 1,30,-1
EndSplineSet
EndChar

StartChar: Tshecyr
Encoding: 1035 1035 252
Width: 907
GlyphClass: 2
Flags: W
AnchorPoint: "Anchor-0" 327 741 basechar 0
LayerCount: 2
Fore
SplineSet
552 421 m 0,0,1
 639 421 639 421 690 397.5 c 128,-1,2
 741 374 741 374 763 326 c 128,-1,3
 785 278 785 278 785 201 c 2,4,-1
 785 112 l 2,5,6
 785 90 785 90 806 83 c 128,-1,7
 827 76 827 76 858 76 c 2,8,-1
 869 76 l 1,9,-1
 869 0 l 1,10,-1
 685 0 l 1,11,-1
 685 196 l 2,12,13
 685 253 685 253 669 285.5 c 128,-1,14
 653 318 653 318 623 331.5 c 128,-1,15
 593 345 593 345 551 345 c 0,16,17
 500 345 500 345 446 333.5 c 128,-1,18
 392 322 392 322 343 291 c 1,19,-1
 343 368 l 1,20,21
 393 396 393 396 447 408.5 c 128,-1,22
 501 421 501 421 552 421 c 0,0,1
187 0 m 1,23,-1
 187 76 l 1,24,-1
 206 76 l 2,25,26
 240 76 240 76 264.5 83 c 128,-1,27
 289 90 289 90 289 112 c 2,28,-1
 289 635 l 1,29,-1
 246 635 l 2,30,31
 203 635 203 635 180.5 628.5 c 128,-1,32
 158 622 158 622 149 609.5 c 128,-1,33
 140 597 140 597 138 577 c 2,34,-1
 126 471 l 1,35,-1
 53 471 l 1,36,-1
 53 710 l 1,37,-1
 662 710 l 1,38,-1
 662 490 l 1,39,-1
 588 490 l 1,40,-1
 577 577 l 2,41,42
 574 597 574 597 565 609.5 c 128,-1,43
 556 622 556 622 533.5 628.5 c 128,-1,44
 511 635 511 635 468 635 c 2,45,-1
 389 635 l 1,46,-1
 389 86 l 2,47,48
 389 83 389 83 401 80.5 c 128,-1,49
 413 78 413 78 432 77 c 128,-1,50
 451 76 451 76 471 76 c 2,51,-1
 490 76 l 1,52,-1
 490 0 l 1,53,-1
 187 0 l 1,23,-1
EndSplineSet
EndChar

StartChar: Dzhecyr
Encoding: 1039 1039 253
Width: 833
GlyphClass: 2
Flags: W
AnchorPoint: "Anchor-0" 417 741 basechar 0
LayerCount: 2
Fore
SplineSet
58 710 m 1,0,-1
 334 710 l 1,1,-1
 334 634 l 1,2,-1
 325 634 l 2,3,4
 307 634 307 634 288 633 c 128,-1,5
 269 632 269 632 255.5 630 c 128,-1,6
 242 628 242 628 242 625 c 2,7,-1
 242 0 l 1,8,-1
 58 0 l 1,9,-1
 58 76 l 1,10,-1
 69 76 l 2,11,12
 98 76 98 76 120 83 c 128,-1,13
 142 90 142 90 142 112 c 2,14,-1
 142 598 l 2,15,16
 142 620 142 620 120 627 c 128,-1,17
 98 634 98 634 69 634 c 2,18,-1
 58 634 l 1,19,-1
 58 710 l 1,0,-1
499 710 m 1,20,-1
 775 710 l 1,21,-1
 775 634 l 1,22,-1
 764 634 l 2,23,24
 735 634 735 634 712.5 627 c 128,-1,25
 690 620 690 620 690 598 c 2,26,-1
 690 112 l 2,27,28
 690 90 690 90 712.5 83 c 128,-1,29
 735 76 735 76 764 76 c 2,30,-1
 775 76 l 1,31,-1
 775 0 l 1,32,-1
 591 0 l 1,33,-1
 591 625 l 2,34,35
 591 628 591 628 577.5 630 c 128,-1,36
 564 632 564 632 545 633 c 128,-1,37
 526 634 526 634 508 634 c 2,38,-1
 499 634 l 1,39,-1
 499 710 l 1,20,-1
197 0 m 1,40,-1
 197 76 l 1,41,-1
 636 76 l 1,42,-1
 636 0 l 1,43,-1
 594 0 l 2,44,45
 548 0 548 0 520.5 -5.5 c 128,-1,46
 493 -11 493 -11 480 -23 c 128,-1,47
 467 -35 467 -35 465 -54 c 2,48,-1
 453 -187 l 1,49,-1
 380 -187 l 1,50,-1
 368 -54 l 2,51,52
 366 -35 366 -35 353 -23 c 128,-1,53
 340 -11 340 -11 312 -5.5 c 128,-1,54
 284 0 284 0 238 0 c 2,55,-1
 197 0 l 1,40,-1
EndSplineSet
EndChar

StartChar: Becyr
Encoding: 1041 1041 257
Width: 683
GlyphClass: 2
Flags: W
AnchorPoint: "Anchor-0" 349 741 basechar 0
LayerCount: 2
Fore
SplineSet
58 710 m 1,0,-1
 580 710 l 1,1,-1
 580 506 l 1,2,-1
 506 506 l 1,3,-1
 494 590 l 2,4,5
 492 608 492 608 479 617.5 c 128,-1,6
 466 627 466 627 440 631 c 128,-1,7
 414 635 414 635 373 635 c 2,8,-1
 243 635 l 1,9,-1
 243 75 l 1,10,-1
 381 75 l 2,11,12
 428 75 428 75 458 89.5 c 128,-1,13
 488 104 488 104 501.5 134 c 128,-1,14
 515 164 515 164 515 210 c 256,15,16
 515 256 515 256 501.5 287 c 128,-1,17
 488 318 488 318 458.5 334 c 128,-1,18
 429 350 429 350 381 350 c 2,19,-1
 197 350 l 1,20,-1
 197 425 l 1,21,-1
 382 425 l 2,22,23
 456 425 456 425 509.5 402.5 c 128,-1,24
 563 380 563 380 592.5 332.5 c 128,-1,25
 622 285 622 285 622 210 c 0,26,27
 622 142 622 142 591 95 c 128,-1,28
 560 48 560 48 506.5 24 c 128,-1,29
 453 0 453 0 382 0 c 2,30,-1
 58 0 l 1,31,-1
 58 76 l 1,32,-1
 69 76 l 2,33,34
 98 76 98 76 120 83 c 128,-1,35
 142 90 142 90 142 112 c 2,36,-1
 142 600 l 2,37,38
 142 620 142 620 120 627 c 128,-1,39
 98 634 98 634 69 634 c 2,40,-1
 58 634 l 1,41,-1
 58 710 l 1,0,-1
EndSplineSet
EndChar

StartChar: Gecyr
Encoding: 1043 1043 259
Width: 647
GlyphClass: 2
Flags: W
AnchorPoint: "Anchor-0" 330 741 basechar 0
LayerCount: 2
Fore
SplineSet
242 635 m 1,0,-1
 242 112 l 2,1,2
 242 98 242 98 253 90 c 128,-1,3
 264 82 264 82 283 79 c 128,-1,4
 302 76 302 76 326 76 c 2,5,-1
 352 76 l 1,6,-1
 352 0 l 1,7,-1
 58 0 l 1,8,-1
 58 76 l 1,9,-1
 69 76 l 2,10,11
 98 76 98 76 120 83 c 128,-1,12
 142 90 142 90 142 112 c 2,13,-1
 142 598 l 2,14,15
 142 620 142 620 120 627 c 128,-1,16
 98 634 98 634 69 634 c 2,17,-1
 58 634 l 1,18,-1
 58 710 l 1,19,-1
 594 710 l 1,20,-1
 594 471 l 1,21,-1
 520 471 l 1,22,-1
 509 577 l 2,23,24
 507 599 507 599 496 612 c 128,-1,25
 485 625 485 625 461 630 c 128,-1,26
 437 635 437 635 395 635 c 2,27,-1
 242 635 l 1,0,-1
EndSplineSet
EndChar

StartChar: Decyr
Encoding: 1044 1044 261
Width: 814
GlyphClass: 2
Flags: W
AnchorPoint: "Anchor-0" 440 741 basechar 0
LayerCount: 2
Fore
SplineSet
245 710 m 1,0,-1
 622 710 l 1,1,-1
 622 634 l 1,2,-1
 245 634 l 1,3,-1
 245 710 l 1,0,-1
671 7 m 1,4,-1
 571 7 l 1,5,-1
 571 710 l 1,6,-1
 756 710 l 1,7,-1
 756 634 l 1,8,-1
 745 634 l 2,9,10
 713 634 713 634 692 627 c 128,-1,11
 671 620 671 620 671 598 c 2,12,-1
 671 7 l 1,4,-1
679 -53 m 2,13,14
 678 -35 678 -35 665 -23.5 c 128,-1,15
 652 -12 652 -12 624.5 -6 c 128,-1,16
 597 0 597 0 551 0 c 2,17,-1
 246 0 l 2,18,19
 201 0 201 0 173.5 -6 c 128,-1,20
 146 -12 146 -12 133 -23 c 128,-1,21
 120 -34 120 -34 118 -52 c 2,22,-1
 106 -187 l 1,23,-1
 32 -187 l 1,24,-1
 32 76 l 1,25,-1
 766 76 l 1,26,-1
 766 -187 l 1,27,-1
 692 -187 l 1,28,-1
 679 -53 l 2,13,14
179 31 m 1,29,-1
 79 31 l 1,30,31
 101 58 101 58 117 87.5 c 128,-1,32
 133 117 133 117 145 156 c 128,-1,33
 157 195 157 195 166 247.5 c 128,-1,34
 175 300 175 300 181 371 c 2,35,-1
 200 598 l 2,36,37
 202 620 202 620 181 627 c 128,-1,38
 160 634 160 634 129 634 c 2,39,-1
 118 634 l 1,40,-1
 118 710 l 1,41,-1
 296 710 l 1,42,-1
 268 370 l 2,43,44
 260 278 260 278 248.5 214.5 c 128,-1,45
 237 151 237 151 220 107.5 c 128,-1,46
 203 64 203 64 179 31 c 1,29,-1
EndSplineSet
Substitution2: "'locl' Localized Forms in Cyrillic lookup 12 subtable" De.bgr
EndChar

StartChar: Zhecyr
Encoding: 1046 1046 266
Width: 1101
GlyphClass: 2
Flags: W
AnchorPoint: "Anchor-1" 540 0 basechar 0
AnchorPoint: "Anchor-0" 540 741 basechar 0
LayerCount: 2
Fore
SplineSet
786 0 m 1,0,-1
 786 76 l 1,1,-1
 794 76 l 2,2,3
 814 76 814 76 832.5 77 c 128,-1,4
 851 78 851 78 862.5 80.5 c 128,-1,5
 874 83 874 83 874 86 c 2,6,-1
 645 344 l 1,7,-1
 645 372 l 1,8,-1
 884 623 l 2,9,10
 884 627 884 627 872.5 629 c 128,-1,11
 861 631 861 631 844 632.5 c 128,-1,12
 827 634 827 634 808 634 c 2,13,-1
 799 634 l 1,14,-1
 799 710 l 1,15,-1
 1049 710 l 1,16,-1
 1049 634 l 1,17,-1
 1020 634 l 2,18,19
 1010 634 1010 634 1000 631.5 c 128,-1,20
 990 629 990 629 979.5 623 c 128,-1,21
 969 617 969 617 958 605 c 2,22,-1
 721 356 l 1,23,-1
 722 398 l 1,24,-1
 991 96 l 2,25,26
 999 87 999 87 1009 82.5 c 128,-1,27
 1019 78 1019 78 1030.5 77 c 128,-1,28
 1042 76 1042 76 1055 76 c 2,29,-1
 1074 76 l 1,30,-1
 1074 0 l 1,31,-1
 786 0 l 1,0,-1
311 0 m 1,32,-1
 28 0 l 1,33,-1
 28 76 l 1,34,-1
 46 76 l 2,35,36
 60 76 60 76 71.5 77 c 128,-1,37
 83 78 83 78 93 82.5 c 128,-1,38
 103 87 103 87 110 96 c 2,39,-1
 379 398 l 1,40,-1
 374 356 l 1,41,-1
 137 605 l 2,42,43
 126 617 126 617 115.5 623 c 128,-1,44
 105 629 105 629 95 631.5 c 128,-1,45
 85 634 85 634 74 634 c 2,46,-1
 46 634 l 1,47,-1
 46 710 l 1,48,-1
 297 710 l 1,49,-1
 297 634 l 1,50,-1
 289 634 l 2,51,52
 270 634 270 634 253 632.5 c 128,-1,53
 236 631 236 631 224.5 629 c 128,-1,54
 213 627 213 627 213 623 c 2,55,-1
 451 372 l 1,56,-1
 451 344 l 1,57,-1
 223 85 l 2,58,59
 223 83 223 83 234.5 80.5 c 128,-1,60
 246 78 246 78 264.5 77 c 128,-1,61
 283 76 283 76 302 76 c 2,62,-1
 311 76 l 1,63,-1
 311 0 l 1,32,-1
411 0 m 1,64,-1
 411 76 l 1,65,-1
 420 76 l 2,66,67
 433 76 433 76 446.5 76.5 c 128,-1,68
 460 77 460 77 472 78.5 c 128,-1,69
 484 80 484 80 491 81.5 c 128,-1,70
 498 83 498 83 498 85 c 2,71,-1
 498 625 l 2,72,73
 498 628 498 628 491 629 c 128,-1,74
 484 630 484 630 472 631.5 c 128,-1,75
 460 633 460 633 446.5 633.5 c 128,-1,76
 433 634 433 634 420 634 c 2,77,-1
 411 634 l 1,78,-1
 411 710 l 1,79,-1
 686 710 l 1,80,-1
 686 635 l 1,81,-1
 677 635 l 2,82,83
 665 635 665 635 651 634 c 128,-1,84
 637 633 637 633 625 631.5 c 128,-1,85
 613 630 613 630 605.5 628.5 c 128,-1,86
 598 627 598 627 598 625 c 2,87,-1
 598 85 l 2,88,89
 598 82 598 82 605.5 81 c 128,-1,90
 613 80 613 80 624.5 78.5 c 128,-1,91
 636 77 636 77 650.5 76.5 c 128,-1,92
 665 76 665 76 677 76 c 2,93,-1
 685 76 l 1,94,-1
 685 0 l 1,95,-1
 411 0 l 1,64,-1
EndSplineSet
EndChar

StartChar: Zecyr
Encoding: 1047 1047 269
Width: 706
GlyphClass: 2
Flags: W
AnchorPoint: "Anchor-1" 382 0 basechar 0
AnchorPoint: "Anchor-0" 382 741 basechar 0
LayerCount: 2
Fore
SplineSet
398 -25 m 0,0,1
 326 -25 326 -25 274.5 0 c 128,-1,2
 223 25 223 25 194 75 c 128,-1,3
 165 125 165 125 158 202 c 1,4,-1
 177 162 l 1,5,-1
 164 -10 l 1,6,-1
 88 -10 l 1,7,-1
 88 240 l 1,8,-1
 171 240 l 1,9,10
 188 183 188 183 217.5 141 c 128,-1,11
 247 99 247 99 291.5 76 c 128,-1,12
 336 53 336 53 397 53 c 0,13,14
 445 53 445 53 476 68.5 c 128,-1,15
 507 84 507 84 521 114.5 c 128,-1,16
 535 145 535 145 535 188 c 0,17,18
 535 226 535 226 521.5 256.5 c 128,-1,19
 508 287 508 287 474.5 303.5 c 128,-1,20
 441 320 441 320 382 318 c 0,21,22
 367 317 367 317 351.5 316.5 c 128,-1,23
 336 316 336 316 320.5 315.5 c 128,-1,24
 305 315 305 315 291 314 c 1,25,-1
 291 414 l 1,26,27
 307 414 307 414 322 413.5 c 128,-1,28
 337 413 337 413 352 412 c 128,-1,29
 367 411 367 411 383 411 c 0,30,31
 431 409 431 409 460 425.5 c 128,-1,32
 489 442 489 442 502 472 c 128,-1,33
 515 502 515 502 515 540 c 0,34,35
 515 575 515 575 503.5 601.5 c 128,-1,36
 492 628 492 628 466.5 643.5 c 128,-1,37
 441 659 441 659 398 659 c 0,38,39
 342 659 342 659 299.5 637.5 c 128,-1,40
 257 616 257 616 227.5 574 c 128,-1,41
 198 532 198 532 181 470 c 1,42,-1
 98 470 l 1,43,-1
 98 720 l 1,44,-1
 174 720 l 1,45,-1
 187 548 l 1,46,-1
 168 508 l 1,47,48
 173 565 173 565 191.5 607.5 c 128,-1,49
 210 650 210 650 240 678 c 128,-1,50
 270 706 270 706 309.5 720.5 c 128,-1,51
 349 735 349 735 397 735 c 0,52,53
 472 735 472 735 521 710 c 128,-1,54
 570 685 570 685 594.5 642 c 128,-1,55
 619 599 619 599 619 546 c 0,56,57
 619 496 619 496 594 456.5 c 128,-1,58
 569 417 569 417 527 394 c 128,-1,59
 485 371 485 371 434 369 c 1,60,-1
 444 387 l 1,61,-1
 444 344 l 1,62,-1
 434 366 l 1,63,64
 496 365 496 365 542.5 342 c 128,-1,65
 589 319 589 319 614.5 278.5 c 128,-1,66
 640 238 640 238 640 184 c 0,67,68
 640 138 640 138 624 99.5 c 128,-1,69
 608 61 608 61 577 33 c 128,-1,70
 546 5 546 5 501 -10 c 128,-1,71
 456 -25 456 -25 398 -25 c 0,0,1
EndSplineSet
EndChar

StartChar: Icyr
Encoding: 1048 1048 270
Width: 860
GlyphClass: 2
Flags: W
AnchorPoint: "Anchor-0" 430 741 basechar 0
LayerCount: 2
Fore
SplineSet
195 184 m 1,0,-1
 618 590 l 1,1,-1
 665 537 l 1,2,-1
 242 130 l 1,3,-1
 195 184 l 1,0,-1
58 0 m 1,4,-1
 58 76 l 1,5,-1
 69 76 l 2,6,7
 98 76 98 76 120 83 c 128,-1,8
 142 90 142 90 142 112 c 2,9,-1
 142 598 l 2,10,11
 142 620 142 620 120 627 c 128,-1,12
 98 634 98 634 69 634 c 2,13,-1
 58 634 l 1,14,-1
 58 710 l 1,15,-1
 334 710 l 1,16,-1
 334 634 l 1,17,-1
 325 634 l 2,18,19
 307 634 307 634 288 633 c 128,-1,20
 269 632 269 632 255.5 630 c 128,-1,21
 242 628 242 628 242 625 c 2,22,-1
 242 85 l 2,23,24
 242 82 242 82 255.5 80 c 128,-1,25
 269 78 269 78 288 77 c 128,-1,26
 307 76 307 76 325 76 c 2,27,-1
 334 76 l 1,28,-1
 334 0 l 1,29,-1
 58 0 l 1,4,-1
526 0 m 1,30,-1
 526 76 l 1,31,-1
 535 76 l 2,32,33
 553 76 553 76 572 77 c 128,-1,34
 591 78 591 78 604.5 80 c 128,-1,35
 618 82 618 82 618 85 c 2,36,-1
 618 625 l 2,37,38
 618 628 618 628 604.5 630 c 128,-1,39
 591 632 591 632 572 633 c 128,-1,40
 553 634 553 634 535 634 c 2,41,-1
 526 634 l 1,42,-1
 526 710 l 1,43,-1
 802 710 l 1,44,-1
 802 634 l 1,45,-1
 791 634 l 2,46,47
 762 634 762 634 740 627 c 128,-1,48
 718 620 718 620 718 598 c 2,49,-1
 718 112 l 2,50,51
 718 90 718 90 740 83 c 128,-1,52
 762 76 762 76 791 76 c 2,53,-1
 802 76 l 1,54,-1
 802 0 l 1,55,-1
 526 0 l 1,30,-1
EndSplineSet
EndChar

StartChar: Elcyr
Encoding: 1051 1051 276
Width: 798
GlyphClass: 2
Flags: W
AnchorPoint: "Anchor-0" 439 741 basechar 0
LayerCount: 2
Fore
SplineSet
250 710 m 1,0,-1
 609 710 l 1,1,-1
 609 634 l 1,2,-1
 250 634 l 1,3,-1
 250 710 l 1,0,-1
464 0 m 1,4,-1
 464 76 l 1,5,-1
 473 76 l 2,6,7
 491 76 491 76 510 77 c 128,-1,8
 529 78 529 78 542.5 80 c 128,-1,9
 556 82 556 82 556 85 c 2,10,-1
 556 710 l 1,11,-1
 740 710 l 1,12,-1
 740 634 l 1,13,-1
 729 634 l 2,14,15
 700 634 700 634 678 627 c 128,-1,16
 656 620 656 620 656 598 c 2,17,-1
 656 112 l 2,18,19
 656 90 656 90 678 83 c 128,-1,20
 700 76 700 76 729 76 c 2,21,-1
 740 76 l 1,22,-1
 740 0 l 1,23,-1
 464 0 l 1,4,-1
182 271 m 2,24,-1
 208 598 l 2,25,26
 210 620 210 620 188.5 627 c 128,-1,27
 167 634 167 634 136 634 c 2,28,-1
 126 634 l 1,29,-1
 126 710 l 1,30,-1
 303 710 l 1,31,-1
 268 267 l 2,32,33
 260 167 260 167 237 104.5 c 128,-1,34
 214 42 214 42 175.5 13.5 c 128,-1,35
 137 -15 137 -15 80 -15 c 0,36,37
 57 -15 57 -15 40.5 -10 c 128,-1,38
 24 -5 24 -5 14 0 c 1,39,-1
 14 97 l 1,40,41
 21 93 21 93 37.5 87.5 c 128,-1,42
 54 82 54 82 78 82 c 0,43,44
 108 82 108 82 129 101 c 128,-1,45
 150 120 150 120 163.5 161.5 c 128,-1,46
 177 203 177 203 182 271 c 2,24,-1
EndSplineSet
Substitution2: "'locl' Localized Forms in Cyrillic lookup 12 subtable" El.bgr
EndChar

StartChar: Pecyr
Encoding: 1055 1055 281
Width: 833
GlyphClass: 2
Flags: W
AnchorPoint: "Anchor-0" 417 741 basechar 0
LayerCount: 2
Fore
SplineSet
200 710 m 1,0,-1
 633 710 l 1,1,-1
 633 634 l 1,2,-1
 200 634 l 1,3,-1
 200 710 l 1,0,-1
58 0 m 1,4,-1
 58 76 l 1,5,-1
 69 76 l 2,6,7
 98 76 98 76 120 83 c 128,-1,8
 142 90 142 90 142 112 c 2,9,-1
 142 598 l 2,10,11
 142 620 142 620 120 627 c 128,-1,12
 98 634 98 634 69 634 c 2,13,-1
 58 634 l 1,14,-1
 58 710 l 1,15,-1
 242 710 l 1,16,-1
 242 85 l 2,17,18
 242 82 242 82 255.5 80 c 128,-1,19
 269 78 269 78 288 77 c 128,-1,20
 307 76 307 76 325 76 c 2,21,-1
 334 76 l 1,22,-1
 334 0 l 1,23,-1
 58 0 l 1,4,-1
499 0 m 1,24,-1
 499 76 l 1,25,-1
 507 76 l 2,26,27
 526 76 526 76 545 77 c 128,-1,28
 564 78 564 78 577.5 80 c 128,-1,29
 591 82 591 82 591 85 c 2,30,-1
 591 710 l 1,31,-1
 775 710 l 1,32,-1
 775 634 l 1,33,-1
 764 634 l 2,34,35
 735 634 735 634 712.5 627 c 128,-1,36
 690 620 690 620 690 598 c 2,37,-1
 690 112 l 2,38,39
 690 90 690 90 712.5 83 c 128,-1,40
 735 76 735 76 764 76 c 2,41,-1
 775 76 l 1,42,-1
 775 0 l 1,43,-1
 499 0 l 1,24,-1
EndSplineSet
EndChar

StartChar: Ucyr
Encoding: 1059 1059 285
Width: 695
GlyphClass: 2
Flags: W
AnchorPoint: "Anchor-1" 229 0 basechar 0
AnchorPoint: "Anchor-0" 354 741 basechar 0
LayerCount: 2
Fore
SplineSet
409 200 m 2,0,1
 380 138 380 138 356 96.5 c 128,-1,2
 332 55 332 55 309 30 c 128,-1,3
 286 5 286 5 261 -6 c 128,-1,4
 236 -17 236 -17 204 -17 c 0,5,6
 179 -17 179 -17 162 -12 c 128,-1,7
 145 -7 145 -7 134 -1 c 1,8,-1
 134 94 l 1,9,10
 141 90 141 90 159 84 c 128,-1,11
 177 78 177 78 199 78 c 0,12,13
 229 78 229 78 252.5 90.5 c 128,-1,14
 276 103 276 103 298 134.5 c 128,-1,15
 320 166 320 166 345 224 c 2,16,-1
 515 611 l 2,17,18
 515 618 515 618 505.5 623 c 128,-1,19
 496 628 496 628 482 631 c 128,-1,20
 468 634 468 634 456 634 c 2,21,-1
 445 634 l 1,22,-1
 445 710 l 1,23,-1
 667 710 l 1,24,-1
 667 634 l 1,25,-1
 655 634 l 2,26,27
 639 634 639 634 626.5 629 c 128,-1,28
 614 624 614 624 603.5 613.5 c 128,-1,29
 593 603 593 603 586 586 c 2,30,-1
 409 200 l 2,0,1
376 221 m 1,31,-1
 319 136 l 1,32,-1
 105 598 l 2,33,34
 98 613 98 613 89 621 c 128,-1,35
 80 629 80 629 68.5 631.5 c 128,-1,36
 57 634 57 634 41 634 c 2,37,-1
 28 634 l 1,38,-1
 28 710 l 1,39,-1
 273 710 l 1,40,-1
 273 634 l 1,41,-1
 257 634 l 2,42,43
 243 634 243 634 227.5 632.5 c 128,-1,44
 212 631 212 631 201.5 629 c 128,-1,45
 191 627 191 627 191 624 c 2,46,-1
 376 221 l 1,31,-1
EndSplineSet
EndChar

StartChar: Efcyr
Encoding: 1060 1060 290
Width: 895
GlyphClass: 2
Flags: W
AnchorPoint: "Anchor-1" 448 0 basechar 0
AnchorPoint: "Anchor-0" 448 741 basechar 0
LayerCount: 2
Fore
SplineSet
401 87 m 2,0,-1
 401 623 l 2,1,2
 401 645 401 645 378 652 c 128,-1,3
 355 659 355 659 320 659 c 2,4,-1
 301 659 l 1,5,-1
 301 735 l 1,6,-1
 594 735 l 1,7,-1
 594 659 l 1,8,-1
 575 659 l 2,9,10
 540 659 540 659 517 652 c 128,-1,11
 494 645 494 645 494 623 c 2,12,-1
 494 87 l 2,13,14
 494 65 494 65 517 58 c 128,-1,15
 540 51 540 51 575 51 c 2,16,-1
 594 51 l 1,17,-1
 594 -25 l 1,18,-1
 301 -25 l 1,19,-1
 301 51 l 1,20,-1
 320 51 l 2,21,22
 355 51 355 51 378 58 c 128,-1,23
 401 65 401 65 401 87 c 2,0,-1
414 608 m 1,24,-1
 414 531 l 1,25,26
 320 531 320 531 263 512 c 128,-1,27
 206 493 206 493 181 455 c 128,-1,28
 156 417 156 417 156 360 c 0,29,30
 156 304 156 304 181 265.5 c 128,-1,31
 206 227 206 227 263 208 c 128,-1,32
 320 189 320 189 414 189 c 1,33,-1
 414 112 l 1,34,35
 291 112 291 112 210 141.5 c 128,-1,36
 129 171 129 171 89 227 c 128,-1,37
 49 283 49 283 49 360 c 0,38,39
 49 438 49 438 89 493.5 c 128,-1,40
 129 549 129 549 210.5 578.5 c 128,-1,41
 292 608 292 608 414 608 c 1,24,-1
481 112 m 1,42,-1
 481 189 l 1,43,44
 576 189 576 189 632.5 208 c 128,-1,45
 689 227 689 227 714 265.5 c 128,-1,46
 739 304 739 304 739 360 c 0,47,48
 739 417 739 417 714 455 c 128,-1,49
 689 493 689 493 632.5 512 c 128,-1,50
 576 531 576 531 481 531 c 1,51,-1
 481 608 l 1,52,53
 603 608 603 608 684.5 578.5 c 128,-1,54
 766 549 766 549 806 493.5 c 128,-1,55
 846 438 846 438 846 360 c 0,56,57
 846 283 846 283 805.5 227 c 128,-1,58
 765 171 765 171 684 141.5 c 128,-1,59
 603 112 603 112 481 112 c 1,42,-1
EndSplineSet
EndChar

StartChar: Tsecyr
Encoding: 1062 1062 292
Width: 833
GlyphClass: 2
Flags: W
AnchorPoint: "Anchor-0" 417 741 basechar 0
LayerCount: 2
Fore
SplineSet
208 0 m 1,0,-1
 208 76 l 1,1,-1
 628 76 l 1,2,-1
 628 0 l 1,3,-1
 208 0 l 1,0,-1
58 710 m 1,4,-1
 334 710 l 1,5,-1
 334 634 l 1,6,-1
 325 634 l 2,7,8
 307 634 307 634 288 633 c 128,-1,9
 269 632 269 632 255.5 630 c 128,-1,10
 242 628 242 628 242 625 c 2,11,-1
 242 0 l 1,12,-1
 58 0 l 1,13,-1
 58 76 l 1,14,-1
 69 76 l 2,15,16
 98 76 98 76 120 83 c 128,-1,17
 142 90 142 90 142 112 c 2,18,-1
 142 598 l 2,19,20
 142 620 142 620 120 627 c 128,-1,21
 98 634 98 634 69 634 c 2,22,-1
 58 634 l 1,23,-1
 58 710 l 1,4,-1
499 710 m 1,24,-1
 775 710 l 1,25,-1
 775 634 l 1,26,-1
 764 634 l 2,27,28
 735 634 735 634 712.5 627 c 128,-1,29
 690 620 690 620 690 598 c 2,30,-1
 690 0 l 1,31,-1
 591 0 l 1,32,-1
 591 625 l 2,33,34
 591 628 591 628 577.5 630 c 128,-1,35
 564 632 564 632 545 633 c 128,-1,36
 526 634 526 634 508 634 c 2,37,-1
 499 634 l 1,38,-1
 499 710 l 1,24,-1
537 0 m 1,39,-1
 537 76 l 1,40,-1
 785 76 l 1,41,-1
 785 -187 l 1,42,-1
 711 -187 l 1,43,-1
 698 -54 l 2,44,45
 697 -35 697 -35 684 -23 c 128,-1,46
 671 -11 671 -11 643 -5.5 c 128,-1,47
 615 0 615 0 569 0 c 2,48,-1
 537 0 l 1,39,-1
EndSplineSet
EndChar

StartChar: Checyr
Encoding: 1063 1063 293
Width: 788
GlyphClass: 2
Flags: W
AnchorPoint: "Anchor-0" 386 741 basechar 0
LayerCount: 2
Fore
SplineSet
455 0 m 1,0,-1
 455 76 l 1,1,-1
 463 76 l 2,2,3
 481 76 481 76 500.5 77 c 128,-1,4
 520 78 520 78 533 80 c 128,-1,5
 546 82 546 82 546 85 c 2,6,-1
 546 625 l 2,7,8
 546 628 546 628 533 630 c 128,-1,9
 520 632 520 632 500.5 633 c 128,-1,10
 481 634 481 634 463 634 c 2,11,-1
 455 634 l 1,12,-1
 455 710 l 1,13,-1
 730 710 l 1,14,-1
 730 634 l 1,15,-1
 720 634 l 2,16,17
 691 634 691 634 668.5 627 c 128,-1,18
 646 620 646 620 646 598 c 2,19,-1
 646 112 l 2,20,21
 646 90 646 90 668.5 83 c 128,-1,22
 691 76 691 76 720 76 c 2,23,-1
 730 76 l 1,24,-1
 730 0 l 1,25,-1
 455 0 l 1,0,-1
364 273 m 0,26,27
 276 273 276 273 223 294.5 c 128,-1,28
 170 316 170 316 146 364 c 128,-1,29
 122 412 122 412 122 492 c 2,30,-1
 122 598 l 2,31,32
 122 620 122 620 100 627 c 128,-1,33
 78 634 78 634 49 634 c 2,34,-1
 38 634 l 1,35,-1
 38 710 l 1,36,-1
 314 710 l 1,37,-1
 314 634 l 1,38,-1
 305 634 l 2,39,40
 287 634 287 634 268 633 c 128,-1,41
 249 632 249 632 235.5 630 c 128,-1,42
 222 628 222 628 222 624 c 2,43,-1
 222 497 l 2,44,45
 222 443 222 443 236 410.5 c 128,-1,46
 250 378 250 378 281 363.5 c 128,-1,47
 312 349 312 349 366 349 c 256,48,49
 420 349 420 349 479 360.5 c 128,-1,50
 538 372 538 372 588 402 c 1,51,-1
 588 325 l 1,52,53
 537 298 537 298 478.5 285.5 c 128,-1,54
 420 273 420 273 364 273 c 0,26,27
EndSplineSet
EndChar

StartChar: Shacyr
Encoding: 1064 1064 294
Width: 1150
GlyphClass: 2
Flags: W
AnchorPoint: "Anchor-0" 564 741 basechar 0
LayerCount: 2
Fore
SplineSet
937 0 m 1,0,-1
 212 0 l 1,1,-1
 212 76 l 1,2,-1
 937 76 l 1,3,-1
 937 0 l 1,0,-1
1092 710 m 1,4,-1
 1092 634 l 1,5,-1
 1081 634 l 2,6,7
 1052 634 1052 634 1029.5 627 c 128,-1,8
 1007 620 1007 620 1007 598 c 2,9,-1
 1007 112 l 2,10,11
 1007 90 1007 90 1029.5 83 c 128,-1,12
 1052 76 1052 76 1081 76 c 2,13,-1
 1092 76 l 1,14,-1
 1092 0 l 1,15,-1
 907 0 l 1,16,-1
 907 625 l 2,17,18
 907 628 907 628 894 630 c 128,-1,19
 881 632 881 632 862 633 c 128,-1,20
 843 634 843 634 824 634 c 2,21,-1
 816 634 l 1,22,-1
 816 710 l 1,23,-1
 1092 710 l 1,4,-1
334 710 m 1,24,-1
 334 634 l 1,25,-1
 325 634 l 2,26,27
 307 634 307 634 288 633 c 128,-1,28
 269 632 269 632 255.5 630 c 128,-1,29
 242 628 242 628 242 625 c 2,30,-1
 242 0 l 1,31,-1
 58 0 l 1,32,-1
 58 76 l 1,33,-1
 69 76 l 2,34,35
 98 76 98 76 120 83 c 128,-1,36
 142 90 142 90 142 112 c 2,37,-1
 142 598 l 2,38,39
 142 620 142 620 120 627 c 128,-1,40
 98 634 98 634 69 634 c 2,41,-1
 58 634 l 1,42,-1
 58 710 l 1,43,-1
 334 710 l 1,24,-1
437 710 m 1,44,-1
 713 710 l 1,45,-1
 713 634 l 1,46,-1
 704 634 l 2,47,48
 687 634 687 634 668.5 633 c 128,-1,49
 650 632 650 632 637.5 630 c 128,-1,50
 625 628 625 628 625 625 c 2,51,-1
 625 0 l 1,52,-1
 525 0 l 1,53,-1
 525 625 l 2,54,55
 525 628 525 628 512 630 c 128,-1,56
 499 632 499 632 481 633 c 128,-1,57
 463 634 463 634 446 634 c 2,58,-1
 437 634 l 1,59,-1
 437 710 l 1,44,-1
EndSplineSet
EndChar

StartChar: Shchacyr
Encoding: 1065 1065 295
Width: 1150
GlyphClass: 2
Flags: W
AnchorPoint: "Anchor-0" 564 741 basechar 0
LayerCount: 2
Fore
SplineSet
951 0 m 1,0,-1
 212 0 l 1,1,-1
 212 76 l 1,2,-1
 951 76 l 1,3,-1
 951 0 l 1,0,-1
334 710 m 1,4,-1
 334 634 l 1,5,-1
 325 634 l 2,6,7
 307 634 307 634 288 633 c 128,-1,8
 269 632 269 632 255.5 630 c 128,-1,9
 242 628 242 628 242 625 c 2,10,-1
 242 0 l 1,11,-1
 58 0 l 1,12,-1
 58 76 l 1,13,-1
 69 76 l 2,14,15
 98 76 98 76 120 83 c 128,-1,16
 142 90 142 90 142 112 c 2,17,-1
 142 598 l 2,18,19
 142 620 142 620 120 627 c 128,-1,20
 98 634 98 634 69 634 c 2,21,-1
 58 634 l 1,22,-1
 58 710 l 1,23,-1
 334 710 l 1,4,-1
816 710 m 1,24,-1
 1092 710 l 1,25,-1
 1092 634 l 1,26,-1
 1081 634 l 2,27,28
 1052 634 1052 634 1029.5 627 c 128,-1,29
 1007 620 1007 620 1007 598 c 2,30,-1
 1007 0 l 1,31,-1
 907 0 l 1,32,-1
 907 625 l 2,33,34
 907 628 907 628 894 630 c 128,-1,35
 881 632 881 632 862 633 c 128,-1,36
 843 634 843 634 824 634 c 2,37,-1
 816 634 l 1,38,-1
 816 710 l 1,24,-1
887 0 m 2,39,-1
 854 0 l 1,40,-1
 854 76 l 1,41,-1
 1102 76 l 1,42,-1
 1102 -187 l 1,43,-1
 1028 -187 l 1,44,-1
 1015 -53 l 2,45,46
 1014 -35 1014 -35 1001 -23.5 c 128,-1,47
 988 -12 988 -12 960.5 -6 c 128,-1,48
 933 0 933 0 887 0 c 2,39,-1
437 710 m 1,49,-1
 713 710 l 1,50,-1
 713 634 l 1,51,-1
 704 634 l 2,52,53
 687 634 687 634 668.5 633 c 128,-1,54
 650 632 650 632 637.5 630 c 128,-1,55
 625 628 625 628 625 625 c 2,56,-1
 625 0 l 1,57,-1
 525 0 l 1,58,-1
 525 625 l 2,59,60
 525 628 525 628 512 630 c 128,-1,61
 499 632 499 632 481 633 c 128,-1,62
 463 634 463 634 446 634 c 2,63,-1
 437 634 l 1,64,-1
 437 710 l 1,49,-1
EndSplineSet
EndChar

StartChar: Hardcyr
Encoding: 1066 1066 296
Width: 802
GlyphClass: 2
Flags: W
AnchorPoint: "Anchor-0" 281 741 basechar 0
LayerCount: 2
Fore
SplineSet
506 0 m 2,0,-1
 183 0 l 1,1,-1
 183 76 l 1,2,-1
 193 76 l 2,3,4
 223 76 223 76 245.5 83 c 128,-1,5
 268 90 268 90 268 112 c 2,6,-1
 268 635 l 1,7,-1
 246 635 l 2,8,9
 203 635 203 635 180.5 628.5 c 128,-1,10
 158 622 158 622 149 609.5 c 128,-1,11
 140 597 140 597 138 577 c 2,12,-1
 126 471 l 1,13,-1
 53 471 l 1,14,-1
 53 710 l 1,15,-1
 477 710 l 1,16,-1
 477 634 l 1,17,-1
 458 634 l 2,18,19
 435 634 435 634 414.5 633 c 128,-1,20
 394 632 394 632 381 630 c 128,-1,21
 368 628 368 628 368 624 c 2,22,-1
 368 75 l 1,23,-1
 505 75 l 2,24,25
 553 75 553 75 582.5 90.5 c 128,-1,26
 612 106 612 106 626 137 c 128,-1,27
 640 168 640 168 640 215 c 0,28,29
 640 264 640 264 626 296 c 128,-1,30
 612 328 612 328 582.5 344 c 128,-1,31
 553 360 553 360 505 360 c 2,32,-1
 321 360 l 1,33,-1
 321 435 l 1,34,-1
 506 435 l 2,35,36
 581 435 581 435 634.5 412 c 128,-1,37
 688 389 688 389 717 340.5 c 128,-1,38
 746 292 746 292 746 215 c 0,39,40
 746 146 746 146 715.5 97.5 c 128,-1,41
 685 49 685 49 631 24.5 c 128,-1,42
 577 0 577 0 506 0 c 2,0,-1
EndSplineSet
EndChar

StartChar: Ylongcyr
Encoding: 1067 1067 297
Width: 993
GlyphClass: 2
Flags: W
AnchorPoint: "Anchor-1" 486 0 basechar 0
AnchorPoint: "Anchor-0" 486 741 basechar 0
LayerCount: 2
Fore
SplineSet
751 85 m 2,0,-1
 751 625 l 2,1,2
 751 628 751 628 737.5 630 c 128,-1,3
 724 632 724 632 705 633 c 128,-1,4
 686 634 686 634 668 634 c 2,5,-1
 659 634 l 1,6,-1
 659 710 l 1,7,-1
 935 710 l 1,8,-1
 935 634 l 1,9,-1
 924 634 l 2,10,11
 894 634 894 634 872.5 627 c 128,-1,12
 851 620 851 620 851 598 c 2,13,-1
 851 112 l 2,14,15
 851 90 851 90 872.5 83 c 128,-1,16
 894 76 894 76 924 76 c 2,17,-1
 935 76 l 1,18,-1
 935 0 l 1,19,-1
 659 0 l 1,20,-1
 659 76 l 1,21,-1
 668 76 l 2,22,23
 686 76 686 76 705 77 c 128,-1,24
 724 78 724 78 737.5 80 c 128,-1,25
 751 82 751 82 751 85 c 2,0,-1
382 0 m 2,26,-1
 58 0 l 1,27,-1
 58 76 l 1,28,-1
 69 76 l 2,29,30
 98 76 98 76 120 83 c 128,-1,31
 142 90 142 90 142 112 c 2,32,-1
 142 598 l 2,33,34
 142 620 142 620 120 627 c 128,-1,35
 98 634 98 634 69 634 c 2,36,-1
 58 634 l 1,37,-1
 58 710 l 1,38,-1
 352 710 l 1,39,-1
 352 634 l 1,40,-1
 333 634 l 2,41,42
 310 634 310 634 289.5 633 c 128,-1,43
 269 632 269 632 256 630 c 128,-1,44
 243 628 243 628 243 624 c 2,45,-1
 243 75 l 1,46,-1
 381 75 l 2,47,48
 429 75 429 75 459 90.5 c 128,-1,49
 489 106 489 106 502.5 137 c 128,-1,50
 516 168 516 168 516 215 c 0,51,52
 516 264 516 264 502.5 296 c 128,-1,53
 489 328 489 328 459 344 c 128,-1,54
 429 360 429 360 381 360 c 2,55,-1
 213 360 l 1,56,-1
 213 435 l 1,57,-1
 382 435 l 2,58,59
 456 435 456 435 509.5 412 c 128,-1,60
 563 389 563 389 592.5 340.5 c 128,-1,61
 622 292 622 292 622 215 c 0,62,63
 622 146 622 146 591 97.5 c 128,-1,64
 560 49 560 49 506.5 24.5 c 128,-1,65
 453 0 453 0 382 0 c 2,26,-1
EndSplineSet
EndChar

StartChar: Softcyr
Encoding: 1068 1068 298
Width: 678
GlyphClass: 2
Flags: W
AnchorPoint: "Anchor-0" 197 741 basechar 0
LayerCount: 2
Fore
SplineSet
382 0 m 2,0,-1
 58 0 l 1,1,-1
 58 76 l 1,2,-1
 69 76 l 2,3,4
 98 76 98 76 120 83 c 128,-1,5
 142 90 142 90 142 112 c 2,6,-1
 142 598 l 2,7,8
 142 620 142 620 120 627 c 128,-1,9
 98 634 98 634 69 634 c 2,10,-1
 58 634 l 1,11,-1
 58 710 l 1,12,-1
 352 710 l 1,13,-1
 352 634 l 1,14,-1
 333 634 l 2,15,16
 310 634 310 634 289.5 633 c 128,-1,17
 269 632 269 632 256 630 c 128,-1,18
 243 628 243 628 243 624 c 2,19,-1
 243 75 l 1,20,-1
 381 75 l 2,21,22
 429 75 429 75 459 90.5 c 128,-1,23
 489 106 489 106 502.5 137 c 128,-1,24
 516 168 516 168 516 215 c 0,25,26
 516 264 516 264 502.5 296 c 128,-1,27
 489 328 489 328 459 344 c 128,-1,28
 429 360 429 360 381 360 c 2,29,-1
 213 360 l 1,30,-1
 213 435 l 1,31,-1
 382 435 l 2,32,33
 456 435 456 435 509.5 412 c 128,-1,34
 563 389 563 389 592.5 340.5 c 128,-1,35
 622 292 622 292 622 215 c 0,36,37
 622 146 622 146 591 97.5 c 128,-1,38
 560 49 560 49 506.5 24.5 c 128,-1,39
 453 0 453 0 382 0 c 2,0,-1
EndSplineSet
EndChar

StartChar: Ereversedcyr
Encoding: 1069 1069 299
Width: 779
GlyphClass: 2
Flags: W
AnchorPoint: "Anchor-1" 374 0 basechar 0
AnchorPoint: "Anchor-0" 374 741 basechar 0
LayerCount: 2
Fore
SplineSet
645 399 m 1,0,-1
 645 328 l 1,1,2
 601 326 601 326 557 324.5 c 128,-1,3
 513 323 513 323 469 321.5 c 128,-1,4
 425 320 425 320 380.5 318 c 128,-1,5
 336 316 336 316 292 314 c 1,6,-1
 292 414 l 1,7,8
 336 412 336 412 380 410 c 128,-1,9
 424 408 424 408 468 406.5 c 128,-1,10
 512 405 512 405 556.5 403 c 128,-1,11
 601 401 601 401 645 399 c 1,0,-1
399 -25 m 256,12,13
 330 -25 330 -25 278 0.5 c 128,-1,14
 226 26 226 26 195.5 76.5 c 128,-1,15
 165 127 165 127 158 203 c 1,16,-1
 177 163 l 1,17,-1
 164 -10 l 1,18,-1
 88 -10 l 1,19,-1
 88 241 l 1,20,-1
 171 241 l 1,21,22
 187 184 187 184 217 141.5 c 128,-1,23
 247 99 247 99 292 75.5 c 128,-1,24
 337 52 337 52 397 52 c 0,25,26
 452 52 452 52 492 70 c 128,-1,27
 532 88 532 88 559 124.5 c 128,-1,28
 586 161 586 161 599 218.5 c 128,-1,29
 612 276 612 276 612 355 c 0,30,31
 612 435 612 435 596.5 492 c 128,-1,32
 581 549 581 549 553 586 c 128,-1,33
 525 623 525 623 486 640.5 c 128,-1,34
 447 658 447 658 400 658 c 0,35,36
 338 658 338 658 292 634.5 c 128,-1,37
 246 611 246 611 216 569 c 128,-1,38
 186 527 186 527 171 469 c 1,39,-1
 88 469 l 1,40,-1
 88 720 l 1,41,-1
 164 720 l 1,42,-1
 177 547 l 1,43,-1
 158 507 l 1,44,45
 165 583 165 583 196.5 633 c 128,-1,46
 228 683 228 683 280 709 c 128,-1,47
 332 735 332 735 399 735 c 0,48,49
 469 735 469 735 527 711.5 c 128,-1,50
 585 688 585 688 628 640.5 c 128,-1,51
 671 593 671 593 695 522 c 128,-1,52
 719 451 719 451 719 355 c 0,53,54
 719 264 719 264 695 193.5 c 128,-1,55
 671 123 671 123 628 74.5 c 128,-1,56
 585 26 585 26 526.5 0.5 c 128,-1,57
 468 -25 468 -25 399 -25 c 256,12,13
EndSplineSet
Substitution2: "'ss01' Style Set 1 lookup 61 subtable" Ecyr.alt1
EndChar

StartChar: Yucyr
Encoding: 1070 1070 300
Width: 1100
GlyphClass: 2
Flags: W
AnchorPoint: "Anchor-1" 572 0 basechar 0
AnchorPoint: "Anchor-0" 572 741 basechar 0
LayerCount: 2
Fore
SplineSet
209 404 m 1,0,-1
 421 404 l 1,1,-1
 421 328 l 1,2,-1
 209 328 l 1,3,-1
 209 404 l 1,0,-1
58 0 m 1,4,-1
 58 76 l 1,5,-1
 69 76 l 2,6,7
 98 76 98 76 120 83 c 128,-1,8
 142 90 142 90 142 112 c 2,9,-1
 142 598 l 2,10,11
 142 620 142 620 120 627 c 128,-1,12
 98 634 98 634 69 634 c 2,13,-1
 58 634 l 1,14,-1
 58 710 l 1,15,-1
 334 710 l 1,16,-1
 334 635 l 1,17,-1
 325 635 l 2,18,19
 312 635 312 635 297 634 c 128,-1,20
 282 633 282 633 270 631.5 c 128,-1,21
 258 630 258 630 250 628.5 c 128,-1,22
 242 627 242 627 242 625 c 2,23,-1
 242 85 l 2,24,25
 242 82 242 82 250 81 c 128,-1,26
 258 80 258 80 270 78.5 c 128,-1,27
 282 77 282 77 297 76.5 c 128,-1,28
 312 76 312 76 325 76 c 2,29,-1
 334 76 l 1,30,-1
 334 0 l 1,31,-1
 58 0 l 1,4,-1
711 -25 m 256,32,33
 637 -25 637 -25 576.5 0 c 128,-1,34
 516 25 516 25 471.5 73.5 c 128,-1,35
 427 122 427 122 403.5 192.5 c 128,-1,36
 380 263 380 263 380 356 c 0,37,38
 380 448 380 448 403.5 518.5 c 128,-1,39
 427 589 427 589 471.5 637.5 c 128,-1,40
 516 686 516 686 576.5 710.5 c 128,-1,41
 637 735 637 735 711 735 c 256,42,43
 785 735 785 735 845.5 710.5 c 128,-1,44
 906 686 906 686 950 637.5 c 128,-1,45
 994 589 994 589 1017.5 518.5 c 128,-1,46
 1041 448 1041 448 1041 356 c 0,47,48
 1041 263 1041 263 1017.5 192.5 c 128,-1,49
 994 122 994 122 950 73.5 c 128,-1,50
 906 25 906 25 845.5 0 c 128,-1,51
 785 -25 785 -25 711 -25 c 256,32,33
711 53 m 256,52,53
 766 53 766 53 807.5 71 c 128,-1,54
 849 89 849 89 877 126.5 c 128,-1,55
 905 164 905 164 919.5 220.5 c 128,-1,56
 934 277 934 277 934 355 c 256,57,58
 934 433 934 433 919.5 489.5 c 128,-1,59
 905 546 905 546 877 583.5 c 128,-1,60
 849 621 849 621 807.5 639 c 128,-1,61
 766 657 766 657 711 657 c 0,62,63
 655 657 655 657 613 639 c 128,-1,64
 571 621 571 621 543.5 583.5 c 128,-1,65
 516 546 516 546 501.5 489.5 c 128,-1,66
 487 433 487 433 487 355 c 256,67,68
 487 277 487 277 501.5 220.5 c 128,-1,69
 516 164 516 164 544 126.5 c 128,-1,70
 572 89 572 89 614 71 c 128,-1,71
 656 53 656 53 711 53 c 256,52,53
EndSplineSet
EndChar

StartChar: Yacyr
Encoding: 1071 1071 301
Width: 742
GlyphClass: 2
Flags: W
AnchorPoint: "Anchor-1" 371 0 basechar 0
AnchorPoint: "Anchor-0" 408 741 basechar 0
LayerCount: 2
Fore
SplineSet
357 321 m 1,0,-1
 180 0 l 1,1,-1
 33 0 l 1,2,-1
 33 76 l 1,3,-1
 43 76 l 2,4,5
 65 76 65 76 83.5 80.5 c 128,-1,6
 102 85 102 85 117.5 98.5 c 128,-1,7
 133 112 133 112 148 137 c 2,8,-1
 277 364 l 1,9,-1
 357 321 l 1,0,-1
500 86 m 2,10,-1
 500 635 l 1,11,-1
 362 635 l 2,12,13
 315 635 315 635 283 619.5 c 128,-1,14
 251 604 251 604 235 575.5 c 128,-1,15
 219 547 219 547 219 505 c 0,16,17
 219 462 219 462 234.5 431 c 128,-1,18
 250 400 250 400 282.5 383 c 128,-1,19
 315 366 315 366 366 366 c 2,20,-1
 510 366 l 1,21,-1
 510 291 l 1,22,-1
 326 291 l 1,23,-1
 301 299 l 1,24,25
 247 307 247 307 206 333.5 c 128,-1,26
 165 360 165 360 142 403.5 c 128,-1,27
 119 447 119 447 119 505 c 0,28,29
 119 571 119 571 147.5 616.5 c 128,-1,30
 176 662 176 662 229.5 686 c 128,-1,31
 283 710 283 710 358 710 c 2,32,-1
 684 710 l 1,33,-1
 684 634 l 1,34,-1
 673 634 l 2,35,36
 644 634 644 634 622 627 c 128,-1,37
 600 620 600 620 600 598 c 2,38,-1
 600 112 l 2,39,40
 600 90 600 90 622 83 c 128,-1,41
 644 76 644 76 673 76 c 2,42,-1
 684 76 l 1,43,-1
 684 0 l 1,44,-1
 390 0 l 1,45,-1
 390 76 l 1,46,-1
 409 76 l 2,47,48
 426 76 426 76 442.5 76.5 c 128,-1,49
 459 77 459 77 471.5 78.5 c 128,-1,50
 484 80 484 80 492 81.5 c 128,-1,51
 500 83 500 83 500 86 c 2,10,-1
EndSplineSet
EndChar

StartChar: Geupcyr
Encoding: 1168 1168 302
Width: 642
GlyphClass: 2
Flags: W
AnchorPoint: "Anchor-0" 302 741 basechar 0
LayerCount: 2
Fore
SplineSet
242 635 m 1,0,-1
 242 112 l 2,1,2
 242 98 242 98 253 90 c 128,-1,3
 264 82 264 82 283 79 c 128,-1,4
 302 76 302 76 326 76 c 2,5,-1
 352 76 l 1,6,-1
 352 0 l 1,7,-1
 58 0 l 1,8,-1
 58 76 l 1,9,-1
 69 76 l 2,10,11
 98 76 98 76 120 83 c 128,-1,12
 142 90 142 90 142 112 c 2,13,-1
 142 598 l 2,14,15
 142 620 142 620 120 627 c 128,-1,16
 98 634 98 634 69 634 c 2,17,-1
 58 634 l 1,18,-1
 58 710 l 1,19,-1
 377 710 l 2,20,21
 423 710 423 710 451.5 715.5 c 128,-1,22
 480 721 480 721 493 733 c 128,-1,23
 506 745 506 745 508 764 c 2,24,-1
 520 897 l 1,25,-1
 594 897 l 1,26,-1
 594 635 l 1,27,-1
 242 635 l 1,0,-1
EndSplineSet
EndChar

StartChar: Gestrokecyr
Encoding: 1170 1170 303
Width: 647
GlyphClass: 2
Flags: W
AnchorPoint: "Anchor-0" 330 741 basechar 0
LayerCount: 2
Fore
SplineSet
56 398 m 1,0,-1
 419 398 l 1,1,-1
 419 323 l 1,2,-1
 56 323 l 1,3,-1
 56 398 l 1,0,-1
242 635 m 1,4,-1
 242 112 l 2,5,6
 242 98 242 98 253 90 c 128,-1,7
 264 82 264 82 283 79 c 128,-1,8
 302 76 302 76 326 76 c 2,9,-1
 352 76 l 1,10,-1
 352 0 l 1,11,-1
 58 0 l 1,12,-1
 58 76 l 1,13,-1
 69 76 l 2,14,15
 98 76 98 76 120 83 c 128,-1,16
 142 90 142 90 142 112 c 2,17,-1
 142 598 l 2,18,19
 142 620 142 620 120 627 c 128,-1,20
 98 634 98 634 69 634 c 2,21,-1
 58 634 l 1,22,-1
 58 710 l 1,23,-1
 594 710 l 1,24,-1
 594 483 l 1,25,-1
 520 483 l 1,26,-1
 509 582 l 2,27,28
 506 603 506 603 495.5 614.5 c 128,-1,29
 485 626 485 626 461 630.5 c 128,-1,30
 437 635 437 635 395 635 c 2,31,-1
 242 635 l 1,4,-1
EndSplineSet
EndChar

StartChar: Zhetailcyr
Encoding: 1174 1174 304
Width: 1101
GlyphClass: 2
Flags: W
AnchorPoint: "Anchor-0" 540 741 basechar 0
LayerCount: 2
Fore
SplineSet
786 0 m 1,0,-1
 786 76 l 1,1,-1
 794 76 l 2,2,3
 814 76 814 76 832.5 77 c 128,-1,4
 851 78 851 78 862.5 80.5 c 128,-1,5
 874 83 874 83 874 86 c 2,6,-1
 645 344 l 1,7,-1
 645 372 l 1,8,-1
 884 623 l 2,9,10
 884 627 884 627 872.5 629 c 128,-1,11
 861 631 861 631 844 632.5 c 128,-1,12
 827 634 827 634 808 634 c 2,13,-1
 799 634 l 1,14,-1
 799 710 l 1,15,-1
 1049 710 l 1,16,-1
 1049 634 l 1,17,-1
 1020 634 l 2,18,19
 1010 634 1010 634 1000 631.5 c 128,-1,20
 990 629 990 629 979.5 623 c 128,-1,21
 969 617 969 617 958 605 c 2,22,-1
 721 356 l 1,23,-1
 722 398 l 1,24,-1
 1008 76 l 1,25,-1
 1008 0 l 1,26,-1
 786 0 l 1,0,-1
311 0 m 1,27,-1
 28 0 l 1,28,-1
 28 76 l 1,29,-1
 46 76 l 2,30,31
 60 76 60 76 71.5 77 c 128,-1,32
 83 78 83 78 93 82.5 c 128,-1,33
 103 87 103 87 110 96 c 2,34,-1
 379 398 l 1,35,-1
 374 356 l 1,36,-1
 137 605 l 2,37,38
 126 617 126 617 115.5 623 c 128,-1,39
 105 629 105 629 95 631.5 c 128,-1,40
 85 634 85 634 74 634 c 2,41,-1
 46 634 l 1,42,-1
 46 710 l 1,43,-1
 297 710 l 1,44,-1
 297 634 l 1,45,-1
 289 634 l 2,46,47
 270 634 270 634 253 632.5 c 128,-1,48
 236 631 236 631 224.5 629 c 128,-1,49
 213 627 213 627 213 623 c 2,50,-1
 451 372 l 1,51,-1
 451 344 l 1,52,-1
 223 85 l 2,53,54
 223 83 223 83 234.5 80.5 c 128,-1,55
 246 78 246 78 264.5 77 c 128,-1,56
 283 76 283 76 302 76 c 2,57,-1
 311 76 l 1,58,-1
 311 0 l 1,27,-1
876 0 m 2,59,-1
 864 0 l 1,60,-1
 879 76 l 1,61,-1
 1090 76 l 1,62,-1
 1090 -187 l 1,63,-1
 1016 -187 l 1,64,-1
 1003 -53 l 2,65,66
 1002 -35 1002 -35 989 -23.5 c 128,-1,67
 976 -12 976 -12 948.5 -6 c 128,-1,68
 921 0 921 0 876 0 c 2,59,-1
411 0 m 1,69,-1
 411 76 l 1,70,-1
 420 76 l 2,71,72
 433 76 433 76 446.5 76.5 c 128,-1,73
 460 77 460 77 472 78.5 c 128,-1,74
 484 80 484 80 491 81.5 c 128,-1,75
 498 83 498 83 498 85 c 2,76,-1
 498 625 l 2,77,78
 498 628 498 628 491 629 c 128,-1,79
 484 630 484 630 472 631.5 c 128,-1,80
 460 633 460 633 446.5 633.5 c 128,-1,81
 433 634 433 634 420 634 c 2,82,-1
 411 634 l 1,83,-1
 411 710 l 1,84,-1
 686 710 l 1,85,-1
 686 635 l 1,86,-1
 677 635 l 2,87,88
 665 635 665 635 651 634 c 128,-1,89
 637 633 637 633 625 631.5 c 128,-1,90
 613 630 613 630 605.5 628.5 c 128,-1,91
 598 627 598 627 598 625 c 2,92,-1
 598 85 l 2,93,94
 598 82 598 82 605.5 81 c 128,-1,95
 613 80 613 80 624.5 78.5 c 128,-1,96
 636 77 636 77 650.5 76.5 c 128,-1,97
 665 76 665 76 677 76 c 2,98,-1
 685 76 l 1,99,-1
 685 0 l 1,100,-1
 411 0 l 1,69,-1
EndSplineSet
EndChar

StartChar: Katailcyr
Encoding: 1178 1178 306
Width: 766
GlyphClass: 2
Flags: W
AnchorPoint: "Anchor-0" 390 741 basechar 0
LayerCount: 2
Fore
SplineSet
58 0 m 1,0,-1
 58 76 l 1,1,-1
 69 76 l 2,2,3
 98 76 98 76 120 83 c 128,-1,4
 142 90 142 90 142 112 c 2,5,-1
 142 598 l 2,6,7
 142 620 142 620 120 627 c 128,-1,8
 98 634 98 634 69 634 c 2,9,-1
 58 634 l 1,10,-1
 58 710 l 1,11,-1
 329 710 l 1,12,-1
 329 634 l 1,13,-1
 321 634 l 2,14,15
 309 634 309 634 295 633.5 c 128,-1,16
 281 633 281 633 269 631.5 c 128,-1,17
 257 630 257 630 249.5 629 c 128,-1,18
 242 628 242 628 242 625 c 2,19,-1
 242 86 l 2,20,21
 242 83 242 83 249.5 81.5 c 128,-1,22
 257 80 257 80 269 78.5 c 128,-1,23
 281 77 281 77 295 76.5 c 128,-1,24
 309 76 309 76 320 76 c 2,25,-1
 329 76 l 1,26,-1
 329 0 l 1,27,-1
 58 0 l 1,0,-1
447 0 m 1,28,-1
 447 76 l 1,29,-1
 456 76 l 2,30,31
 476 76 476 76 494 77 c 128,-1,32
 512 78 512 78 523.5 80.5 c 128,-1,33
 535 83 535 83 535 86 c 2,34,-1
 290 344 l 1,35,-1
 290 372 l 1,36,-1
 545 623 l 2,37,38
 545 627 545 627 534 629 c 128,-1,39
 523 631 523 631 505.5 632.5 c 128,-1,40
 488 634 488 634 470 634 c 2,41,-1
 461 634 l 1,42,-1
 461 710 l 1,43,-1
 713 710 l 1,44,-1
 713 634 l 1,45,-1
 687 634 l 2,46,47
 676 634 676 634 665.5 631.5 c 128,-1,48
 655 629 655 629 644.5 623 c 128,-1,49
 634 617 634 617 622 605 c 2,50,-1
 366 355 l 1,51,-1
 367 398 l 1,52,-1
 675 76 l 1,53,-1
 675 0 l 1,54,-1
 447 0 l 1,28,-1
540 0 m 2,55,-1
 528 0 l 1,56,-1
 543 76 l 1,57,-1
 754 76 l 1,58,-1
 754 -187 l 1,59,-1
 680 -187 l 1,60,-1
 668 -53 l 2,61,62
 666 -35 666 -35 653 -23.5 c 128,-1,63
 640 -12 640 -12 612.5 -6 c 128,-1,64
 585 0 585 0 540 0 c 2,55,-1
EndSplineSet
EndChar

StartChar: Kaverticalstrokecyr
Encoding: 1180 1180 307
Width: 848
GlyphClass: 2
Flags: W
AnchorPoint: "Anchor-0" 441 741 basechar 0
LayerCount: 2
Fore
SplineSet
320 171 m 1,0,-1
 320 544 l 1,1,-1
 396 544 l 1,2,-1
 396 171 l 1,3,-1
 320 171 l 1,0,-1
58 0 m 1,4,-1
 58 76 l 1,5,-1
 69 76 l 2,6,7
 98 76 98 76 120 83 c 128,-1,8
 142 90 142 90 142 112 c 2,9,-1
 142 598 l 2,10,11
 142 620 142 620 120 627 c 128,-1,12
 98 634 98 634 69 634 c 2,13,-1
 58 634 l 1,14,-1
 58 710 l 1,15,-1
 329 710 l 1,16,-1
 329 634 l 1,17,-1
 321 634 l 2,18,19
 309 634 309 634 295 633.5 c 128,-1,20
 281 633 281 633 269 631.5 c 128,-1,21
 257 630 257 630 249.5 629 c 128,-1,22
 242 628 242 628 242 625 c 2,23,-1
 242 86 l 2,24,25
 242 83 242 83 249.5 81.5 c 128,-1,26
 257 80 257 80 269 78.5 c 128,-1,27
 281 77 281 77 295 76.5 c 128,-1,28
 309 76 309 76 320 76 c 2,29,-1
 329 76 l 1,30,-1
 329 0 l 1,31,-1
 58 0 l 1,4,-1
538 0 m 1,32,-1
 538 76 l 1,33,-1
 547 76 l 2,34,35
 568 76 568 76 586.5 77 c 128,-1,36
 605 78 605 78 616.5 80.5 c 128,-1,37
 628 83 628 83 628 86 c 2,38,-1
 435 344 l 1,39,-1
 435 372 l 1,40,-1
 640 623 l 2,41,42
 641 627 641 627 629.5 629 c 128,-1,43
 618 631 618 631 599.5 632.5 c 128,-1,44
 581 634 581 634 561 634 c 2,45,-1
 552 634 l 1,46,-1
 552 710 l 1,47,-1
 800 710 l 1,48,-1
 800 634 l 1,49,-1
 771 634 l 2,50,51
 757 634 757 634 741.5 628.5 c 128,-1,52
 726 623 726 623 713 605 c 2,53,-1
 506 355 l 1,54,-1
 511 399 l 1,55,-1
 736 97 l 2,56,57
 743 88 743 88 754 83 c 128,-1,58
 765 78 765 78 777.5 77 c 128,-1,59
 790 76 790 76 802 76 c 2,60,-1
 820 76 l 1,61,-1
 820 0 l 1,62,-1
 538 0 l 1,32,-1
EndSplineSet
EndChar

StartChar: Kabashkcyr
Encoding: 1184 1184 308
Width: 908
GlyphClass: 2
Flags: W
AnchorPoint: "Anchor-0" 536 741 basechar 0
LayerCount: 2
Fore
SplineSet
590 0 m 1,0,-1
 590 76 l 1,1,-1
 598 76 l 2,2,3
 618 76 618 76 636.5 77 c 128,-1,4
 655 78 655 78 666.5 80.5 c 128,-1,5
 678 83 678 83 678 86 c 2,6,-1
 433 344 l 1,7,-1
 433 372 l 1,8,-1
 688 623 l 2,9,10
 688 627 688 627 676.5 629 c 128,-1,11
 665 631 665 631 647.5 632.5 c 128,-1,12
 630 634 630 634 612 634 c 2,13,-1
 604 634 l 1,14,-1
 604 710 l 1,15,-1
 855 710 l 1,16,-1
 855 634 l 1,17,-1
 829 634 l 2,18,19
 818 634 818 634 807.5 631.5 c 128,-1,20
 797 629 797 629 786.5 623 c 128,-1,21
 776 617 776 617 765 605 c 2,22,-1
 509 355 l 1,23,-1
 510 398 l 1,24,-1
 797 97 l 2,25,26
 807 88 807 88 817 83.5 c 128,-1,27
 827 79 827 79 838 77.5 c 128,-1,28
 849 76 849 76 862 76 c 2,29,-1
 881 76 l 1,30,-1
 881 0 l 1,31,-1
 590 0 l 1,0,-1
201 0 m 1,32,-1
 201 76 l 1,33,-1
 211 76 l 2,34,35
 241 76 241 76 263 83 c 128,-1,36
 285 90 285 90 285 112 c 2,37,-1
 285 635 l 1,38,-1
 246 635 l 2,39,40
 203 635 203 635 180.5 628.5 c 128,-1,41
 158 622 158 622 149 609.5 c 128,-1,42
 140 597 140 597 138 577 c 2,43,-1
 126 471 l 1,44,-1
 53 471 l 1,45,-1
 53 710 l 1,46,-1
 472 710 l 1,47,-1
 472 634 l 1,48,-1
 463 634 l 2,49,50
 448 634 448 634 429.5 633 c 128,-1,51
 411 632 411 632 398 630 c 128,-1,52
 385 628 385 628 385 625 c 2,53,-1
 385 86 l 2,54,55
 385 83 385 83 398 80.5 c 128,-1,56
 411 78 411 78 429.5 77 c 128,-1,57
 448 76 448 76 463 76 c 2,58,-1
 472 76 l 1,59,-1
 472 0 l 1,60,-1
 201 0 l 1,32,-1
EndSplineSet
EndChar

StartChar: Entailcyr
Encoding: 1186 1186 309
Width: 842
GlyphClass: 2
Flags: W
AnchorPoint: "Anchor-0" 422 741 basechar 0
LayerCount: 2
Fore
SplineSet
221 404 m 1,0,-1
 621 404 l 1,1,-1
 621 328 l 1,2,-1
 221 328 l 1,3,-1
 221 404 l 1,0,-1
58 0 m 1,4,-1
 58 76 l 1,5,-1
 69 76 l 2,6,7
 98 76 98 76 120 83 c 128,-1,8
 142 90 142 90 142 112 c 2,9,-1
 142 598 l 2,10,11
 142 620 142 620 120 627 c 128,-1,12
 98 634 98 634 69 634 c 2,13,-1
 58 634 l 1,14,-1
 58 710 l 1,15,-1
 334 710 l 1,16,-1
 334 635 l 1,17,-1
 325 635 l 2,18,19
 312 635 312 635 297 634 c 128,-1,20
 282 633 282 633 270 631.5 c 128,-1,21
 258 630 258 630 250 628.5 c 128,-1,22
 242 627 242 627 242 625 c 2,23,-1
 242 85 l 2,24,25
 242 82 242 82 250 81 c 128,-1,26
 258 80 258 80 270 78.5 c 128,-1,27
 282 77 282 77 297 76.5 c 128,-1,28
 312 76 312 76 325 76 c 2,29,-1
 334 76 l 1,30,-1
 334 0 l 1,31,-1
 58 0 l 1,4,-1
509 0 m 1,32,-1
 509 75 l 1,33,-1
 517 75 l 2,34,35
 530 75 530 75 545 76 c 128,-1,36
 560 77 560 77 572.5 78.5 c 128,-1,37
 585 80 585 80 592.5 81.5 c 128,-1,38
 600 83 600 83 600 85 c 2,39,-1
 600 625 l 2,40,41
 600 628 600 628 592.5 629 c 128,-1,42
 585 630 585 630 572.5 631.5 c 128,-1,43
 560 633 560 633 545.5 633.5 c 128,-1,44
 531 634 531 634 517 634 c 2,45,-1
 509 634 l 1,46,-1
 509 710 l 1,47,-1
 784 710 l 1,48,-1
 784 634 l 1,49,-1
 774 634 l 2,50,51
 744 634 744 634 722 627 c 128,-1,52
 700 620 700 620 700 598 c 2,53,-1
 700 0 l 1,54,-1
 509 0 l 1,32,-1
580 0 m 2,55,-1
 574 0 l 1,56,-1
 590 76 l 1,57,-1
 794 76 l 1,58,-1
 794 -187 l 1,59,-1
 721 -187 l 1,60,-1
 708 -53 l 2,61,62
 707 -35 707 -35 694 -23.5 c 128,-1,63
 681 -12 681 -12 653.5 -6 c 128,-1,64
 626 0 626 0 580 0 c 2,55,-1
EndSplineSet
EndChar

StartChar: Tetailcyr
Encoding: 1196 1196 311
Width: 713
GlyphClass: 2
Flags: W
AnchorPoint: "Anchor-0" 349 741 basechar 0
LayerCount: 2
Fore
SplineSet
307 112 m 2,0,-1
 307 635 l 1,1,-1
 246 635 l 2,2,3
 203 635 203 635 180.5 628.5 c 128,-1,4
 158 622 158 622 149 609.5 c 128,-1,5
 140 597 140 597 138 577 c 2,6,-1
 126 471 l 1,7,-1
 53 471 l 1,8,-1
 53 710 l 1,9,-1
 661 710 l 1,10,-1
 661 471 l 1,11,-1
 587 471 l 1,12,-1
 576 577 l 2,13,14
 574 597 574 597 565 609.5 c 128,-1,15
 556 622 556 622 533 628.5 c 128,-1,16
 510 635 510 635 467 635 c 2,17,-1
 407 635 l 1,18,-1
 407 0 l 1,19,-1
 205 0 l 1,20,-1
 205 76 l 1,21,-1
 224 76 l 2,22,23
 257 76 257 76 282 83 c 128,-1,24
 307 90 307 90 307 112 c 2,0,-1
301 0 m 2,25,-1
 284 0 l 1,26,-1
 302 76 l 1,27,-1
 515 76 l 1,28,-1
 515 -187 l 1,29,-1
 441 -187 l 1,30,-1
 429 -53 l 2,31,32
 427 -35 427 -35 414 -23.5 c 128,-1,33
 401 -12 401 -12 373.5 -6 c 128,-1,34
 346 0 346 0 301 0 c 2,25,-1
EndSplineSet
EndChar

StartChar: Ustraightstrokecyr
Encoding: 1200 1200 313
Width: 696
GlyphClass: 2
Flags: W
AnchorPoint: "Anchor-1" 348 0 basechar 0
AnchorPoint: "Anchor-0" 348 741 basechar 0
LayerCount: 2
Fore
SplineSet
164 275 m 1,0,-1
 538 275 l 1,1,-1
 538 199 l 1,2,-1
 164 199 l 1,3,-1
 164 275 l 1,0,-1
301 306 m 1,4,-1
 307 265 l 1,5,-1
 105 598 l 2,6,7
 96 613 96 613 86.5 621 c 128,-1,8
 77 629 77 629 66 631.5 c 128,-1,9
 55 634 55 634 41 634 c 2,10,-1
 28 634 l 1,11,-1
 28 710 l 1,12,-1
 273 710 l 1,13,-1
 273 634 l 1,14,-1
 257 634 l 2,15,16
 242 634 242 634 227.5 632.5 c 128,-1,17
 213 631 213 631 203.5 629 c 128,-1,18
 194 627 194 627 194 623 c 2,19,-1
 380 307 l 1,20,-1
 343 307 l 1,21,-1
 513 611 l 2,22,23
 513 618 513 618 503 623 c 128,-1,24
 493 628 493 628 480 631 c 128,-1,25
 467 634 467 634 456 634 c 2,26,-1
 445 634 l 1,27,-1
 445 710 l 1,28,-1
 667 710 l 1,29,-1
 667 634 l 1,30,-1
 654 634 l 2,31,32
 642 634 642 634 630 630 c 128,-1,33
 618 626 618 626 607 615 c 128,-1,34
 596 604 596 604 585 586 c 2,35,-1
 394 264 l 1,36,-1
 401 306 l 1,37,-1
 401 112 l 2,38,39
 401 90 401 90 424.5 83 c 128,-1,40
 448 76 448 76 481 76 c 2,41,-1
 501 76 l 1,42,-1
 501 0 l 1,43,-1
 200 0 l 1,44,-1
 200 76 l 1,45,-1
 221 76 l 2,46,47
 255 76 255 76 278 83 c 128,-1,48
 301 90 301 90 301 112 c 2,49,-1
 301 306 l 1,4,-1
EndSplineSet
EndChar

StartChar: Xatailcyr
Encoding: 1202 1202 314
Width: 745
GlyphClass: 2
Flags: W
AnchorPoint: "Anchor-0" 380 741 basechar 0
LayerCount: 2
Fore
SplineSet
42 634 m 1,0,-1
 42 710 l 1,1,-1
 315 710 l 1,2,-1
 315 634 l 1,3,-1
 299 634 l 2,4,5
 281 634 281 634 265 633 c 128,-1,6
 249 632 249 632 238.5 630.5 c 128,-1,7
 228 629 228 629 228 625 c 2,8,-1
 405 391 l 1,9,-1
 415 388 l 1,10,-1
 649 76 l 1,11,-1
 649 0 l 1,12,-1
 436 0 l 1,13,-1
 436 76 l 1,14,-1
 452 76 l 2,15,16
 470 76 470 76 486.5 77 c 128,-1,17
 503 78 503 78 513.5 80.5 c 128,-1,18
 524 83 524 83 524 85 c 2,19,-1
 334 339 l 1,20,-1
 324 342 l 1,21,-1
 129 600 l 2,22,23
 112 623 112 623 94.5 628.5 c 128,-1,24
 77 634 77 634 56 634 c 2,25,-1
 42 634 l 1,0,-1
29 0 m 1,26,-1
 29 76 l 1,27,-1
 48 76 l 2,28,29
 68 76 68 76 85 85.5 c 128,-1,30
 102 95 102 95 121 122 c 2,31,-1
 313 379 l 1,32,-1
 374 335 l 1,33,-1
 195 93 l 2,34,35
 195 89 195 89 206 85 c 128,-1,36
 217 81 217 81 232.5 78.5 c 128,-1,37
 248 76 248 76 262 76 c 2,38,-1
 280 76 l 1,39,-1
 280 0 l 1,40,-1
 29 0 l 1,26,-1
428 355 m 1,41,-1
 366 396 l 1,42,-1
 536 617 l 2,43,44
 536 623 536 623 524.5 626.5 c 128,-1,45
 513 630 513 630 497.5 632 c 128,-1,46
 482 634 482 634 467 634 c 2,47,-1
 453 634 l 1,48,-1
 453 710 l 1,49,-1
 700 710 l 1,50,-1
 700 634 l 1,51,-1
 686 634 l 2,52,53
 666 634 666 634 648.5 625.5 c 128,-1,54
 631 617 631 617 609 589 c 2,55,-1
 428 355 l 1,41,-1
519 0 m 2,56,-1
 513 0 l 1,57,-1
 528 76 l 1,58,-1
 733 76 l 1,59,-1
 733 -187 l 1,60,-1
 659 -187 l 1,61,-1
 647 -53 l 2,62,63
 646 -35 646 -35 633 -23.5 c 128,-1,64
 620 -12 620 -12 592.5 -6 c 128,-1,65
 565 0 565 0 519 0 c 2,56,-1
EndSplineSet
EndChar

StartChar: Chetailcyr
Encoding: 1206 1206 315
Width: 788
GlyphClass: 2
Flags: W
AnchorPoint: "Anchor-0" 386 741 basechar 0
LayerCount: 2
Fore
SplineSet
365 273 m 0,0,1
 276 273 276 273 223 294.5 c 128,-1,2
 170 316 170 316 146 364 c 128,-1,3
 122 412 122 412 122 492 c 2,4,-1
 122 598 l 2,5,6
 122 620 122 620 100 627 c 128,-1,7
 78 634 78 634 49 634 c 2,8,-1
 38 634 l 1,9,-1
 38 710 l 1,10,-1
 314 710 l 1,11,-1
 314 634 l 1,12,-1
 305 634 l 2,13,14
 287 634 287 634 268 633 c 128,-1,15
 249 632 249 632 235.5 630 c 128,-1,16
 222 628 222 628 222 624 c 2,17,-1
 222 497 l 2,18,19
 222 443 222 443 236 410.5 c 128,-1,20
 250 378 250 378 281.5 363.5 c 128,-1,21
 313 349 313 349 366 349 c 0,22,23
 421 349 421 349 479 360.5 c 128,-1,24
 537 372 537 372 588 404 c 1,25,-1
 588 327 l 1,26,27
 536 298 536 298 478 285.5 c 128,-1,28
 420 273 420 273 365 273 c 0,0,1
455 0 m 1,29,-1
 455 76 l 1,30,-1
 463 76 l 2,31,32
 481 76 481 76 500.5 77 c 128,-1,33
 520 78 520 78 533 80 c 128,-1,34
 546 82 546 82 546 85 c 2,35,-1
 546 625 l 2,36,37
 546 628 546 628 533 630 c 128,-1,38
 520 632 520 632 500.5 633 c 128,-1,39
 481 634 481 634 463 634 c 2,40,-1
 455 634 l 1,41,-1
 455 710 l 1,42,-1
 730 710 l 1,43,-1
 730 634 l 1,44,-1
 720 634 l 2,45,46
 690 634 690 634 668 627 c 128,-1,47
 646 620 646 620 646 598 c 2,48,-1
 646 0 l 1,49,-1
 455 0 l 1,29,-1
526 0 m 2,50,-1
 520 0 l 1,51,-1
 544 76 l 1,52,-1
 740 76 l 1,53,-1
 740 -187 l 1,54,-1
 667 -187 l 1,55,-1
 654 -53 l 2,56,57
 653 -35 653 -35 640 -23.5 c 128,-1,58
 627 -12 627 -12 599.5 -6 c 128,-1,59
 572 0 572 0 526 0 c 2,50,-1
EndSplineSet
EndChar

StartChar: Chevertcyr
Encoding: 1208 1208 316
Width: 808
GlyphClass: 2
Flags: W
AnchorPoint: "Anchor-0" 396 741 basechar 0
LayerCount: 2
Fore
SplineSet
474 0 m 1,0,-1
 474 76 l 1,1,-1
 483 76 l 2,2,3
 501 76 501 76 520 77 c 128,-1,4
 539 78 539 78 552.5 80 c 128,-1,5
 566 82 566 82 566 85 c 2,6,-1
 566 625 l 2,7,8
 566 628 566 628 552.5 630 c 128,-1,9
 539 632 539 632 520 633 c 128,-1,10
 501 634 501 634 483 634 c 2,11,-1
 474 634 l 1,12,-1
 474 710 l 1,13,-1
 750 710 l 1,14,-1
 750 634 l 1,15,-1
 740 634 l 2,16,17
 710 634 710 634 688 627 c 128,-1,18
 666 620 666 620 666 598 c 2,19,-1
 666 112 l 2,20,21
 666 90 666 90 688 83 c 128,-1,22
 710 76 710 76 740 76 c 2,23,-1
 750 76 l 1,24,-1
 750 0 l 1,25,-1
 474 0 l 1,0,-1
375 273 m 0,26,27
 283 273 283 273 227.5 294.5 c 128,-1,28
 172 316 172 316 147 364 c 128,-1,29
 122 412 122 412 122 492 c 2,30,-1
 122 598 l 2,31,32
 122 620 122 620 100 627 c 128,-1,33
 78 634 78 634 49 634 c 2,34,-1
 38 634 l 1,35,-1
 38 710 l 1,36,-1
 314 710 l 1,37,-1
 314 634 l 1,38,-1
 305 634 l 2,39,40
 287 634 287 634 268 633 c 128,-1,41
 249 632 249 632 235.5 630 c 128,-1,42
 222 628 222 628 222 624 c 2,43,-1
 222 497 l 2,44,45
 222 443 222 443 237 410.5 c 128,-1,46
 252 378 252 378 286 363.5 c 128,-1,47
 320 349 320 349 376 349 c 0,48,49
 433 349 433 349 494 360 c 128,-1,50
 555 371 555 371 608 404 c 1,51,-1
 608 327 l 1,52,53
 555 297 555 297 493.5 285 c 128,-1,54
 432 273 432 273 375 273 c 0,26,27
358 158 m 1,55,-1
 358 531 l 1,56,-1
 434 531 l 1,57,-1
 434 158 l 1,58,-1
 358 158 l 1,55,-1
EndSplineSet
EndChar

StartChar: Shhacyr
Encoding: 1210 1210 317
Width: 788
GlyphClass: 1
Flags: W
LayerCount: 2
Fore
SplineSet
334 710 m 1,0,-1
 334 634 l 1,1,-1
 325 634 l 2,2,3
 307 634 307 634 288 633 c 128,-1,4
 269 632 269 632 255.5 630 c 128,-1,5
 242 628 242 628 242 625 c 2,6,-1
 242 85 l 2,7,8
 242 82 242 82 255.5 80 c 128,-1,9
 269 78 269 78 288 77 c 128,-1,10
 307 76 307 76 325 76 c 2,11,-1
 334 76 l 1,12,-1
 334 0 l 1,13,-1
 58 0 l 1,14,-1
 58 76 l 1,15,-1
 69 76 l 2,16,17
 98 76 98 76 120 83 c 128,-1,18
 142 90 142 90 142 112 c 2,19,-1
 142 598 l 2,20,21
 142 620 142 620 120 627 c 128,-1,22
 98 634 98 634 69 634 c 2,23,-1
 58 634 l 1,24,-1
 58 710 l 1,25,-1
 334 710 l 1,0,-1
424 438 m 0,26,27
 512 438 512 438 565.5 416 c 128,-1,28
 619 394 619 394 642.5 346 c 128,-1,29
 666 298 666 298 666 218 c 2,30,-1
 666 112 l 2,31,32
 666 90 666 90 688.5 83 c 128,-1,33
 711 76 711 76 740 76 c 2,34,-1
 750 76 l 1,35,-1
 750 0 l 1,36,-1
 474 0 l 1,37,-1
 474 76 l 1,38,-1
 483 76 l 2,39,40
 501 76 501 76 520.5 77 c 128,-1,41
 540 78 540 78 553 80.5 c 128,-1,42
 566 83 566 83 566 86 c 2,43,-1
 566 213 l 2,44,45
 566 267 566 267 552 299.5 c 128,-1,46
 538 332 538 332 506.5 346.5 c 128,-1,47
 475 361 475 361 423 361 c 0,48,49
 368 361 368 361 309.5 349.5 c 128,-1,50
 251 338 251 338 201 308 c 1,51,-1
 201 385 l 1,52,53
 251 412 251 412 309.5 425 c 128,-1,54
 368 438 368 438 424 438 c 0,26,27
EndSplineSet
EndChar

StartChar: Obarcyr
Encoding: 1256 1256 320
Width: 799
GlyphClass: 2
Flags: W
AnchorPoint: "Anchor-1" 392 0 basechar 0
AnchorPoint: "Anchor-0" 392 741 basechar 0
LayerCount: 2
Fore
SplineSet
106 404 m 1,0,-1
 692 404 l 1,1,-1
 692 328 l 1,2,-1
 106 328 l 1,3,-1
 106 404 l 1,0,-1
399 -25 m 0,4,5
 323 -25 323 -25 261 0 c 128,-1,6
 199 25 199 25 153.5 73.5 c 128,-1,7
 108 122 108 122 84 192.5 c 128,-1,8
 60 263 60 263 60 355 c 0,9,10
 60 448 60 448 84 518.5 c 128,-1,11
 108 589 108 589 153.5 637.5 c 128,-1,12
 199 686 199 686 261 710.5 c 128,-1,13
 323 735 323 735 399 735 c 0,14,15
 476 735 476 735 538.5 710.5 c 128,-1,16
 601 686 601 686 645.5 637.5 c 128,-1,17
 690 589 690 589 714.5 518.5 c 128,-1,18
 739 448 739 448 739 355 c 0,19,20
 739 263 739 263 714.5 192.5 c 128,-1,21
 690 122 690 122 645.5 73.5 c 128,-1,22
 601 25 601 25 538.5 0 c 128,-1,23
 476 -25 476 -25 399 -25 c 0,4,5
399 53 m 0,24,25
 457 53 457 53 500.5 71 c 128,-1,26
 544 89 544 89 573 126.5 c 128,-1,27
 602 164 602 164 617 220.5 c 128,-1,28
 632 277 632 277 632 355 c 256,29,30
 632 433 632 433 617 489.5 c 128,-1,31
 602 546 602 546 573 583.5 c 128,-1,32
 544 621 544 621 500.5 639 c 128,-1,33
 457 657 457 657 399 657 c 0,34,35
 342 657 342 657 298.5 639 c 128,-1,36
 255 621 255 621 225.5 583.5 c 128,-1,37
 196 546 196 546 181 489.5 c 128,-1,38
 166 433 166 433 166 355 c 256,39,40
 166 277 166 277 181 220.5 c 128,-1,41
 196 164 196 164 225.5 126.5 c 128,-1,42
 255 89 255 89 298.5 71 c 128,-1,43
 342 53 342 53 399 53 c 0,24,25
EndSplineSet
EndChar

StartChar: Hastrokecyr
Encoding: 1278 1278 321
Width: 744
GlyphClass: 2
Flags: W
AnchorPoint: "Anchor-1" 350 0 basechar 0
AnchorPoint: "Anchor-0" 379 741 basechar 0
LayerCount: 2
Fore
SplineSet
168 406 m 1,0,-1
 572 406 l 1,1,-1
 572 330 l 1,2,-1
 168 330 l 1,3,-1
 168 406 l 1,0,-1
42 634 m 1,4,-1
 42 710 l 1,5,-1
 315 710 l 1,6,-1
 315 634 l 1,7,-1
 299 634 l 2,8,9
 281 634 281 634 265 633 c 128,-1,10
 249 632 249 632 238.5 630.5 c 128,-1,11
 228 629 228 629 228 625 c 2,12,-1
 405 391 l 1,13,-1
 414 388 l 1,14,-1
 624 110 l 2,15,16
 640 88 640 88 657 82 c 128,-1,17
 674 76 674 76 695 76 c 2,18,-1
 715 76 l 1,19,-1
 715 0 l 1,20,-1
 436 0 l 1,21,-1
 436 76 l 1,22,-1
 452 76 l 2,23,24
 470 76 470 76 486.5 77 c 128,-1,25
 503 78 503 78 513.5 80.5 c 128,-1,26
 524 83 524 83 524 85 c 2,27,-1
 334 339 l 1,28,-1
 325 342 l 1,29,-1
 129 600 l 2,30,31
 113 623 113 623 95 628.5 c 128,-1,32
 77 634 77 634 56 634 c 2,33,-1
 42 634 l 1,4,-1
29 0 m 1,34,-1
 29 76 l 1,35,-1
 48 76 l 2,36,37
 68 76 68 76 85 85.5 c 128,-1,38
 102 95 102 95 121 122 c 2,39,-1
 314 379 l 1,40,-1
 374 335 l 1,41,-1
 195 93 l 2,42,43
 195 89 195 89 206 85 c 128,-1,44
 217 81 217 81 232.5 78.5 c 128,-1,45
 248 76 248 76 262 76 c 2,46,-1
 280 76 l 1,47,-1
 280 0 l 1,48,-1
 29 0 l 1,34,-1
427 355 m 1,49,-1
 366 396 l 1,50,-1
 536 617 l 2,51,52
 536 623 536 623 524.5 626.5 c 128,-1,53
 513 630 513 630 497.5 632 c 128,-1,54
 482 634 482 634 467 634 c 2,55,-1
 453 634 l 1,56,-1
 453 710 l 1,57,-1
 700 710 l 1,58,-1
 700 634 l 1,59,-1
 686 634 l 2,60,61
 666 634 666 634 648.5 625.5 c 128,-1,62
 631 617 631 617 609 589 c 2,63,-1
 427 355 l 1,49,-1
EndSplineSet
EndChar

StartChar: a
Encoding: 97 97 322
Width: 601
GlyphClass: 2
Flags: W
AnchorPoint: "Anchor-2" 452 -10 basechar 0
AnchorPoint: "Anchor-1" 310 0 basechar 0
AnchorPoint: "Anchor-0" 279 565 basechar 0
LayerCount: 2
Fore
SplineSet
412 346 m 1,0,-1
 412 283 l 1,1,2
 345 272 345 272 299.5 261 c 128,-1,3
 254 250 254 250 226 237 c 128,-1,4
 198 224 198 224 184 209.5 c 128,-1,5
 170 195 170 195 165 177.5 c 128,-1,6
 160 160 160 160 160 138 c 0,7,8
 160 107 160 107 170.5 90 c 128,-1,9
 181 73 181 73 199.5 66 c 128,-1,10
 218 59 218 59 242 59 c 0,11,12
 270 59 270 59 296 71.5 c 128,-1,13
 322 84 322 84 350 112 c 128,-1,14
 378 140 378 140 410 188 c 1,15,-1
 412 126 l 1,16,17
 389 83 389 83 361.5 52 c 128,-1,18
 334 21 334 21 301.5 4.5 c 128,-1,19
 269 -12 269 -12 229 -12 c 0,20,21
 177 -12 177 -12 139.5 4.5 c 128,-1,22
 102 21 102 21 83 54.5 c 128,-1,23
 64 88 64 88 64 138 c 0,24,25
 64 181 64 181 80 212.5 c 128,-1,26
 96 244 96 244 135 268 c 128,-1,27
 174 292 174 292 241.5 311.5 c 128,-1,28
 309 331 309 331 412 346 c 1,0,-1
426 0 m 1,29,-1
 402 122 l 1,30,-1
 402 131 l 1,31,-1
 402 410 l 2,32,33
 402 440 402 440 394 459.5 c 128,-1,34
 386 479 386 479 362.5 489 c 128,-1,35
 339 499 339 499 291 499 c 0,36,37
 226 499 226 499 182 485.5 c 128,-1,38
 138 472 138 472 121 460 c 1,39,40
 122 465 122 465 127.5 474.5 c 128,-1,41
 133 484 133 484 142 493.5 c 128,-1,42
 151 503 151 503 163 509.5 c 128,-1,43
 175 516 175 516 189 515 c 1,44,-1
 189 387 l 1,45,-1
 93 387 l 1,46,-1
 93 527 l 1,47,48
 107 537 107 537 134 548 c 128,-1,49
 161 559 161 559 201 567 c 128,-1,50
 241 575 241 575 294 575 c 0,51,52
 339 575 339 575 376.5 567 c 128,-1,53
 414 559 414 559 441 542 c 128,-1,54
 468 525 468 525 483 498 c 128,-1,55
 498 471 498 471 498 432 c 2,56,-1
 498 123 l 2,57,58
 498 108 498 108 505 98.5 c 128,-1,59
 512 89 512 89 527.5 83.5 c 128,-1,60
 543 78 543 78 568 72 c 2,61,-1
 577 70 l 1,62,-1
 577 0 l 1,63,-1
 426 0 l 1,29,-1
EndSplineSet
Substitution2: "'ss06' Style Set 6 lookup 66 subtable" a.alt
EndChar

StartChar: aogonek
Encoding: 261 261 331
Width: 601
GlyphClass: 1
Flags: W
LayerCount: 2
Fore
SplineSet
263 -162 m 0,0,1
 263 -138 263 -138 271 -119.5 c 128,-1,2
 279 -101 279 -101 300 -81 c 128,-1,3
 321 -61 321 -61 358.5 -33 c 128,-1,4
 396 -5 396 -5 454 37 c 1,5,-1
 485 2 l 1,6,7
 450 -30 450 -30 426.5 -52.5 c 128,-1,8
 403 -75 403 -75 390.5 -91 c 128,-1,9
 378 -107 378 -107 373 -121 c 128,-1,10
 368 -135 368 -135 368 -151 c 0,11,12
 368 -168 368 -168 378.5 -178.5 c 128,-1,13
 389 -189 389 -189 411 -189 c 0,14,15
 440 -189 440 -189 460.5 -174.5 c 128,-1,16
 481 -160 481 -160 494 -144 c 1,17,-1
 534 -182 l 1,18,19
 509 -213 509 -213 475 -232.5 c 128,-1,20
 441 -252 441 -252 388 -252 c 256,21,22
 335 -252 335 -252 299 -230.5 c 128,-1,23
 263 -209 263 -209 263 -162 c 0,0,1
577 0 m 1,24,-1
 428 0 l 1,25,-1
 404 122 l 1,26,-1
 399 131 l 1,27,-1
 399 416 l 2,28,29
 399 445 399 445 391.5 464 c 128,-1,30
 384 483 384 483 360.5 492.5 c 128,-1,31
 337 502 337 502 291 502 c 0,32,33
 224 502 224 502 180 491 c 128,-1,34
 136 480 136 480 118 468 c 1,35,36
 119 473 119 473 124.5 480.5 c 128,-1,37
 130 488 130 488 139 496.5 c 128,-1,38
 148 505 148 505 160 510.5 c 128,-1,39
 172 516 172 516 186 515 c 1,40,-1
 186 387 l 1,41,-1
 90 387 l 1,42,-1
 90 527 l 1,43,44
 105 538 105 538 132.5 549 c 128,-1,45
 160 560 160 560 200 567.5 c 128,-1,46
 240 575 240 575 294 575 c 0,47,48
 338 575 338 575 375.5 567 c 128,-1,49
 413 559 413 559 439.5 542 c 128,-1,50
 466 525 466 525 480.5 498 c 128,-1,51
 495 471 495 471 495 432 c 2,52,-1
 495 117 l 2,53,54
 495 103 495 103 502.5 95 c 128,-1,55
 510 87 510 87 526 82.5 c 128,-1,56
 542 78 542 78 568 72 c 2,57,-1
 577 70 l 1,58,-1
 577 0 l 1,24,-1
59 138 m 0,59,60
 59 182 59 182 75 214.5 c 128,-1,61
 91 247 91 247 130 270.5 c 128,-1,62
 169 294 169 294 237 313 c 128,-1,63
 305 332 305 332 410 348 c 1,64,-1
 410 284 l 1,65,66
 341 273 341 273 295.5 261.5 c 128,-1,67
 250 250 250 250 222 237.5 c 128,-1,68
 194 225 194 225 180 210.5 c 128,-1,69
 166 196 166 196 161 178 c 128,-1,70
 156 160 156 160 156 138 c 0,71,72
 156 107 156 107 167 90 c 128,-1,73
 178 73 178 73 197 66 c 128,-1,74
 216 59 216 59 241 59 c 0,75,76
 269 59 269 59 295 70.5 c 128,-1,77
 321 82 321 82 349 109 c 128,-1,78
 377 136 377 136 408 182 c 1,79,-1
 410 120 l 1,80,81
 388 78 388 78 360 48.5 c 128,-1,82
 332 19 332 19 298.5 3.5 c 128,-1,83
 265 -12 265 -12 224 -12 c 0,84,85
 172 -12 172 -12 135 4.5 c 128,-1,86
 98 21 98 21 78.5 54.5 c 128,-1,87
 59 88 59 88 59 138 c 0,59,60
EndSplineSet
Substitution2: "'ss06' Style Set 6 lookup 66 subtable" aogonek.alt
EndChar

StartChar: acaron
Encoding: 462 462 332
Width: 601
GlyphClass: 1
Flags: W
LayerCount: 2
Fore
SplineSet
256 652 m 1,0,-1
 323 652 l 1,1,-1
 457 824 l 1,2,-1
 457 844 l 1,3,-1
 404 844 l 1,4,-1
 224 694 l 1,5,-1
 355 698 l 1,6,-1
 179 844 l 1,7,-1
 120 844 l 1,8,-1
 120 824 l 1,9,-1
 256 652 l 1,0,-1
412 346 m 1,10,-1
 412 283 l 1,11,12
 345 272 345 272 299.5 261 c 128,-1,13
 254 250 254 250 226 237 c 128,-1,14
 198 224 198 224 184 209.5 c 128,-1,15
 170 195 170 195 165 177.5 c 128,-1,16
 160 160 160 160 160 138 c 0,17,18
 160 107 160 107 170.5 90 c 128,-1,19
 181 73 181 73 199.5 66 c 128,-1,20
 218 59 218 59 242 59 c 0,21,22
 270 59 270 59 296 71.5 c 128,-1,23
 322 84 322 84 350 112 c 128,-1,24
 378 140 378 140 410 188 c 1,25,-1
 412 126 l 1,26,27
 389 83 389 83 361.5 52 c 128,-1,28
 334 21 334 21 301.5 4.5 c 128,-1,29
 269 -12 269 -12 229 -12 c 0,30,31
 177 -12 177 -12 139.5 4.5 c 128,-1,32
 102 21 102 21 83 54.5 c 128,-1,33
 64 88 64 88 64 138 c 0,34,35
 64 181 64 181 80 212.5 c 128,-1,36
 96 244 96 244 135 268 c 128,-1,37
 174 292 174 292 241.5 311.5 c 128,-1,38
 309 331 309 331 412 346 c 1,10,-1
426 0 m 1,39,-1
 402 122 l 1,40,-1
 402 131 l 1,41,-1
 402 410 l 2,42,43
 402 440 402 440 394 459.5 c 128,-1,44
 386 479 386 479 362.5 489 c 128,-1,45
 339 499 339 499 291 499 c 0,46,47
 226 499 226 499 182 485.5 c 128,-1,48
 138 472 138 472 121 460 c 1,49,50
 122 465 122 465 127.5 474.5 c 128,-1,51
 133 484 133 484 142 493.5 c 128,-1,52
 151 503 151 503 163 509.5 c 128,-1,53
 175 516 175 516 189 515 c 1,54,-1
 189 387 l 1,55,-1
 93 387 l 1,56,-1
 93 527 l 1,57,58
 107 537 107 537 134 548 c 128,-1,59
 161 559 161 559 201 567 c 128,-1,60
 241 575 241 575 294 575 c 0,61,62
 339 575 339 575 376.5 567 c 128,-1,63
 414 559 414 559 441 542 c 128,-1,64
 468 525 468 525 483 498 c 128,-1,65
 498 471 498 471 498 432 c 2,66,-1
 498 123 l 2,67,68
 498 108 498 108 505 98.5 c 128,-1,69
 512 89 512 89 527.5 83.5 c 128,-1,70
 543 78 543 78 568 72 c 2,71,-1
 577 70 l 1,72,-1
 577 0 l 1,73,-1
 426 0 l 1,39,-1
EndSplineSet
Substitution2: "'ss06' Style Set 6 lookup 66 subtable" acaron.alt
EndChar

StartChar: adblgrave
Encoding: 513 513 334
Width: 601
GlyphClass: 1
Flags: W
LayerCount: 2
Fore
SplineSet
398 806 m 2,0,-1
 429 692 l 1,1,-1
 427 661 l 1,2,-1
 390 661 l 1,3,-1
 311 745 l 2,4,5
 293 765 293 765 284 781.5 c 128,-1,6
 275 798 275 798 275 817 c 0,7,8
 275 840 275 840 289 855 c 128,-1,9
 303 870 303 870 328 870 c 0,10,11
 356 870 356 870 373.5 852 c 128,-1,12
 391 834 391 834 398 806 c 2,0,-1
204 806 m 2,13,-1
 233 692 l 1,14,-1
 233 661 l 1,15,-1
 195 661 l 1,16,-1
 116 745 l 2,17,18
 99 765 99 765 90 781.5 c 128,-1,19
 81 798 81 798 81 817 c 0,20,21
 81 840 81 840 95 855 c 128,-1,22
 109 870 109 870 133 870 c 0,23,24
 162 870 162 870 179.5 852 c 128,-1,25
 197 834 197 834 204 806 c 2,13,-1
412 346 m 1,26,-1
 412 283 l 1,27,28
 345 272 345 272 299.5 261 c 128,-1,29
 254 250 254 250 226 237 c 128,-1,30
 198 224 198 224 184 209.5 c 128,-1,31
 170 195 170 195 165 177.5 c 128,-1,32
 160 160 160 160 160 138 c 0,33,34
 160 107 160 107 170.5 90 c 128,-1,35
 181 73 181 73 199.5 66 c 128,-1,36
 218 59 218 59 242 59 c 0,37,38
 270 59 270 59 296 71.5 c 128,-1,39
 322 84 322 84 350 112 c 128,-1,40
 378 140 378 140 410 188 c 1,41,-1
 412 126 l 1,42,43
 389 83 389 83 361.5 52 c 128,-1,44
 334 21 334 21 301.5 4.5 c 128,-1,45
 269 -12 269 -12 229 -12 c 0,46,47
 177 -12 177 -12 139.5 4.5 c 128,-1,48
 102 21 102 21 83 54.5 c 128,-1,49
 64 88 64 88 64 138 c 0,50,51
 64 181 64 181 80 212.5 c 128,-1,52
 96 244 96 244 135 268 c 128,-1,53
 174 292 174 292 241.5 311.5 c 128,-1,54
 309 331 309 331 412 346 c 1,26,-1
426 0 m 1,55,-1
 402 122 l 1,56,-1
 402 131 l 1,57,-1
 402 410 l 2,58,59
 402 440 402 440 394 459.5 c 128,-1,60
 386 479 386 479 362.5 489 c 128,-1,61
 339 499 339 499 291 499 c 0,62,63
 226 499 226 499 182 485.5 c 128,-1,64
 138 472 138 472 121 460 c 1,65,66
 122 465 122 465 127.5 474.5 c 128,-1,67
 133 484 133 484 142 493.5 c 128,-1,68
 151 503 151 503 163 509.5 c 128,-1,69
 175 516 175 516 189 515 c 1,70,-1
 189 387 l 1,71,-1
 93 387 l 1,72,-1
 93 527 l 1,73,74
 107 537 107 537 134 548 c 128,-1,75
 161 559 161 559 201 567 c 128,-1,76
 241 575 241 575 294 575 c 0,77,78
 339 575 339 575 376.5 567 c 128,-1,79
 414 559 414 559 441 542 c 128,-1,80
 468 525 468 525 483 498 c 128,-1,81
 498 471 498 471 498 432 c 2,82,-1
 498 123 l 2,83,84
 498 108 498 108 505 98.5 c 128,-1,85
 512 89 512 89 527.5 83.5 c 128,-1,86
 543 78 543 78 568 72 c 2,87,-1
 577 70 l 1,88,-1
 577 0 l 1,89,-1
 426 0 l 1,55,-1
EndSplineSet
Substitution2: "'ss06' Style Set 6 lookup 66 subtable" adblgrave.alt
EndChar

StartChar: ainvertedbreve
Encoding: 515 515 335
Width: 601
GlyphClass: 1
Flags: W
LayerCount: 2
Fore
SplineSet
283 832 m 0,0,1
 228 832 228 832 192.5 817 c 128,-1,2
 157 802 157 802 140.5 765.5 c 128,-1,3
 124 729 124 729 124 666 c 1,4,-1
 201 666 l 1,5,6
 202 706 202 706 208 725 c 128,-1,7
 214 744 214 744 230.5 750 c 128,-1,8
 247 756 247 756 281 756 c 0,9,10
 314 756 314 756 331 750 c 128,-1,11
 348 744 348 744 354.5 725 c 128,-1,12
 361 706 361 706 362 666 c 1,13,-1
 443 666 l 1,14,15
 444 729 444 729 427 765.5 c 128,-1,16
 410 802 410 802 374.5 817 c 128,-1,17
 339 832 339 832 283 832 c 0,0,1
412 346 m 1,18,-1
 412 283 l 1,19,20
 345 272 345 272 299.5 261 c 128,-1,21
 254 250 254 250 226 237 c 128,-1,22
 198 224 198 224 184 209.5 c 128,-1,23
 170 195 170 195 165 177.5 c 128,-1,24
 160 160 160 160 160 138 c 0,25,26
 160 107 160 107 170.5 90 c 128,-1,27
 181 73 181 73 199.5 66 c 128,-1,28
 218 59 218 59 242 59 c 0,29,30
 270 59 270 59 296 71.5 c 128,-1,31
 322 84 322 84 350 112 c 128,-1,32
 378 140 378 140 410 188 c 1,33,-1
 412 126 l 1,34,35
 389 83 389 83 361.5 52 c 128,-1,36
 334 21 334 21 301.5 4.5 c 128,-1,37
 269 -12 269 -12 229 -12 c 0,38,39
 177 -12 177 -12 139.5 4.5 c 128,-1,40
 102 21 102 21 83 54.5 c 128,-1,41
 64 88 64 88 64 138 c 0,42,43
 64 181 64 181 80 212.5 c 128,-1,44
 96 244 96 244 135 268 c 128,-1,45
 174 292 174 292 241.5 311.5 c 128,-1,46
 309 331 309 331 412 346 c 1,18,-1
426 0 m 1,47,-1
 402 122 l 1,48,-1
 402 131 l 1,49,-1
 402 410 l 2,50,51
 402 440 402 440 394 459.5 c 128,-1,52
 386 479 386 479 362.5 489 c 128,-1,53
 339 499 339 499 291 499 c 0,54,55
 226 499 226 499 182 485.5 c 128,-1,56
 138 472 138 472 121 460 c 1,57,58
 122 465 122 465 127.5 474.5 c 128,-1,59
 133 484 133 484 142 493.5 c 128,-1,60
 151 503 151 503 163 509.5 c 128,-1,61
 175 516 175 516 189 515 c 1,62,-1
 189 387 l 1,63,-1
 93 387 l 1,64,-1
 93 527 l 1,65,66
 107 537 107 537 134 548 c 128,-1,67
 161 559 161 559 201 567 c 128,-1,68
 241 575 241 575 294 575 c 0,69,70
 339 575 339 575 376.5 567 c 128,-1,71
 414 559 414 559 441 542 c 128,-1,72
 468 525 468 525 483 498 c 128,-1,73
 498 471 498 471 498 432 c 2,74,-1
 498 123 l 2,75,76
 498 108 498 108 505 98.5 c 128,-1,77
 512 89 512 89 527.5 83.5 c 128,-1,78
 543 78 543 78 568 72 c 2,79,-1
 577 70 l 1,80,-1
 577 0 l 1,81,-1
 426 0 l 1,47,-1
EndSplineSet
Substitution2: "'ss06' Style Set 6 lookup 66 subtable" ainvertedbreve.alt
EndChar

StartChar: b
Encoding: 98 98 348
Width: 668
GlyphClass: 2
Flags: W
AnchorPoint: "Anchor-1" 349 0 basechar 0
AnchorPoint: "Anchor-0" 329 755 basechar 0
LayerCount: 2
Fore
SplineSet
376 -13 m 0,0,1
 331 -13 331 -13 294.5 4.5 c 128,-1,2
 258 22 258 22 228.5 54 c 128,-1,3
 199 86 199 86 175 130 c 1,4,-1
 181 187 l 1,5,6
 209 147 209 147 237 120 c 128,-1,7
 265 93 265 93 297.5 80 c 128,-1,8
 330 67 330 67 369 67 c 0,9,10
 406 67 406 67 434 80 c 128,-1,11
 462 93 462 93 481 120 c 128,-1,12
 500 147 500 147 510 188 c 128,-1,13
 520 229 520 229 520 285 c 0,14,15
 520 339 520 339 511 378.5 c 128,-1,16
 502 418 502 418 484.5 444 c 128,-1,17
 467 470 467 470 440 482.5 c 128,-1,18
 413 495 413 495 376 495 c 0,19,20
 335 495 335 495 301 483 c 128,-1,21
 267 471 267 471 237.5 445 c 128,-1,22
 208 419 208 419 178 377 c 1,23,-1
 175 431 l 1,24,25
 200 476 200 476 230.5 508 c 128,-1,26
 261 540 261 540 299.5 557.5 c 128,-1,27
 338 575 338 575 387 575 c 0,28,29
 465 575 465 575 517 538 c 128,-1,30
 569 501 569 501 594.5 436 c 128,-1,31
 620 371 620 371 620 285 c 0,32,33
 620 200 620 200 592 132.5 c 128,-1,34
 564 65 564 65 509.5 26 c 128,-1,35
 455 -13 455 -13 376 -13 c 0,0,1
99 661 m 2,36,37
 99 676 99 676 91 684 c 128,-1,38
 83 692 83 692 67 697 c 128,-1,39
 51 702 51 702 29 706 c 2,40,-1
 20 708 l 1,41,-1
 20 780 l 1,42,-1
 195 780 l 1,43,-1
 195 121 l 1,44,-1
 195 121 l 1,45,-1
 166 -19 l 1,46,-1
 99 -19 l 1,47,-1
 99 661 l 2,36,37
EndSplineSet
EndChar

StartChar: c
Encoding: 99 99 349
Width: 572
GlyphClass: 2
Flags: W
AnchorPoint: "Anchor-1" 316 0 basechar 0
AnchorPoint: "Anchor-0" 306 565 basechar 0
LayerCount: 2
Fore
SplineSet
322 64 m 0,0,1
 362 64 362 64 390 74.5 c 128,-1,2
 418 85 418 85 438 105 c 128,-1,3
 458 125 458 125 474 154 c 1,4,-1
 531 112 l 1,5,6
 514 74 514 74 482 45.5 c 128,-1,7
 450 17 450 17 409 2 c 128,-1,8
 368 -13 368 -13 321 -13 c 0,9,10
 234 -13 234 -13 173 22 c 128,-1,11
 112 57 112 57 80 123 c 128,-1,12
 48 189 48 189 48 282 c 256,13,14
 48 375 48 375 80 440.5 c 128,-1,15
 112 506 112 506 173 540.5 c 128,-1,16
 234 575 234 575 321 575 c 0,17,18
 373 575 373 575 412 569 c 128,-1,19
 451 563 451 563 476 555 c 128,-1,20
 501 547 501 547 511 541 c 1,21,-1
 511 365 l 1,22,-1
 411 365 l 1,23,-1
 411 508 l 1,24,25
 420 508 420 508 430 503 c 128,-1,26
 440 498 440 498 448 490.5 c 128,-1,27
 456 483 456 483 461 476.5 c 128,-1,28
 466 470 466 470 467 467 c 1,29,30
 443 479 443 479 406.5 488.5 c 128,-1,31
 370 498 370 498 322 498 c 0,32,33
 260 498 260 498 222 473.5 c 128,-1,34
 184 449 184 449 166.5 401.5 c 128,-1,35
 149 354 149 354 149 282 c 0,36,37
 149 225 149 225 158.5 183.5 c 128,-1,38
 168 142 168 142 188 115.5 c 128,-1,39
 208 89 208 89 241 76.5 c 128,-1,40
 274 64 274 64 322 64 c 0,0,1
EndSplineSet
EndChar

StartChar: ccaron
Encoding: 269 269 354
Width: 572
GlyphClass: 1
Flags: W
LayerCount: 2
Fore
SplineSet
272 652 m 1,0,-1
 339 652 l 1,1,-1
 473 824 l 1,2,-1
 473 844 l 1,3,-1
 421 844 l 1,4,-1
 241 694 l 1,5,-1
 372 698 l 1,6,-1
 196 844 l 1,7,-1
 136 844 l 1,8,-1
 136 824 l 1,9,-1
 272 652 l 1,0,-1
322 64 m 0,10,11
 362 64 362 64 390 74.5 c 128,-1,12
 418 85 418 85 438 105 c 128,-1,13
 458 125 458 125 474 154 c 1,14,-1
 531 112 l 1,15,16
 514 74 514 74 482 45.5 c 128,-1,17
 450 17 450 17 409 2 c 128,-1,18
 368 -13 368 -13 321 -13 c 0,19,20
 234 -13 234 -13 173 22 c 128,-1,21
 112 57 112 57 80 123 c 128,-1,22
 48 189 48 189 48 282 c 256,23,24
 48 375 48 375 80 440.5 c 128,-1,25
 112 506 112 506 173 540.5 c 128,-1,26
 234 575 234 575 321 575 c 0,27,28
 373 575 373 575 412 569 c 128,-1,29
 451 563 451 563 476 555 c 128,-1,30
 501 547 501 547 511 541 c 1,31,-1
 511 365 l 1,32,-1
 411 365 l 1,33,-1
 411 508 l 1,34,35
 420 508 420 508 430 503 c 128,-1,36
 440 498 440 498 448 490.5 c 128,-1,37
 456 483 456 483 461 476.5 c 128,-1,38
 466 470 466 470 467 467 c 1,39,40
 443 479 443 479 406.5 488.5 c 128,-1,41
 370 498 370 498 322 498 c 0,42,43
 260 498 260 498 222 473.5 c 128,-1,44
 184 449 184 449 166.5 401.5 c 128,-1,45
 149 354 149 354 149 282 c 0,46,47
 149 225 149 225 158.5 183.5 c 128,-1,48
 168 142 168 142 188 115.5 c 128,-1,49
 208 89 208 89 241 76.5 c 128,-1,50
 274 64 274 64 322 64 c 0,10,11
EndSplineSet
EndChar

StartChar: d
Encoding: 100 100 356
Width: 677
GlyphClass: 2
Flags: W
AnchorPoint: "Anchor-2" 642 735 basechar 0
AnchorPoint: "Anchor-1" 316 0 basechar 0
LayerCount: 2
Fore
SplineSet
569 117 m 2,0,1
 569 95 569 95 588 87.5 c 128,-1,2
 607 80 607 80 639 72 c 2,3,-1
 648 70 l 1,4,-1
 648 0 l 1,5,-1
 502 0 l 1,6,-1
 479 126 l 1,7,-1
 473 121 l 1,8,-1
 473 661 l 2,9,10
 473 676 473 676 464.5 683.5 c 128,-1,11
 456 691 456 691 439 696 c 128,-1,12
 422 701 422 701 396 706 c 2,13,-1
 386 708 l 1,14,-1
 386 780 l 1,15,-1
 569 780 l 1,16,-1
 569 117 l 2,0,1
292 575 m 0,17,18
 338 575 338 575 374 557.5 c 128,-1,19
 410 540 410 540 439.5 508.5 c 128,-1,20
 469 477 469 477 493 432 c 1,21,-1
 487 375 l 1,22,23
 460 416 460 416 431.5 442.5 c 128,-1,24
 403 469 403 469 371 482 c 128,-1,25
 339 495 339 495 300 495 c 0,26,27
 263 495 263 495 234.5 482 c 128,-1,28
 206 469 206 469 187 442 c 128,-1,29
 168 415 168 415 158.5 374 c 128,-1,30
 149 333 149 333 149 277 c 0,31,32
 149 224 149 224 157.5 184 c 128,-1,33
 166 144 166 144 183.5 118 c 128,-1,34
 201 92 201 92 228.5 79.5 c 128,-1,35
 256 67 256 67 292 67 c 0,36,37
 334 67 334 67 367.5 79 c 128,-1,38
 401 91 401 91 431 117.5 c 128,-1,39
 461 144 461 144 490 185 c 1,40,-1
 493 131 l 1,41,42
 468 87 468 87 438 54.5 c 128,-1,43
 408 22 408 22 369 4.5 c 128,-1,44
 330 -13 330 -13 281 -13 c 0,45,46
 204 -13 204 -13 152 24 c 128,-1,47
 100 61 100 61 74 126.5 c 128,-1,48
 48 192 48 192 48 277 c 0,49,50
 48 363 48 363 76 430 c 128,-1,51
 104 497 104 497 158.5 536 c 128,-1,52
 213 575 213 575 292 575 c 0,17,18
EndSplineSet
EndChar

StartChar: e
Encoding: 101 101 360
Width: 580
GlyphClass: 2
Flags: W
AnchorPoint: "Anchor-2" 459 1 basechar 0
AnchorPoint: "Anchor-1" 319 0 basechar 0
AnchorPoint: "Anchor-0" 296 565 basechar 0
LayerCount: 2
Fore
SplineSet
145 276 m 0,0,1
 145 212 145 212 159 171 c 128,-1,2
 173 130 173 130 197.5 106.5 c 128,-1,3
 222 83 222 83 253.5 73.5 c 128,-1,4
 285 64 285 64 321 64 c 0,5,6
 362 64 362 64 390 75.5 c 128,-1,7
 418 87 418 87 439 107.5 c 128,-1,8
 460 128 460 128 477 156 c 1,9,-1
 535 115 l 1,10,11
 517 77 517 77 484 48 c 128,-1,12
 451 19 451 19 408.5 3 c 128,-1,13
 366 -13 366 -13 316 -13 c 0,14,15
 241 -13 241 -13 180 19 c 128,-1,16
 119 51 119 51 83.5 115.5 c 128,-1,17
 48 180 48 180 48 276 c 0,18,19
 48 368 48 368 79.5 435 c 128,-1,20
 111 502 111 502 167.5 538.5 c 128,-1,21
 224 575 224 575 301 575 c 0,22,23
 360 575 360 575 403.5 555 c 128,-1,24
 447 535 447 535 475 494.5 c 128,-1,25
 503 454 503 454 517.5 392.5 c 128,-1,26
 532 331 532 331 532 248 c 1,27,-1
 109 248 l 1,28,-1
 109 322 l 1,29,-1
 460 322 l 1,30,-1
 436 293 l 1,31,32
 434 352 434 352 425.5 391.5 c 128,-1,33
 417 431 417 431 401.5 454.5 c 128,-1,34
 386 478 386 478 361 488 c 128,-1,35
 336 498 336 498 301 498 c 0,36,37
 265 498 265 498 236 485.5 c 128,-1,38
 207 473 207 473 187 446.5 c 128,-1,39
 167 420 167 420 156 378 c 128,-1,40
 145 336 145 336 145 276 c 0,0,1
EndSplineSet
EndChar

StartChar: eogonek
Encoding: 281 281 368
Width: 580
GlyphClass: 1
Flags: W
LayerCount: 2
Fore
SplineSet
399 40 m 1,0,-1
 399 0 l 1,1,2
 380 -6 380 -6 360 -9.5 c 128,-1,3
 340 -13 340 -13 318 -13 c 0,4,5
 241 -13 241 -13 180 19 c 128,-1,6
 119 51 119 51 83.5 115.5 c 128,-1,7
 48 180 48 180 48 276 c 0,8,9
 48 368 48 368 79 435 c 128,-1,10
 110 502 110 502 167 538.5 c 128,-1,11
 224 575 224 575 301 575 c 0,12,13
 360 575 360 575 403.5 555 c 128,-1,14
 447 535 447 535 475 494.5 c 128,-1,15
 503 454 503 454 517.5 393 c 128,-1,16
 532 332 532 332 532 251 c 1,17,-1
 113 251 l 1,18,-1
 113 322 l 1,19,-1
 460 322 l 1,20,-1
 436 293 l 1,21,22
 434 352 434 352 425.5 391.5 c 128,-1,23
 417 431 417 431 401.5 454.5 c 128,-1,24
 386 478 386 478 361.5 488 c 128,-1,25
 337 498 337 498 301 498 c 0,26,27
 266 498 266 498 237 485.5 c 128,-1,28
 208 473 208 473 187.5 446.5 c 128,-1,29
 167 420 167 420 156 378 c 128,-1,30
 145 336 145 336 145 276 c 0,31,32
 145 212 145 212 158.5 171 c 128,-1,33
 172 130 172 130 197 106.5 c 128,-1,34
 222 83 222 83 253.5 73.5 c 128,-1,35
 285 64 285 64 320 64 c 0,36,37
 362 64 362 64 391 75.5 c 128,-1,38
 420 87 420 87 441 107.5 c 128,-1,39
 462 128 462 128 478 157 c 1,40,-1
 535 115 l 1,41,42
 523 91 523 91 505 70 c 128,-1,43
 487 49 487 49 457 27 c 0,44,45
 429 7 429 7 403 -16.5 c 128,-1,46
 377 -40 377 -40 356.5 -64 c 128,-1,47
 336 -88 336 -88 324 -110.5 c 128,-1,48
 312 -133 312 -133 312 -151 c 0,49,50
 312 -168 312 -168 322.5 -178.5 c 128,-1,51
 333 -189 333 -189 355 -189 c 0,52,53
 383 -189 383 -189 403 -174.5 c 128,-1,54
 423 -160 423 -160 436 -144 c 1,55,-1
 477 -182 l 1,56,57
 451 -213 451 -213 417.5 -232.5 c 128,-1,58
 384 -252 384 -252 331 -252 c 0,59,60
 297 -252 297 -252 268.5 -242.5 c 128,-1,61
 240 -233 240 -233 223.5 -213 c 128,-1,62
 207 -193 207 -193 207 -162 c 0,63,64
 207 -138 207 -138 215.5 -118.5 c 128,-1,65
 224 -99 224 -99 245 -78 c 128,-1,66
 266 -57 266 -57 303.5 -29 c 128,-1,67
 341 -1 341 -1 399 40 c 1,0,-1
EndSplineSet
EndChar

